<svg id="Layer_1" data-name="Layer 1" xmlns="http://www.w3.org/2000/svg" viewBox="0 0 566.93 283.78"><defs><style>.cls-1{fill:#27aae1;}.cls-2{fill:#f1f2f2;}.cls-3{fill:#231f20;}.cls-4{fill:#fbb040;}.cls-5{fill:#f7941d;}.cls-6{fill:#ec008c;}.cls-7{fill:#c49a6c;}.cls-8{fill:#594a42;}.cls-9{fill:#00a651;}.cls-10{fill:none;stroke:#231f20;stroke-miterlimit:10;}.cls-11{fill:#ef4136;}</style></defs><rect class="cls-1" width="566.93" height="283.46"/><rect class="cls-2" x="56.75" y="108.53" width="36.06" height="174.93"/><rect class="cls-3" x="64.55" y="129.72" width="19.52" height="19.52"/><rect class="cls-3" x="65.02" y="162.81" width="19.52" height="19.52"/><rect class="cls-3" x="65.02" y="186.24" width="19.52" height="19.52"/><rect class="cls-3" x="65.02" y="211.78" width="19.52" height="19.52"/><polygon class="cls-4" points="266.41 218.99 174.41 219.32 220.13 139.48 266.41 218.99"/><rect class="cls-5" x="174.41" y="217.78" width="92" height="65.68"/><rect class="cls-3" x="211.77" y="182.32" width="16.26" height="16.26"/><rect class="cls-3" x="212.28" y="242.49" width="16.26" height="16.26"/><polygon class="cls-6" points="499.13 219.3 407.12 219.63 452.84 139.79 499.13 219.3"/><rect class="cls-7" x="407.12" y="218.1" width="92" height="65.68"/><rect class="cls-3" x="444.48" y="182.64" width="16.26" height="16.26"/><rect class="cls-3" x="444.99" y="242.8" width="16.26" height="16.26"/><rect class="cls-8" x="341.88" y="150.91" width="35.32" height="132.55"/><rect class="cls-3" x="349.68" y="162.81" width="19.52" height="19.52"/><rect class="cls-3" x="349.78" y="194.41" width="19.52" height="19.52"/><rect class="cls-3" x="349.78" y="226" width="19.52" height="19.52"/><rect class="cls-3" x="349.68" y="249" width="19.52" height="19.52"/><circle class="cls-9" cx="195.87" cy="40.59" r="18.68"/><line class="cls-10" x1="188.17" y1="57.61" x2="188.35" y2="85.11"/><line class="cls-10" x1="202.02" y1="57.61" x2="202.19" y2="85.11"/><rect class="cls-11" x="183.98" y="81.39" width="23.79" height="13.75"/><path class="cls-3" d="M187.6,33.34c3.22,0,3.22-5,0-5s-3.22,5,0,5Z"/><path class="cls-3" d="M204.33,33c3.22,0,3.22-5,0-5s-3.22,5,0,5Z"/><path class="cls-10" d="M186.49,42.72c-.44,1.16.68,2.27,1.67,3,2.18,1.62,4.57,3.31,7.28,3.34a6.69,6.69,0,0,0,6.43-5.26"/><path class="cls-10" d="M268.27,68.75v.38"/></svg>