<svg id="Layer_1" data-name="Layer 1" xmlns="http://www.w3.org/2000/svg" xmlns:xlink="http://www.w3.org/1999/xlink" viewBox="0 0 153.01 10.7"><defs><style>.cls-1{fill:none;}.cls-2{clip-path:url(#clip-path);}.cls-3{fill:#a25e29;}.cls-4{fill:#4b1615;}.cls-5{fill:#8d391c;}.cls-6{fill:#572015;}.cls-7{fill:#efe7d5;}.cls-8{clip-path:url(#clip-path-2);}</style><clipPath id="clip-path" transform="translate(0 -65.98)"><rect class="cls-1" y="65.68" width="76.5" height="10"/></clipPath><clipPath id="clip-path-2" transform="translate(0 -65.98)"><rect class="cls-1" x="76.36" y="65.68" width="73.57" height="10"/></clipPath></defs><g id="surface1"><g class="cls-2"><path class="cls-3" d="M76.66,76.68H0V66H76.66v10.7" transform="translate(0 -65.98)"/></g><path class="cls-4" d="M6.43,74.76a2.61,2.61,0,0,0-5.16,0H6.43" transform="translate(0 -65.98)"/><path class="cls-5" d="M11.15,74.76a2.62,2.62,0,0,0-5.17,0h5.17" transform="translate(0 -65.98)"/><path class="cls-6" d="M15.87,74.76a2.62,2.62,0,0,0-5.17,0h5.17" transform="translate(0 -65.98)"/><path class="cls-3" d="M20.59,74.76a2.62,2.62,0,0,0-5.17,0h5.17" transform="translate(0 -65.98)"/><path class="cls-3" d="M34.74,74.76a2.62,2.62,0,0,0-5.17,0h5.17" transform="translate(0 -65.98)"/><path class="cls-5" d="M39.46,74.76a2.62,2.62,0,0,0-5.17,0h5.17" transform="translate(0 -65.98)"/><path class="cls-4" d="M44.18,74.76a2.62,2.62,0,0,0-5.17,0h5.17" transform="translate(0 -65.98)"/><path class="cls-3" d="M48.93,74.76a2.61,2.61,0,0,0-5.16,0h5.16" transform="translate(0 -65.98)"/><path class="cls-4" d="M6.43,72.12a2.61,2.61,0,0,0-5.16,0H6.43" transform="translate(0 -65.98)"/><path class="cls-5" d="M11.15,72.12a2.62,2.62,0,0,0-5.17,0h5.17" transform="translate(0 -65.98)"/><path class="cls-3" d="M20.59,72.12a2.62,2.62,0,0,0-5.17,0h5.17" transform="translate(0 -65.98)"/><path class="cls-5" d="M25.31,72.12a2.62,2.62,0,0,0-5.17,0h5.17" transform="translate(0 -65.98)"/><path class="cls-4" d="M30,72.12a2.61,2.61,0,0,0-5.16,0H30" transform="translate(0 -65.98)"/><path class="cls-3" d="M34.74,72.12a2.62,2.62,0,0,0-5.17,0h5.17" transform="translate(0 -65.98)"/><path class="cls-3" d="M48.93,72.12a2.61,2.61,0,0,0-5.16,0h5.16" transform="translate(0 -65.98)"/><path class="cls-4" d="M6.43,69.3a2.61,2.61,0,0,0-5.16,0H6.43" transform="translate(0 -65.98)"/><path class="cls-5" d="M11.15,69.3A2.62,2.62,0,0,0,6,69.3h5.17" transform="translate(0 -65.98)"/><path class="cls-6" d="M15.87,69.3a2.62,2.62,0,0,0-5.17,0h5.17" transform="translate(0 -65.98)"/><path class="cls-3" d="M34.74,69.3a2.62,2.62,0,0,0-5.17,0h5.17" transform="translate(0 -65.98)"/><path class="cls-5" d="M39.46,69.3a2.62,2.62,0,0,0-5.17,0h5.17" transform="translate(0 -65.98)"/><path class="cls-4" d="M44.18,69.3a2.62,2.62,0,0,0-5.17,0h5.17" transform="translate(0 -65.98)"/><path class="cls-3" d="M48.93,69.3a2.61,2.61,0,0,0-5.16,0h5.16" transform="translate(0 -65.98)"/><path class="cls-4" d="M56.52,74.76a2.61,2.61,0,0,0-5.16,0h5.16" transform="translate(0 -65.98)"/><path class="cls-5" d="M61.24,74.76a2.62,2.62,0,0,0-5.17,0h5.17" transform="translate(0 -65.98)"/><path class="cls-6" d="M65.93,74.76a2.62,2.62,0,0,0-5.17,0h5.17" transform="translate(0 -65.98)"/><path class="cls-3" d="M70.68,74.76a2.62,2.62,0,0,0-5.17,0h5.17" transform="translate(0 -65.98)"/><path class="cls-4" d="M56.52,72.12a2.61,2.61,0,0,0-5.16,0h5.16" transform="translate(0 -65.98)"/><path class="cls-5" d="M61.24,72.12a2.62,2.62,0,0,0-5.17,0h5.17" transform="translate(0 -65.98)"/><path class="cls-3" d="M70.68,72.12a2.62,2.62,0,0,0-5.17,0h5.17" transform="translate(0 -65.98)"/><path class="cls-5" d="M75.39,72.12a2.61,2.61,0,0,0-5.16,0h5.16" transform="translate(0 -65.98)"/><path class="cls-4" d="M56.52,69.3a2.61,2.61,0,0,0-5.16,0h5.16" transform="translate(0 -65.98)"/><path class="cls-5" d="M61.24,69.3a2.62,2.62,0,0,0-5.17,0h5.17" transform="translate(0 -65.98)"/><path class="cls-6" d="M65.93,69.3a2.62,2.62,0,0,0-5.17,0h5.17" transform="translate(0 -65.98)"/><path class="cls-7" d="M26.31,32.54" transform="translate(0 -65.98)"/><g class="cls-8"><path class="cls-3" d="M153,76.68H76.36V66H153v10.7" transform="translate(0 -65.98)"/></g><path class="cls-4" d="M82.78,74.76a2.61,2.61,0,0,0-5.16,0h5.16" transform="translate(0 -65.98)"/><path class="cls-5" d="M87.5,74.76a2.61,2.61,0,0,0-5.16,0H87.5" transform="translate(0 -65.98)"/><path class="cls-6" d="M92.22,74.76a2.62,2.62,0,0,0-5.17,0h5.17" transform="translate(0 -65.98)"/><path class="cls-3" d="M96.93,74.76a2.61,2.61,0,0,0-5.16,0h5.16" transform="translate(0 -65.98)"/><path class="cls-3" d="M111.09,74.76a2.61,2.61,0,0,0-5.16,0h5.16" transform="translate(0 -65.98)"/><path class="cls-5" d="M115.81,74.76a2.62,2.62,0,0,0-5.17,0h5.17" transform="translate(0 -65.98)"/><path class="cls-4" d="M120.53,74.76a2.62,2.62,0,0,0-5.17,0h5.17" transform="translate(0 -65.98)"/><path class="cls-3" d="M125.24,74.76a2.61,2.61,0,0,0-5.16,0h5.16" transform="translate(0 -65.98)"/><path class="cls-4" d="M82.78,72.12a2.61,2.61,0,0,0-5.16,0h5.16" transform="translate(0 -65.98)"/><path class="cls-5" d="M87.5,72.12a2.61,2.61,0,0,0-5.16,0H87.5" transform="translate(0 -65.98)"/><path class="cls-3" d="M96.93,72.12a2.61,2.61,0,0,0-5.16,0h5.16" transform="translate(0 -65.98)"/><path class="cls-5" d="M101.65,72.12a2.61,2.61,0,0,0-5.16,0h5.16" transform="translate(0 -65.98)"/><path class="cls-4" d="M106.37,72.12a2.61,2.61,0,0,0-5.16,0h5.16" transform="translate(0 -65.98)"/><path class="cls-3" d="M111.09,72.12a2.61,2.61,0,0,0-5.16,0h5.16" transform="translate(0 -65.98)"/><path class="cls-3" d="M125.24,72.12a2.61,2.61,0,0,0-5.16,0h5.16" transform="translate(0 -65.98)"/><path class="cls-4" d="M82.78,69.3a2.61,2.61,0,0,0-5.16,0h5.16" transform="translate(0 -65.98)"/><path class="cls-5" d="M87.5,69.3a2.61,2.61,0,0,0-5.16,0H87.5" transform="translate(0 -65.98)"/><path class="cls-6" d="M92.22,69.3a2.62,2.62,0,0,0-5.17,0h5.17" transform="translate(0 -65.98)"/><path class="cls-3" d="M111.09,69.3a2.61,2.61,0,0,0-5.16,0h5.16" transform="translate(0 -65.98)"/><path class="cls-5" d="M115.81,69.3a2.62,2.62,0,0,0-5.17,0h5.17" transform="translate(0 -65.98)"/><path class="cls-4" d="M120.53,69.3a2.62,2.62,0,0,0-5.17,0h5.17" transform="translate(0 -65.98)"/><path class="cls-3" d="M125.24,69.3a2.61,2.61,0,0,0-5.16,0h5.16" transform="translate(0 -65.98)"/><path class="cls-4" d="M132.87,74.76a2.61,2.61,0,0,0-5.16,0h5.16" transform="translate(0 -65.98)"/><path class="cls-5" d="M137.59,74.76a2.61,2.61,0,0,0-5.16,0h5.16" transform="translate(0 -65.98)"/><path class="cls-6" d="M142.31,74.76a2.62,2.62,0,0,0-5.17,0h5.17" transform="translate(0 -65.98)"/><path class="cls-3" d="M147,74.76a2.61,2.61,0,0,0-5.16,0H147" transform="translate(0 -65.98)"/><path class="cls-4" d="M132.87,72.12a2.61,2.61,0,0,0-5.16,0h5.16" transform="translate(0 -65.98)"/><path class="cls-5" d="M137.59,72.12a2.61,2.61,0,0,0-5.16,0h5.16" transform="translate(0 -65.98)"/><path class="cls-3" d="M147,72.12a2.61,2.61,0,0,0-5.16,0H147" transform="translate(0 -65.98)"/><path class="cls-5" d="M149.6,72.13a2.61,2.61,0,0,0-5.16,0h5.16" transform="translate(0 -65.98)"/><path class="cls-4" d="M132.87,69.3a2.61,2.61,0,0,0-5.16,0h5.16" transform="translate(0 -65.98)"/><path class="cls-5" d="M137.59,69.3a2.61,2.61,0,0,0-5.16,0h5.16" transform="translate(0 -65.98)"/><path class="cls-6" d="M142.31,69.3a2.62,2.62,0,0,0-5.17,0h5.17" transform="translate(0 -65.98)"/></g></svg>