<svg id="Layer_1" data-name="Layer 1" xmlns="http://www.w3.org/2000/svg" xmlns:xlink="http://www.w3.org/1999/xlink" viewBox="0 0 153 76.65"><defs><style>.cls-1{fill:none;}.cls-2{clip-path:url(#clip-path);}.cls-3{fill:#91d8a8;}.cls-4{clip-path:url(#clip-path-2);}.cls-5{fill:#a25e29;}.cls-6{fill:#4b1615;}.cls-7{fill:#8d391c;}.cls-8{fill:#572015;}.cls-9{fill:#efe7d5;}.cls-10{clip-path:url(#clip-path-3);}.cls-11{clip-path:url(#clip-path-4);}</style><clipPath id="clip-path" transform="translate(-0.07 0.68)"><rect class="cls-1" x="0.07" width="76.5" height="75"/></clipPath><clipPath id="clip-path-2" transform="translate(-0.07 0.68)"><rect class="cls-1" x="0.07" y="65" width="76.5" height="10"/></clipPath><clipPath id="clip-path-3" transform="translate(-0.07 0.68)"><rect class="cls-1" x="76.43" width="73.57" height="75"/></clipPath><clipPath id="clip-path-4" transform="translate(-0.07 0.68)"><rect class="cls-1" x="76.43" y="65" width="73.57" height="10"/></clipPath></defs><g id="surface1"><g class="cls-2"><path class="cls-3" d="M76.73,76H.07V-.68H76.73V76" transform="translate(-0.07 0.68)"/></g><g class="cls-4"><path class="cls-5" d="M76.73,76H.07V65.3H76.73V76" transform="translate(-0.07 0.68)"/></g><path class="cls-6" d="M6.5,74.08a2.61,2.61,0,0,0-5.16,0H6.5" transform="translate(-0.07 0.68)"/><path class="cls-7" d="M11.22,74.08a2.62,2.62,0,0,0-5.17,0h5.17" transform="translate(-0.07 0.68)"/><path class="cls-8" d="M15.94,74.08a2.62,2.62,0,0,0-5.17,0h5.17" transform="translate(-0.07 0.68)"/><path class="cls-5" d="M20.66,74.08a2.62,2.62,0,0,0-5.17,0h5.17" transform="translate(-0.07 0.68)"/><path class="cls-5" d="M34.81,74.08a2.62,2.62,0,0,0-5.17,0h5.17" transform="translate(-0.07 0.68)"/><path class="cls-7" d="M39.53,74.08a2.62,2.62,0,0,0-5.17,0h5.17" transform="translate(-0.07 0.68)"/><path class="cls-6" d="M44.25,74.08a2.62,2.62,0,0,0-5.17,0h5.17" transform="translate(-0.07 0.68)"/><path class="cls-5" d="M49,74.08a2.61,2.61,0,0,0-5.16,0H49" transform="translate(-0.07 0.68)"/><path class="cls-6" d="M6.5,71.44a2.61,2.61,0,0,0-5.16,0H6.5" transform="translate(-0.07 0.68)"/><path class="cls-7" d="M11.22,71.44a2.62,2.62,0,0,0-5.17,0h5.17" transform="translate(-0.07 0.68)"/><path class="cls-5" d="M20.66,71.44a2.62,2.62,0,0,0-5.17,0h5.17" transform="translate(-0.07 0.68)"/><path class="cls-7" d="M25.38,71.44a2.62,2.62,0,0,0-5.17,0h5.17" transform="translate(-0.07 0.68)"/><path class="cls-6" d="M30.09,71.44a2.61,2.61,0,0,0-5.16,0h5.16" transform="translate(-0.07 0.68)"/><path class="cls-5" d="M34.81,71.44a2.62,2.62,0,0,0-5.17,0h5.17" transform="translate(-0.07 0.68)"/><path class="cls-5" d="M49,71.44a2.61,2.61,0,0,0-5.16,0H49" transform="translate(-0.07 0.68)"/><path class="cls-6" d="M6.5,68.62a2.61,2.61,0,0,0-5.16,0H6.5" transform="translate(-0.07 0.68)"/><path class="cls-7" d="M11.22,68.62a2.62,2.62,0,0,0-5.17,0h5.17" transform="translate(-0.07 0.68)"/><path class="cls-8" d="M15.94,68.62a2.62,2.62,0,0,0-5.17,0h5.17" transform="translate(-0.07 0.68)"/><path class="cls-5" d="M34.81,68.62a2.62,2.62,0,0,0-5.17,0h5.17" transform="translate(-0.07 0.68)"/><path class="cls-7" d="M39.53,68.62a2.62,2.62,0,0,0-5.17,0h5.17" transform="translate(-0.07 0.68)"/><path class="cls-6" d="M44.25,68.62a2.62,2.62,0,0,0-5.17,0h5.17" transform="translate(-0.07 0.68)"/><path class="cls-5" d="M49,68.62a2.61,2.61,0,0,0-5.16,0H49" transform="translate(-0.07 0.68)"/><path class="cls-6" d="M56.59,74.08a2.61,2.61,0,0,0-5.16,0h5.16" transform="translate(-0.07 0.68)"/><path class="cls-7" d="M61.31,74.08a2.62,2.62,0,0,0-5.17,0h5.17" transform="translate(-0.07 0.68)"/><path class="cls-8" d="M66,74.08a2.62,2.62,0,0,0-5.17,0H66" transform="translate(-0.07 0.68)"/><path class="cls-5" d="M70.75,74.08a2.62,2.62,0,0,0-5.17,0h5.17" transform="translate(-0.07 0.68)"/><path class="cls-6" d="M56.59,71.44a2.61,2.61,0,0,0-5.16,0h5.16" transform="translate(-0.07 0.68)"/><path class="cls-7" d="M61.31,71.44a2.62,2.62,0,0,0-5.17,0h5.17" transform="translate(-0.07 0.68)"/><path class="cls-5" d="M70.75,71.44a2.62,2.62,0,0,0-5.17,0h5.17" transform="translate(-0.07 0.68)"/><path class="cls-7" d="M75.46,71.44a2.61,2.61,0,0,0-5.16,0h5.16" transform="translate(-0.07 0.68)"/><path class="cls-6" d="M56.59,68.62a2.61,2.61,0,0,0-5.16,0h5.16" transform="translate(-0.07 0.68)"/><path class="cls-7" d="M61.31,68.62a2.62,2.62,0,0,0-5.17,0h5.17" transform="translate(-0.07 0.68)"/><path class="cls-8" d="M66,68.62a2.62,2.62,0,0,0-5.17,0H66" transform="translate(-0.07 0.68)"/><path class="cls-9" d="M49.49,15.43s0-4.06,3.48-4.06c.22,0,.42,0,.63,0a1.59,1.59,0,0,1-.22-.78C53.38,9.15,55.56,8,58.24,8s4.86,1.19,4.86,2.66a1.52,1.52,0,0,1-.09.51,5.6,5.6,0,0,1,2.11-.38C67,10.75,68.46,12,68.59,13a4.45,4.45,0,0,1,1.26-.18c2.43,0,2.65,2.59,2.65,2.59h-23" transform="translate(-0.07 0.68)"/><path class="cls-9" d="M71.27,34.54s0-5.93-4.09-5.93a5.71,5.71,0,0,0-.73.05,2.82,2.82,0,0,0,.25-1.14c0-2.14-2.56-3.88-5.72-3.88s-5.71,1.74-5.71,3.88a2.67,2.67,0,0,0,.11.75,5.45,5.45,0,0,0-2.47-.57A4.3,4.3,0,0,0,48.83,31a4.38,4.38,0,0,0-1.48-.25c-2.86,0-3.12,3.77-3.12,3.77h27" transform="translate(-0.07 0.68)"/><path class="cls-9" d="M4.84,16.13s0-4.83,3.33-4.83a5.85,5.85,0,0,1,.6,0,2.11,2.11,0,0,1-.21-.93c0-1.73,2.08-3.14,4.65-3.14s4.64,1.41,4.64,3.14a2.16,2.16,0,0,1-.09.62,4.41,4.41,0,0,1,2-.46,3.48,3.48,0,0,1,3.32,2.7,3.34,3.34,0,0,1,1.21-.21c2.32,0,2.53,3.07,2.53,3.07h-22" transform="translate(-0.07 0.68)"/><path class="cls-9" d="M26.38,31.84s0-3.19-2.3-3.19a2.73,2.73,0,0,0-.41,0,1.47,1.47,0,0,0,.14-.61c0-1.16-1.43-2.09-3.21-2.09s-3.21.93-3.21,2.09a1.39,1.39,0,0,0,.06.4,3.2,3.2,0,0,0-1.39-.31A2.38,2.38,0,0,0,13.77,30a2.51,2.51,0,0,0-.84-.14c-1.6,0-1.75,2-1.75,2h15.2" transform="translate(-0.07 0.68)"/><g class="cls-10"><path class="cls-3" d="M153.08,76H76.43V-.68h76.65V76" transform="translate(-0.07 0.68)"/></g><g class="cls-11"><path class="cls-5" d="M153.08,76H76.43V65.3h76.65V76" transform="translate(-0.07 0.68)"/></g><path class="cls-6" d="M82.85,74.08a2.61,2.61,0,0,0-5.16,0h5.16" transform="translate(-0.07 0.68)"/><path class="cls-7" d="M87.57,74.08a2.61,2.61,0,0,0-5.16,0h5.16" transform="translate(-0.07 0.68)"/><path class="cls-8" d="M92.29,74.08a2.62,2.62,0,0,0-5.17,0h5.17" transform="translate(-0.07 0.68)"/><path class="cls-5" d="M97,74.08a2.61,2.61,0,0,0-5.16,0H97" transform="translate(-0.07 0.68)"/><path class="cls-5" d="M111.16,74.08a2.61,2.61,0,0,0-5.16,0h5.16" transform="translate(-0.07 0.68)"/><path class="cls-7" d="M115.88,74.08a2.62,2.62,0,0,0-5.17,0h5.17" transform="translate(-0.07 0.68)"/><path class="cls-6" d="M120.6,74.08a2.62,2.62,0,0,0-5.17,0h5.17" transform="translate(-0.07 0.68)"/><path class="cls-5" d="M125.31,74.08a2.61,2.61,0,0,0-5.16,0h5.16" transform="translate(-0.07 0.68)"/><path class="cls-6" d="M82.85,71.44a2.61,2.61,0,0,0-5.16,0h5.16" transform="translate(-0.07 0.68)"/><path class="cls-7" d="M87.57,71.44a2.61,2.61,0,0,0-5.16,0h5.16" transform="translate(-0.07 0.68)"/><path class="cls-5" d="M97,71.44a2.61,2.61,0,0,0-5.16,0H97" transform="translate(-0.07 0.68)"/><path class="cls-7" d="M101.72,71.44a2.61,2.61,0,0,0-5.16,0h5.16" transform="translate(-0.07 0.68)"/><path class="cls-6" d="M106.44,71.44a2.61,2.61,0,0,0-5.16,0h5.16" transform="translate(-0.07 0.68)"/><path class="cls-5" d="M111.16,71.44a2.61,2.61,0,0,0-5.16,0h5.16" transform="translate(-0.07 0.68)"/><path class="cls-5" d="M125.31,71.44a2.61,2.61,0,0,0-5.16,0h5.16" transform="translate(-0.07 0.68)"/><path class="cls-6" d="M82.85,68.62a2.61,2.61,0,0,0-5.16,0h5.16" transform="translate(-0.07 0.68)"/><path class="cls-7" d="M87.57,68.62a2.61,2.61,0,0,0-5.16,0h5.16" transform="translate(-0.07 0.68)"/><path class="cls-8" d="M92.29,68.62a2.62,2.62,0,0,0-5.17,0h5.17" transform="translate(-0.07 0.68)"/><path class="cls-5" d="M111.16,68.62a2.61,2.61,0,0,0-5.16,0h5.16" transform="translate(-0.07 0.68)"/><path class="cls-7" d="M115.88,68.62a2.62,2.62,0,0,0-5.17,0h5.17" transform="translate(-0.07 0.68)"/><path class="cls-6" d="M120.6,68.62a2.62,2.62,0,0,0-5.17,0h5.17" transform="translate(-0.07 0.68)"/><path class="cls-5" d="M125.31,68.62a2.61,2.61,0,0,0-5.16,0h5.16" transform="translate(-0.07 0.68)"/><path class="cls-6" d="M132.94,74.08a2.61,2.61,0,0,0-5.16,0h5.16" transform="translate(-0.07 0.68)"/><path class="cls-7" d="M137.66,74.08a2.61,2.61,0,0,0-5.16,0h5.16" transform="translate(-0.07 0.68)"/><path class="cls-8" d="M142.38,74.08a2.62,2.62,0,0,0-5.17,0h5.17" transform="translate(-0.07 0.68)"/><path class="cls-5" d="M147.09,74.08a2.61,2.61,0,0,0-5.16,0h5.16" transform="translate(-0.07 0.68)"/><path class="cls-6" d="M132.94,71.44a2.61,2.61,0,0,0-5.16,0h5.16" transform="translate(-0.07 0.68)"/><path class="cls-7" d="M137.66,71.44a2.61,2.61,0,0,0-5.16,0h5.16" transform="translate(-0.07 0.68)"/><path class="cls-5" d="M147.09,71.44a2.61,2.61,0,0,0-5.16,0h5.16" transform="translate(-0.07 0.68)"/><path class="cls-7" d="M151.81,71.44a2.61,2.61,0,0,0-5.16,0h5.16" transform="translate(-0.07 0.68)"/><path class="cls-6" d="M132.94,68.62a2.61,2.61,0,0,0-5.16,0h5.16" transform="translate(-0.07 0.68)"/><path class="cls-7" d="M137.66,68.62a2.61,2.61,0,0,0-5.16,0h5.16" transform="translate(-0.07 0.68)"/><path class="cls-8" d="M142.38,68.62a2.62,2.62,0,0,0-5.17,0h5.17" transform="translate(-0.07 0.68)"/><path class="cls-9" d="M125.84,15.43s0-4.06,3.48-4.06c.22,0,.42,0,.63,0a1.49,1.49,0,0,1-.22-.78c0-1.47,2.18-2.66,4.86-2.66s4.86,1.19,4.86,2.66a1.52,1.52,0,0,1-.09.51,5.62,5.62,0,0,1,2.1-.38c1.84,0,3.35,1.28,3.48,2.27a4.45,4.45,0,0,1,1.26-.18c2.43,0,2.66,2.59,2.66,2.59h-23" transform="translate(-0.07 0.68)"/><path class="cls-9" d="M147.62,34.54s0-5.93-4.09-5.93a6,6,0,0,0-.74.05,2.68,2.68,0,0,0,.26-1.14c0-2.14-2.56-3.88-5.71-3.88s-5.72,1.74-5.72,3.88a2.67,2.67,0,0,0,.11.75,5.45,5.45,0,0,0-2.47-.57A4.3,4.3,0,0,0,125.18,31a4.38,4.38,0,0,0-1.48-.25c-2.86,0-3.12,3.77-3.12,3.77h27" transform="translate(-0.07 0.68)"/><path class="cls-9" d="M81.19,16.13s0-4.83,3.33-4.83c.2,0,.4,0,.6,0a2.11,2.11,0,0,1-.21-.93c0-1.73,2.08-3.14,4.64-3.14s4.65,1.41,4.65,3.14a2.16,2.16,0,0,1-.09.62,4.41,4.41,0,0,1,2-.46,3.51,3.51,0,0,1,3.33,2.7,3.25,3.25,0,0,1,1.2-.21c2.32,0,2.53,3.07,2.53,3.07h-22" transform="translate(-0.07 0.68)"/><path class="cls-9" d="M102.73,31.84s0-3.19-2.3-3.19a2.73,2.73,0,0,0-.41,0,1.47,1.47,0,0,0,.14-.61c0-1.16-1.44-2.09-3.21-2.09s-3.21.93-3.21,2.09a1.39,1.39,0,0,0,.06.4,3.2,3.2,0,0,0-1.39-.31A2.41,2.41,0,0,0,90.11,30a2.41,2.41,0,0,0-.83-.14c-1.6,0-1.75,2-1.75,2h15.2" transform="translate(-0.07 0.68)"/></g></svg>