<svg id="Layer_1" data-name="Layer 1" xmlns="http://www.w3.org/2000/svg" viewBox="0 0 566.93 283.46"><defs><style>.cls-1{fill:#e0e321;}.cls-2{fill:#f1f2f2;}</style></defs><rect class="cls-1" width="566.93" height="283.46"/><rect class="cls-2" x="130.68" y="113.9" width="121.05" height="34.02" rx="12"/><ellipse class="cls-2" cx="176.57" cy="109.15" rx="21.36" ry="26.9"/><ellipse class="cls-2" cx="210.59" cy="97.29" rx="34.02" ry="38.77"/><rect class="cls-2" x="369.63" y="64.84" width="121.05" height="34.02" rx="12"/><ellipse class="cls-2" cx="415.52" cy="60.1" rx="21.36" ry="26.9"/><ellipse class="cls-2" cx="449.54" cy="48.23" rx="34.02" ry="38.77"/><rect class="cls-2" x="362.51" y="197.12" width="121.05" height="34.02" rx="12"/><ellipse class="cls-2" cx="408.4" cy="192.37" rx="21.36" ry="26.9"/><ellipse class="cls-2" cx="442.42" cy="180.5" rx="34.02" ry="38.77"/><rect class="cls-2" x="94.68" y="241.82" width="121.05" height="34.02" rx="12"/><ellipse class="cls-2" cx="140.57" cy="237.07" rx="21.36" ry="26.9"/><ellipse class="cls-2" cx="174.59" cy="225.2" rx="34.02" ry="38.77"/><rect class="cls-2" x="231.96" y="186.69" width="121.05" height="34.02" rx="12"/><ellipse class="cls-2" cx="277.85" cy="181.95" rx="21.36" ry="26.9"/><ellipse class="cls-2" cx="311.87" cy="170.08" rx="34.02" ry="38.77"/></svg>