<svg id="Layer_1" data-name="Layer 1" xmlns="http://www.w3.org/2000/svg" xmlns:xlink="http://www.w3.org/1999/xlink" viewBox="0 0 15 41.65"><defs><style>.cls-1{fill:none;}.cls-2{fill:#ccc;}.cls-3{clip-path:url(#clip-path);}.cls-4{clip-path:url(#clip-path-2);}.cls-5{clip-path:url(#clip-path-3);}</style><clipPath id="clip-path" transform="translate(-15.02 -1.36)"><rect class="cls-1" x="16" y="1.32" width="6" height="3.68"/></clipPath><clipPath id="clip-path-2" transform="translate(-15.02 -1.36)"><rect class="cls-1" x="15" y="1.32" width="15" height="3.68"/></clipPath><clipPath id="clip-path-3" transform="translate(-15.02 -1.36)"><rect class="cls-1" x="15" y="1.32" width="15.09" height="41.76"/></clipPath></defs><g id="surface1"><path d="M26.82,9a.72.72,0,0,0-.18-.24h.29a.67.67,0,0,1,.06.12c.06.12.17.36.05.48a0,0,0,0,1-.06,0C26.87,9.26,26.87,9.07,26.82,9Z" transform="translate(-15.02 -1.36)"/><path d="M26.64,8.72l-.09-.13a0,0,0,0,1,0-.08.47.47,0,0,1,.34.21Z" transform="translate(-15.02 -1.36)"/><path d="M26.08,8.89a1.29,1.29,0,0,0-.32-.19h.46l.08.08c.06.07.4.57.12.57a.11.11,0,0,1-.09-.07A1,1,0,0,0,26.08,8.89Z" transform="translate(-15.02 -1.36)"/><path d="M25.68,8.66c-.05,0-.05-.12,0-.13a.7.7,0,0,1,.53.18h-.46Z" transform="translate(-15.02 -1.36)"/><path d="M25.73,14.79v-.54a6.55,6.55,0,0,1,.29.85,0,0,0,0,1-.07,0A1,1,0,0,1,25.73,14.79Z" transform="translate(-15.02 -1.36)"/><path d="M25.73,13.21c.06.22.17.41.25.63,0,0-.05.06-.07,0a.55.55,0,0,1-.14-.17c0,.13.07.26.11.39a1.37,1.37,0,0,1,.18.49s0,0,0,0a.8.8,0,0,1-.28-.45C25.74,13.85,25.73,13.53,25.73,13.21Z" transform="translate(-15.02 -1.36)"/><path d="M25.71,15.55c0-.22,0-.45,0-.68a3,3,0,0,0,.11.52,2.39,2.39,0,0,1,.14.43.06.06,0,0,1-.09,0A.83.83,0,0,1,25.71,15.55Z" transform="translate(-15.02 -1.36)"/><path d="M25.69,16.46c0-.23,0-.47,0-.71a3.21,3.21,0,0,0,.07.43c.06.22.2.41.24.63a0,0,0,0,1,0,0A.73.73,0,0,1,25.69,16.46Z" transform="translate(-15.02 -1.36)"/><path d="M25.73,14.87l0-.15,0,.07Z" transform="translate(-15.02 -1.36)"/><path d="M25.69,32.7l0-.08a.1.1,0,0,0,0-.08V32.4a.24.24,0,0,0,.06.11c.06.1.19.17.23.28a0,0,0,0,1,0,.07.33.33,0,0,1-.25-.15Z" transform="translate(-15.02 -1.36)"/><path d="M25.68,31.54v-.43a2,2,0,0,0,.11.26,1.38,1.38,0,0,1,.19.41s0,0,0,0A.61.61,0,0,1,25.68,31.54Z" transform="translate(-15.02 -1.36)"/><path d="M25.72,13c0-.29,0-.58,0-.86,0,0,0,0,0,0h0c.05.1.07.22.12.33a2,2,0,0,1,.13.34s0,0,0,0a.47.47,0,0,1-.16-.18,2.35,2.35,0,0,0,.11.35c0,.11.11.22.16.33s0,.1-.07.06A.75.75,0,0,1,25.72,13Z" transform="translate(-15.02 -1.36)"/><path d="M26,17.73a1,1,0,0,1-.31-.53v-.15c0-.18,0-.36,0-.54a4.06,4.06,0,0,0,.25.84.88.88,0,0,1,.1.35A0,0,0,0,1,26,17.73Z" transform="translate(-15.02 -1.36)"/><path d="M25.69,32.09c0-.16,0-.3,0-.45,0,.09.07.19.11.28s.19.27.16.4a0,0,0,0,1,0,0A.43.43,0,0,1,25.69,32.09Z" transform="translate(-15.02 -1.36)"/><path d="M25.71,15.55a2,2,0,0,1-.07-.83s.05,0,.06,0a2,2,0,0,1-.07-.53c0-.06.08-.07.08,0a.51.51,0,0,1,0,.09v.54l0-.07,0,.15C25.72,15.1,25.71,15.33,25.71,15.55Z" transform="translate(-15.02 -1.36)"/><path d="M25.69,32.7h0Z" transform="translate(-15.02 -1.36)"/><path d="M25.67,18.79V17.28s0,0,0,0a2.18,2.18,0,0,0,.23.75,1.45,1.45,0,0,1,.11.26c0,.05,0,.1-.07.07a.7.7,0,0,1-.25-.33,3.08,3.08,0,0,0,.06.61,1.8,1.8,0,0,1,.14.54s0,0,0,0a.83.83,0,0,1-.21-.43Z" transform="translate(-15.02 -1.36)"/><path d="M25.68,13.52a1.68,1.68,0,0,1-.07-.5s.07,0,.08,0a1.29,1.29,0,0,0,0,.19c0,.32,0,.64,0,.95a5,5,0,0,1-.09-.59S25.66,13.53,25.68,13.52Z" transform="translate(-15.02 -1.36)"/><path d="M25.68,17.2a2.78,2.78,0,0,1-.09-.72c0-.05.09-.07.09,0s0,0,0,0c0,.18,0,.36,0,.54Z" transform="translate(-15.02 -1.36)"/><path d="M25.65,20.49c0-.48,0-1,0-1.45,0,.18.07.35.12.52a4,4,0,0,1,.18.59c0,.06-.07.08-.11,0a1,1,0,0,1-.18-.34,2,2,0,0,0,.2.72,1,1,0,0,1,.13.32.05.05,0,0,1-.08.05c-.15-.07-.22-.28-.26-.43S25.65,20.5,25.65,20.49Z" transform="translate(-15.02 -1.36)"/><path d="M25.91,31.1a1,1,0,0,1-.23-.31c0-.16,0-.31,0-.47a1.72,1.72,0,0,0,.07.21,2.35,2.35,0,0,1,.22.54A0,0,0,0,1,25.91,31.1Z" transform="translate(-15.02 -1.36)"/><path d="M25.7,12.49a.63.63,0,0,1-.07-.42s0,0,.06,0,0,0,0,0c0,.28,0,.57,0,.86a1.12,1.12,0,0,1-.06-.44S25.68,12.49,25.7,12.49Z" transform="translate(-15.02 -1.36)"/><path d="M25.62,18.59a2.09,2.09,0,0,1,0-.66s0,0,0,0a2,2,0,0,1-.05-.58,0,0,0,0,1,.07,0v1.51C25.65,18.72,25.64,18.66,25.62,18.59Z" transform="translate(-15.02 -1.36)"/><path d="M25.64,21.28c0-.24,0-.49,0-.73a4,4,0,0,1,.1.5c.06.24.18.45.24.67a0,0,0,0,1-.06,0A1.23,1.23,0,0,1,25.64,21.28Z" transform="translate(-15.02 -1.36)"/><path d="M25.62,23.79c0-.25,0-.52,0-.78a3.29,3.29,0,0,0,.1.53,1.57,1.57,0,0,1,.15.51,0,0,0,0,1-.05,0A.84.84,0,0,1,25.62,23.79Z" transform="translate(-15.02 -1.36)"/><path d="M25.67,30l0-2.44a3.1,3.1,0,0,0,.19.74,1.81,1.81,0,0,1,.14.45,0,0,0,0,1-.06,0,1.48,1.48,0,0,1-.23-.36,2.63,2.63,0,0,0,.13.62,2.76,2.76,0,0,1,.2.47,0,0,0,0,1,0,0,.67.67,0,0,1-.3-.42,2.14,2.14,0,0,0,.11.67,3.08,3.08,0,0,1,.21.53s0,.05,0,0A.68.68,0,0,1,25.67,30Z" transform="translate(-15.02 -1.36)"/><path d="M25.69,16.46a1.54,1.54,0,0,1-.06-.89s0,0,0,0,0,.12,0,.18C25.7,16,25.7,16.23,25.69,16.46Z" transform="translate(-15.02 -1.36)"/><path d="M25.64,21.28a1,1,0,0,1,0-.77s0,0,0,0,0,0,0,0C25.65,20.79,25.64,21,25.64,21.28Z" transform="translate(-15.02 -1.36)"/><path d="M25.79,23.3a3.4,3.4,0,0,1-.16-.37h0v-.71c0-.25,0-.51,0-.76a2.37,2.37,0,0,0,.11.46,2.2,2.2,0,0,1,.13.36c0,.05,0,.08-.07.05a.74.74,0,0,1-.17-.25c0,.18,0,.36.06.53a3.16,3.16,0,0,1,.18.67C25.89,23.32,25.81,23.34,25.79,23.3Z" transform="translate(-15.02 -1.36)"/><path d="M25.64,26.62c0-.21,0-.42,0-.63a2.77,2.77,0,0,0,.17.58,1,1,0,0,1,.12.35s0,0,0,0a.38.38,0,0,1-.2-.23,2.35,2.35,0,0,0,.1.59c0,.16.13.31.18.48s0,.06-.07,0a1,1,0,0,1-.25-.46v-.73h0Z" transform="translate(-15.02 -1.36)"/><path class="cls-2" d="M25.64,26.63h0Z" transform="translate(-15.02 -1.36)"/><path d="M25.64,27.36a2,2,0,0,1-.05-.69s0-.05.05,0Z" transform="translate(-15.02 -1.36)"/><path d="M25.63,25.89c0-.69,0-1.37,0-2.06a1.91,1.91,0,0,0,.16.53,1,1,0,0,1,.12.37,0,0,0,0,1,0,0,.64.64,0,0,1-.19-.21,2.7,2.7,0,0,0,.08.39c.05.18.15.36.18.54,0,0,0,0,0,0a.78.78,0,0,1-.21-.29,1.78,1.78,0,0,0,.08.45,5.44,5.44,0,0,1,.19.57,0,0,0,0,1-.06,0A.94.94,0,0,1,25.63,25.89Z" transform="translate(-15.02 -1.36)"/><path d="M25.63,31.42l.05.12v.1a1.6,1.6,0,0,1-.05-.21Z" transform="translate(-15.02 -1.36)"/><path class="cls-2" d="M25.78,24.36a1.91,1.91,0,0,1-.16-.53h0v0a.84.84,0,0,0,.21.29,0,0,0,0,0,.05,0,1.57,1.57,0,0,0-.15-.51,3.29,3.29,0,0,1-.1-.53v-.08a3.4,3.4,0,0,0,.16.37s.1,0,.09,0a3.16,3.16,0,0,0-.18-.67c0-.17,0-.35-.06-.53a.74.74,0,0,0,.17.25s.08,0,.07-.05a2.2,2.2,0,0,0-.13-.36,2.37,2.37,0,0,1-.11-.46v-.17a1.23,1.23,0,0,0,.29.48,0,0,0,0,0,.06,0c-.06-.22-.18-.43-.24-.67a4,4,0,0,0-.1-.5v-.06s0,0,0,0,.11.36.26.43a.05.05,0,0,0,.08-.05,1,1,0,0,0-.13-.32,2,2,0,0,1-.2-.72,1,1,0,0,0,.18.34s.12,0,.11,0a4,4,0,0,0-.18-.59c-.05-.17-.08-.34-.12-.52s0-.17,0-.25a.83.83,0,0,0,.21.43s0,0,0,0a1.8,1.8,0,0,0-.14-.54,3.08,3.08,0,0,1-.06-.61.7.7,0,0,0,.25.33s.08,0,.07-.07a1.45,1.45,0,0,0-.11-.26,2.18,2.18,0,0,1-.23-.75s0,0,0,0V17.2a1,1,0,0,0,.31.53,0,0,0,0,0,.05,0,.88.88,0,0,0-.1-.35,4.06,4.06,0,0,1-.25-.84v-.05a.73.73,0,0,0,.3.38,0,0,0,0,0,0,0c0-.22-.18-.41-.24-.63a3.21,3.21,0,0,1-.07-.43v-.2a.83.83,0,0,0,.18.32.06.06,0,0,0,.09,0,2.39,2.39,0,0,0-.14-.43,3,3,0,0,1-.11-.52v-.08a1,1,0,0,0,.22.35,0,0,0,0,0,.07,0,6.55,6.55,0,0,0-.29-.85v-.09a.8.8,0,0,0,.28.45s0,0,0,0a1.37,1.37,0,0,0-.18-.49c0-.13-.08-.26-.11-.39a.55.55,0,0,0,.14.17s.08,0,.07,0c-.08-.22-.19-.41-.25-.63a2,2,0,0,1,0-.25.75.75,0,0,0,.23.36s.09,0,.07-.06-.12-.22-.16-.33a2.35,2.35,0,0,1-.11-.35.47.47,0,0,0,.16.18s.05,0,0,0a2,2,0,0,0-.13-.34c-.05-.11-.07-.23-.12-.33h0a1.74,1.74,0,0,1,.1-.19.29.29,0,0,1,.27-.13c.1,0,.17.11.21.2s0,.23.06.33c-.12,1.4-.06,2.84-.07,4.25,0,1.82-.05,3.64-.06,5.47,0,3.57,0,7.14,0,10.71a.19.19,0,0,0,0,.08c-.09.13-.2.29-.36.17a.49.49,0,0,1-.15-.24.33.33,0,0,0,.25.15,0,0,0,0,0,0-.07c0-.11-.17-.18-.23-.28a.24.24,0,0,1-.06-.11v-.31a.43.43,0,0,0,.22.27,0,0,0,0,0,0,0c0-.13-.1-.28-.16-.4s-.08-.19-.11-.28v-.1a.61.61,0,0,0,.27.28s0,0,0,0a1.38,1.38,0,0,0-.19-.41,2,2,0,0,1-.11-.26h0v-.32a1,1,0,0,0,.23.31,0,0,0,0,0,.05,0,2.35,2.35,0,0,0-.22-.54,1.72,1.72,0,0,1-.07-.21V30a.68.68,0,0,0,.27.36s0,0,0,0a3.08,3.08,0,0,0-.21-.53,2.14,2.14,0,0,1-.11-.67.67.67,0,0,0,.3.42,0,0,0,0,0,0,0,2.76,2.76,0,0,0-.2-.47,2.63,2.63,0,0,1-.13-.62,1.48,1.48,0,0,0,.23.36,0,0,0,0,0,.06,0,1.81,1.81,0,0,0-.14-.45,3.1,3.1,0,0,1-.19-.74h0v-.16a1,1,0,0,0,.25.46s.08,0,.07,0-.13-.32-.18-.48a2.35,2.35,0,0,1-.1-.59.38.38,0,0,0,.2.23s0,0,0,0a1,1,0,0,0-.12-.35,2.77,2.77,0,0,1-.17-.58v-.1a.94.94,0,0,0,.25.38,0,0,0,0,0,.06,0,5.44,5.44,0,0,0-.19-.57,1.78,1.78,0,0,1-.08-.45.78.78,0,0,0,.21.29s0,0,0,0c0-.18-.13-.36-.18-.54a2.7,2.7,0,0,1-.08-.39.64.64,0,0,0,.19.21,0,0,0,0,0,0,0A1,1,0,0,0,25.78,24.36Z" transform="translate(-15.02 -1.36)"/><path d="M25.62,23.78h0v0Z" transform="translate(-15.02 -1.36)"/><path d="M25.66,19.79a3.19,3.19,0,0,1-.11-.91,0,0,0,0,1,.09,0c0,.06,0,.12,0,.17,0,.49,0,1,0,1.45a1.89,1.89,0,0,1-.06-.67S25.63,19.78,25.66,19.79Z" transform="translate(-15.02 -1.36)"/><path d="M25.62,28.22a1.74,1.74,0,0,1-.05-.81s.06,0,.06,0v.11h0l0,2.44a1.59,1.59,0,0,1-.06-1s0,0,0,0a1.3,1.3,0,0,1,0-.73Z" transform="translate(-15.02 -1.36)"/><path d="M25.63,31.41a1.38,1.38,0,0,1-.09-.62c0-.06.07-.05.08,0a1.2,1.2,0,0,0,.06.32h0v.43l-.05-.12Z" transform="translate(-15.02 -1.36)"/><path d="M25.62,32.59a.64.64,0,0,1,0-.45s.05,0,.05,0a1.1,1.1,0,0,0,.06.26v.14a.1.1,0,0,1,0,.08l0,.08A.67.67,0,0,1,25.62,32.59Z" transform="translate(-15.02 -1.36)"/><path d="M25.63,31.93a1.32,1.32,0,0,1-.09-.48.05.05,0,0,1,.09,0h0a1.6,1.6,0,0,0,.05.21c0,.15,0,.29,0,.45A.64.64,0,0,1,25.63,31.93Z" transform="translate(-15.02 -1.36)"/><path d="M25.62,26.57a1.67,1.67,0,0,1-.09-.7c0-.05.07-.07.08,0s0,.09,0,.13c0,.21,0,.42,0,.63C25.63,26.6,25.62,26.59,25.62,26.57Z" transform="translate(-15.02 -1.36)"/><path d="M25.57,23.67a1.16,1.16,0,0,1,0-.73s.07,0,.07,0a.64.64,0,0,1,0,.07c0,.26,0,.53,0,.78h0v0h0c0,.69,0,1.37,0,2.06a1.33,1.33,0,0,1,0-.83l0,0a1.6,1.6,0,0,1,0-.68v0a1.54,1.54,0,0,1,0-.63S25.55,23.66,25.57,23.67Z" transform="translate(-15.02 -1.36)"/><path d="M25.68,30.79a1.66,1.66,0,0,1-.16-.88s.05,0,.06,0l.09.41C25.68,30.48,25.68,30.63,25.68,30.79Z" transform="translate(-15.02 -1.36)"/><path d="M25.63,22.92a1.07,1.07,0,0,1,0-.89,0,0,0,0,1,0,0,1.55,1.55,0,0,1-.07-.73s.07,0,.07,0a.77.77,0,0,0,0,.15c0,.25,0,.51,0,.76Z" transform="translate(-15.02 -1.36)"/><path d="M25.42,32.53c0-3.44,0-6.88,0-10.32L25.51,17c0-1.65-.07-3.34.07-5,0-.23.27-.48.47-.47a.41.41,0,0,1,.34.25c.05.11.13.31.06.43.11,1.46,0,3,0,4.43,0,1.82-.05,3.64-.05,5.46,0,3.51.07,7,.06,10.53a.12.12,0,0,1-.06.12.51.51,0,0,1-.22.34.36.36,0,0,1-.44,0,.79.79,0,0,1-.29-.57A.13.13,0,0,1,25.42,32.53Zm.17-5.86a2,2,0,0,0,.05.69v.05s-.05,0-.06,0a1.74,1.74,0,0,0,.05.81h0a1.3,1.3,0,0,0,0,.73s0,0,0,0a1.59,1.59,0,0,0,.06,1v.36l-.09-.41s0,0-.06,0a1.66,1.66,0,0,0,.16.88v.32a1.2,1.2,0,0,1-.06-.32c0-.05-.08-.06-.08,0a1.38,1.38,0,0,0,.09.62.05.05,0,0,0-.09,0,1.32,1.32,0,0,0,.09.48.64.64,0,0,0,.06.16v.31a1.1,1.1,0,0,1-.06-.26s0,0-.05,0a.64.64,0,0,0,0,.45.67.67,0,0,0,.07.11h0a.49.49,0,0,0,.15.24c.16.12.27,0,.36-.17a.19.19,0,0,1,0-.08c0-3.57,0-7.14,0-10.71,0-1.83.06-3.65.06-5.47,0-1.41-.05-2.85.07-4.25,0-.1,0-.23-.06-.33s-.11-.19-.21-.2a.29.29,0,0,0-.27.13,1.74,1.74,0,0,0-.1.19s-.05,0-.06,0a.63.63,0,0,0,.07.42s0,0,0,0a1.12,1.12,0,0,0,.06.44,2,2,0,0,0,0,.25,1.29,1.29,0,0,1,0-.19s-.08,0-.08,0a1.68,1.68,0,0,0,.07.5s0,0,0,.05a5,5,0,0,0,.09.59v.09a.51.51,0,0,0,0-.09c0-.05-.08,0-.08,0a2,2,0,0,0,.07.53s-.05,0-.06,0a2,2,0,0,0,.07.83v.2c0-.06,0-.13,0-.18s0,0,0,0a1.54,1.54,0,0,0,.06.89v.05s0,0,0,0-.09,0-.09,0a2.78,2.78,0,0,0,.09.72v.08a0,0,0,0,0-.07,0,2,2,0,0,0,.05.58s0,0,0,0a2.15,2.15,0,0,0,0,.67c0,.06,0,.12.05.19h0c0,.08,0,.17,0,.25s0-.11,0-.17a0,0,0,0,0-.09,0,3.19,3.19,0,0,0,.11.91s-.07,0-.07,0a1.89,1.89,0,0,0,.06.67v.06s0,0,0,0,0,0,0,0a1,1,0,0,0,0,.77v.17a.77.77,0,0,1,0-.15s-.06,0-.07,0a1.55,1.55,0,0,0,.07.73,0,0,0,0,0,0,0,1.07,1.07,0,0,0,0,.89h0V23a.64.64,0,0,0,0-.07s-.06,0-.07,0a1.16,1.16,0,0,0,0,.73s0,0,0,0a1.54,1.54,0,0,0,0,.63v0a1.6,1.6,0,0,0,0,.68l0,0a1.33,1.33,0,0,0,0,.83V26s0-.09,0-.13-.08,0-.08,0a1.67,1.67,0,0,0,.09.7s0,0,0,.05h0S25.59,26.64,25.59,26.67Z" transform="translate(-15.02 -1.36)"/><path d="M25.28,8.87a.72.72,0,0,0-.39-.19h.51l0,0c.14.11.37.45.25.63,0,0-.05.05-.08,0s-.1-.14-.14-.24A.83.83,0,0,0,25.28,8.87Z" transform="translate(-15.02 -1.36)"/><path d="M24.73,8.65c-.05,0-.07-.09,0-.1a.76.76,0,0,1,.68.14h-.51Z" transform="translate(-15.02 -1.36)"/><path d="M24.38,8.82A1.23,1.23,0,0,0,24,8.66h.51c.17.13.36.32.34.54,0,0,0,.08-.08,0S24.55,8.94,24.38,8.82Z" transform="translate(-15.02 -1.36)"/><path d="M24,32.62a.15.15,0,0,0,0-.08v-.21a1,1,0,0,0,.11.21c.06.07.19.16.18.26a.05.05,0,0,1,0,.05c-.12,0-.22-.1-.28-.21Z" transform="translate(-15.02 -1.36)"/><path class="cls-2" d="M24.05,13.67Z" transform="translate(-15.02 -1.36)"/><path d="M24,20.27a2.32,2.32,0,0,0,.08.58,4,4,0,0,1,.19.55s0,.05-.06,0a1,1,0,0,1-.23-.37,1.75,1.75,0,0,0,.08.51,2.4,2.4,0,0,1,.19.63s0,0-.05,0a1,1,0,0,1-.26-.39c0-1.6,0-3.19.05-4.78,0-1.12.06-2.25.05-3.38h0c0-.53,0-1.05-.07-1.57a.89.89,0,0,0,.08-.17h0c0,.15,0,.3.07.45s.12.25.17.38a0,0,0,0,1,0,0,.89.89,0,0,1-.23-.27,2.45,2.45,0,0,0,.08.29,1.44,1.44,0,0,1,.17.45s0,0,0,0a.49.49,0,0,1-.19-.21,5,5,0,0,0,.24.92,0,0,0,0,1-.05,0,1.19,1.19,0,0,1-.18-.29c0,.18,0,.35.07.52a3.68,3.68,0,0,1,.16.54,0,0,0,0,1-.07,0,.39.39,0,0,1-.14-.17c0,.11,0,.21.07.32a1.67,1.67,0,0,1,.14.53,0,0,0,0,1-.07,0,.56.56,0,0,1-.16-.23,1.62,1.62,0,0,0,0,.31,4.61,4.61,0,0,0,.15.53s0,.06,0,0a.72.72,0,0,1-.14-.2c0,.11,0,.23,0,.34s.13.41.16.62c0,0,0,.06-.06,0a.7.7,0,0,1-.15-.24,10.64,10.64,0,0,0,.24,1.09s-.05.08-.08,0A1.5,1.5,0,0,1,24,17.5a5,5,0,0,0,.06.54c0,.22.12.42.17.65a.05.05,0,0,1-.09,0,1.71,1.71,0,0,1-.14-.27,5.09,5.09,0,0,0,0,.55c.05.24.15.46.2.69,0,.05,0,.09-.07.05a.78.78,0,0,1-.16-.24,3.06,3.06,0,0,0,.05.32c0,.21.14.41.16.62a0,0,0,0,1-.06,0A.56.56,0,0,1,24,20.27Z" transform="translate(-15.02 -1.36)"/><path d="M24,32v-.45a1.34,1.34,0,0,0,.09.26c.05.14.18.28.19.44a0,0,0,0,1-.05,0A.5.5,0,0,1,24,32Z" transform="translate(-15.02 -1.36)"/><path d="M24,31.24v-.72s0,0,0,0a2,2,0,0,0,.17.68,1,1,0,0,1,.11.33,0,0,0,0,1-.05,0A.62.62,0,0,1,24,31.24Z" transform="translate(-15.02 -1.36)"/><path d="M24.23,30.72c-.1,0-.18-.12-.24-.22s0-.3,0-.45a2.07,2.07,0,0,0,.15.34c.05.09.14.18.14.29A0,0,0,0,1,24.23,30.72Z" transform="translate(-15.02 -1.36)"/><path d="M24,31.15a1.06,1.06,0,0,1,0-.61s0,0,0,0v.72Z" transform="translate(-15.02 -1.36)"/><path d="M24,13a1.1,1.1,0,0,1-.05-.71.44.44,0,0,1,.05-.32s.05,0,.06,0a.89.89,0,0,1-.08.17c0,.52.06,1,.07,1.57A1.28,1.28,0,0,1,24,13Z" transform="translate(-15.02 -1.36)"/><path d="M24.2,30.09a.84.84,0,0,1-.22-.27v-.5a1.4,1.4,0,0,0,.09.29c.05.15.14.28.19.43S24.23,30.11,24.2,30.09Z" transform="translate(-15.02 -1.36)"/><path d="M24,29.13c0-.24,0-.47,0-.7a1.94,1.94,0,0,0,.1.49,2.4,2.4,0,0,1,.12.38s0,.06-.06,0A.75.75,0,0,1,24,29.13Z" transform="translate(-15.02 -1.36)"/><path class="cls-2" d="M24,26.52s0,0,0,0h0Z" transform="translate(-15.02 -1.36)"/><path d="M24,28.18v-.69h0a2.75,2.75,0,0,0,.12.57,1.39,1.39,0,0,1,.17.44s0,0,0,0A.55.55,0,0,1,24,28.18Z" transform="translate(-15.02 -1.36)"/><path d="M24,28.18a1.45,1.45,0,0,1,0-.68,0,0,0,0,1,0,0Z" transform="translate(-15.02 -1.36)"/><path d="M24,22.21v-.37a5.47,5.47,0,0,0,.1.8,3.27,3.27,0,0,1,.14.62s-.05,0-.06,0a1.77,1.77,0,0,1-.19-.39C23.94,22.66,24,22.43,24,22.21Z" transform="translate(-15.02 -1.36)"/><path d="M24,27.39a1.45,1.45,0,0,1,0-.82s0,0,0,0C24,26.83,24,27.11,24,27.39Z" transform="translate(-15.02 -1.36)"/><path d="M23.94,24v-1.1a0,0,0,0,1,0,0,2.77,2.77,0,0,0,.07.7,4.11,4.11,0,0,1,.17.6s0,.05-.05,0A.73.73,0,0,1,23.94,24Z" transform="translate(-15.02 -1.36)"/><path class="cls-2" d="M24.09,20.85a2.32,2.32,0,0,1-.08-.58.56.56,0,0,0,.16.21,0,0,0,0,0,.06,0c0-.21-.12-.41-.16-.62a3.06,3.06,0,0,1-.05-.32.78.78,0,0,0,.16.24s.09,0,.07-.05c-.05-.23-.15-.45-.2-.69a5.09,5.09,0,0,1,0-.55,1.71,1.71,0,0,0,.14.27.05.05,0,0,0,.09,0c0-.23-.13-.43-.17-.65A5,5,0,0,1,24,17.5a1.5,1.5,0,0,0,.19.38s.09,0,.08,0A10.64,10.64,0,0,1,24,16.75a.7.7,0,0,0,.15.24s.07,0,.06,0c0-.21-.13-.41-.16-.62s0-.23,0-.34a.72.72,0,0,0,.14.2s.06,0,0,0a4.61,4.61,0,0,1-.15-.53,1.62,1.62,0,0,1,0-.31.56.56,0,0,0,.16.23,0,0,0,0,0,.07,0,1.67,1.67,0,0,0-.14-.53c0-.11-.05-.21-.07-.32a.39.39,0,0,0,.14.17,0,0,0,0,0,.07,0,3.68,3.68,0,0,0-.16-.54c0-.17-.05-.34-.07-.52a1.19,1.19,0,0,0,.18.29,0,0,0,0,0,.05,0,5,5,0,0,1-.24-.92.49.49,0,0,0,.19.21s0,0,0,0a1.44,1.44,0,0,0-.17-.45,2.45,2.45,0,0,1-.08-.29.89.89,0,0,0,.23.27,0,0,0,0,0,0,0c-.05-.13-.12-.25-.17-.38s0-.3-.07-.45h0l0-.06a.3.3,0,0,1,.27-.13c.11,0,.17.11.21.2a1.91,1.91,0,0,1,.06.33c-.11,1.4-.06,2.84-.06,4.25,0,1.82,0,3.64-.07,5.47,0,3.57,0,7.14,0,10.71a.11.11,0,0,0,0,.08c-.1.13-.21.29-.36.17a.51.51,0,0,1-.18-.31c.06.11.16.24.28.21a.05.05,0,0,0,0-.05c0-.1-.12-.19-.18-.26a1,1,0,0,1-.11-.21V32a.5.5,0,0,0,.23.28,0,0,0,0,0,.05,0c0-.16-.14-.3-.19-.44a1.34,1.34,0,0,1-.09-.26,2.44,2.44,0,0,0,0-.27.62.62,0,0,0,.24.34,0,0,0,0,0,.05,0,1,1,0,0,0-.11-.33,2,2,0,0,1-.17-.68s0,0,0,0v0c.06.1.14.21.24.22a0,0,0,0,0,0,0c0-.11-.09-.2-.14-.29a2.07,2.07,0,0,1-.15-.34v-.23a.84.84,0,0,0,.22.27s.07,0,.06-.05-.14-.28-.19-.43a1.4,1.4,0,0,1-.09-.29,1.28,1.28,0,0,0,0-.19.75.75,0,0,0,.15.2s.08,0,.06,0a2.4,2.4,0,0,0-.12-.38,1.94,1.94,0,0,1-.1-.49v-.25a.55.55,0,0,0,.26.36s0,0,0,0a1.39,1.39,0,0,0-.17-.44A2.75,2.75,0,0,1,24,27.5h0v-.1a.61.61,0,0,0,.22.33s.06,0,.06,0a1.38,1.38,0,0,0-.13-.39,2.25,2.25,0,0,1-.14-.73.79.79,0,0,0,.18.22s0,0,0,0-.12-.32-.17-.49a1.35,1.35,0,0,1-.07-.49,1,1,0,0,1,0-.17.62.62,0,0,0,.24.34,0,0,0,0,0,.07-.05,5.44,5.44,0,0,0-.19-.52,4.15,4.15,0,0,1-.11-.48.65.65,0,0,0,.17.25,0,0,0,0,0,.05,0,3.51,3.51,0,0,0-.15-.53,3.12,3.12,0,0,1-.08-.52V24a.73.73,0,0,0,.2.26s.05,0,.05,0a4.11,4.11,0,0,0-.17-.6,2.77,2.77,0,0,1-.07-.7,0,0,0,0,0,0,0h0a1.77,1.77,0,0,0,.19.39s.07,0,.06,0a3.27,3.27,0,0,0-.14-.62,5.47,5.47,0,0,1-.1-.8h0a1,1,0,0,0,.26.39s.05,0,.05,0a2.4,2.4,0,0,0-.19-.63,1.75,1.75,0,0,1-.08-.51,1,1,0,0,0,.23.37s.06,0,.06,0A4,4,0,0,0,24.09,20.85Z" transform="translate(-15.02 -1.36)"/><path d="M24,26.52v-.73a1.35,1.35,0,0,0,.07.49c.05.17.13.32.17.49s0,0,0,0a.79.79,0,0,1-.18-.22,2.25,2.25,0,0,0,.14.73,1.38,1.38,0,0,1,.13.39s0,0-.06,0a.61.61,0,0,1-.22-.33c0-.28,0-.56,0-.84h0S24,26.54,24,26.52Z" transform="translate(-15.02 -1.36)"/><path d="M24,31.83a1.46,1.46,0,0,1-.07-.55,0,0,0,0,1,.07,0,.93.93,0,0,0,.05.24V32A.69.69,0,0,1,24,31.83Z" transform="translate(-15.02 -1.36)"/><path d="M23.94,25.62V24.09a3.12,3.12,0,0,0,.08.52,3.51,3.51,0,0,1,.15.53,0,0,0,0,1-.05,0,.65.65,0,0,1-.17-.25,4.15,4.15,0,0,0,.11.48,5.44,5.44,0,0,1,.19.52,0,0,0,0,1-.07.05A.62.62,0,0,1,23.94,25.62Z" transform="translate(-15.02 -1.36)"/><path d="M23.94,22.88a1.52,1.52,0,0,1,0-1.07h0a2.09,2.09,0,0,1-.07-.95s0,0,0,0a1.44,1.44,0,0,1,0-.75,3.23,3.23,0,0,1,0-.87v0a1.84,1.84,0,0,1,0-.88s0,0,0,0a1.7,1.7,0,0,1,0-.84s0,0,0,0a1.72,1.72,0,0,1,0-.9,1.71,1.71,0,0,1,0-.75,1.17,1.17,0,0,1,0-.59h0L24,15a2.81,2.81,0,0,1,0-.65,0,0,0,0,1,0,0,1.67,1.67,0,0,1,0-.64s0,0,.05,0c0,1.13-.05,2.26-.05,3.38,0,1.59,0,3.18-.05,4.78h0v.39C24,22.43,23.94,22.66,23.94,22.88Z" transform="translate(-15.02 -1.36)"/><path d="M23.94,24a1.56,1.56,0,0,1-.05-1.08,0,0,0,0,1,.05,0Z" transform="translate(-15.02 -1.36)"/><path d="M24,26.52a1.17,1.17,0,0,1,0-.88s0,0,0,0l0,.14Z" transform="translate(-15.02 -1.36)"/><path d="M23.85,29.06a0,0,0,0,1,.09,0,2.34,2.34,0,0,0,0,.26v.5A1.46,1.46,0,0,1,23.85,29.06Z" transform="translate(-15.02 -1.36)"/><path d="M23.91,24.83a1.46,1.46,0,0,1,0-.85,0,0,0,0,1,.05,0v1.64a1.59,1.59,0,0,1-.06-.77S23.89,24.82,23.91,24.83Z" transform="translate(-15.02 -1.36)"/><path d="M24,32.59a1,1,0,0,1-.12-.51s.08-.06.09,0a.77.77,0,0,0,.07.26v.21a.15.15,0,0,1,0,.08v0Z" transform="translate(-15.02 -1.36)"/><path d="M23.93,30.37a1.14,1.14,0,0,1-.08-.55,0,0,0,1,1,.09,0,1.57,1.57,0,0,0,0,.23c0,.15,0,.3,0,.45A1.39,1.39,0,0,1,23.93,30.37Z" transform="translate(-15.02 -1.36)"/><path d="M23.8,8.59c-.05,0-.06-.11,0-.12a.88.88,0,0,1,.7.17l0,0H24Z" transform="translate(-15.02 -1.36)"/><path d="M24,29.13a1.32,1.32,0,0,1-.07-.83s.06,0,.06,0v.12C24,28.66,24,28.89,24,29.13Z" transform="translate(-15.02 -1.36)"/><path d="M23.89,22.91A1.56,1.56,0,0,0,23.94,24v0a0,0,0,0,0-.05,0,1.46,1.46,0,0,0,0,.85s0,0,0,0a1.59,1.59,0,0,0,.06.77,1,1,0,0,0,0,.17l0-.14s0,0,0,0a1.17,1.17,0,0,0,0,.88v0s0,0,0,0a1.45,1.45,0,0,0,0,.82v.1a0,0,0,0,0,0,0,1.45,1.45,0,0,0,0,.68v.13s-.05,0-.06,0a1.32,1.32,0,0,0,.07.83,1.28,1.28,0,0,1,0,.19,2.34,2.34,0,0,1,0-.26,0,0,0,0,0-.09,0,1.46,1.46,0,0,0,.13.76v.23a1.57,1.57,0,0,1,0-.23,0,0,0,1,0-.09,0,1.14,1.14,0,0,0,.08.55,1.39,1.39,0,0,0,.06.13v0s0,0,0,0a1.06,1.06,0,0,0,0,.61l0,.09a2.44,2.44,0,0,1,0,.27.93.93,0,0,1-.05-.24,0,0,0,0,0-.07,0,1.46,1.46,0,0,0,.07.55A.69.69,0,0,0,24,32v.37a.77.77,0,0,1-.07-.26s-.08,0-.09,0a1,1,0,0,0,.12.51l0,0a.51.51,0,0,0,.18.31c.15.12.26,0,.36-.17a.11.11,0,0,1,0-.08c0-3.57,0-7.14,0-10.71,0-1.83.06-3.65.07-5.47,0-1.41,0-2.85.06-4.25a1.91,1.91,0,0,0-.06-.33c0-.09-.1-.19-.21-.2a.3.3,0,0,0-.27.13l0,.06s0,0-.06,0a.44.44,0,0,0-.05.32A1.1,1.1,0,0,0,24,13h0a1.28,1.28,0,0,0,.05.7h0s0,0-.05,0a1.67,1.67,0,0,0,0,.64,0,0,0,0,0,0,0A2.81,2.81,0,0,0,24,15l0,.14h0a1.17,1.17,0,0,0,0,.59,1.71,1.71,0,0,0,0,.75,1.72,1.72,0,0,0,0,.9s0,0,0,0a1.7,1.7,0,0,0,0,.84s0,0,0,0a1.84,1.84,0,0,0,0,.88v0a3.23,3.23,0,0,0,0,.87,1.44,1.44,0,0,0,0,.75s0,0,0,0a2.09,2.09,0,0,0,.07.95h0a1.52,1.52,0,0,0,0,1.07h0A0,0,0,0,0,23.89,22.91Zm-.15,9.62c0-3.44,0-6.88,0-10.32,0-1.72,0-3.44.06-5.17s-.07-3.34.07-5c0-.23.27-.48.47-.47a.43.43,0,0,1,.35.25.54.54,0,0,1,.05.43c.12,1.46,0,3,0,4.43,0,1.82,0,3.64-.05,5.46,0,3.51.07,7,.07,10.53a.14.14,0,0,1-.06.12.56.56,0,0,1-.23.34.36.36,0,0,1-.44,0,.83.83,0,0,1-.29-.57A.12.12,0,0,1,23.74,32.53Z" transform="translate(-15.02 -1.36)"/><path d="M23.58,8.9c-.14-.1-.29-.17-.44-.26h.45c.05,0,.11.07.15.11s.35.28.36.5A.06.06,0,0,1,24,9.3C23.84,9.23,23.73,9,23.58,8.9Z" transform="translate(-15.02 -1.36)"/><path d="M23.09,8.61a.06.06,0,0,1,0-.11,1,1,0,0,1,.47.14h-.45Z" transform="translate(-15.02 -1.36)"/><path d="M23,42.43c0-.11.16-.11.14,0s0,.1-.08.09S23,42.46,23,42.43Z" transform="translate(-15.02 -1.36)"/><path d="M22.55,8.64H23c.13.12.29.33.24.52s-.08.09-.12.05-.14-.3-.28-.41A.92.92,0,0,0,22.55,8.64Z" transform="translate(-15.02 -1.36)"/><path d="M22.66,42.41c-.07,0-.07-.13-.07-.2s.16-.09.16,0a.33.33,0,0,1,0,.14A.06.06,0,0,1,22.66,42.41Z" transform="translate(-15.02 -1.36)"/><path d="M22.38,8.59c-.05,0-.06-.11,0-.12a.69.69,0,0,1,.63.17h-.46Z" transform="translate(-15.02 -1.36)"/><path d="M22.36,3.73a.07.07,0,0,1,.12,0,.58.58,0,0,1,.13.26.09.09,0,0,1-.16.06A.48.48,0,0,1,22.36,3.73Z" transform="translate(-15.02 -1.36)"/><path d="M22.35,14.93c0-.42,0-.84,0-1.25h0l.09.38a4.13,4.13,0,0,1,.17.45s0,.08-.07.05a.61.61,0,0,1-.18-.26,2.09,2.09,0,0,0,.11.43,1.11,1.11,0,0,1,.16.45,0,0,0,0,1-.06,0A.43.43,0,0,1,22.35,14.93Z" transform="translate(-15.02 -1.36)"/><path d="M22.34,15.18a1.79,1.79,0,0,0,.1.35,1.31,1.31,0,0,1,.12.33s0,.07-.08.05a.46.46,0,0,1-.15-.16C22.34,15.56,22.34,15.37,22.34,15.18Z" transform="translate(-15.02 -1.36)"/><path d="M22.35,13a1.41,1.41,0,0,0,.11.45.76.76,0,0,1,.11.32,0,0,0,0,1,0,0,.35.35,0,0,1-.18-.16h0c0-.53,0-1.06-.07-1.58l0-.06c.05.1.07.22.12.33s.1.21.14.33a0,0,0,0,1-.06.05.59.59,0,0,1-.18-.2c0,.09,0,.18.09.27s.12.24.15.37a0,0,0,0,1-.06,0A.41.41,0,0,1,22.35,13Z" transform="translate(-15.02 -1.36)"/><path d="M22.33,15.85a1.61,1.61,0,0,0,.07.37c.06.19.19.35.24.54a.06.06,0,0,1-.09.07.68.68,0,0,1-.23-.29h0Z" transform="translate(-15.02 -1.36)"/><path d="M22.33,15.85s0-.08,0-.12v.12Z" transform="translate(-15.02 -1.36)"/><path d="M22.32,16.54a2.1,2.1,0,0,0,.16.7,1.64,1.64,0,0,1,.13.43s0,.07-.06,0a.72.72,0,0,1-.22-.29,1.72,1.72,0,0,0,.1.55,3.81,3.81,0,0,1,.23.45s0,0-.05,0a.51.51,0,0,1-.29-.32,2.55,2.55,0,0,0,.12.6,1.8,1.8,0,0,1,.15.5,0,0,0,0,1-.07,0,.75.75,0,0,1-.23-.32c0-.52,0-1,0-1.57h0l0,0c0-.1,0-.2,0-.31s0-.34,0-.51Z" transform="translate(-15.02 -1.36)"/><path d="M22.5,32.91a.72.72,0,0,1-.2-.3.14.14,0,0,0,0-.07c0-.13,0-.25,0-.39l.12.31a1,1,0,0,1,.14.41A0,0,0,0,1,22.5,32.91Z" transform="translate(-15.02 -1.36)"/><path class="cls-2" d="M22.3,17.36l0,0h0Z" transform="translate(-15.02 -1.36)"/><path d="M22.31,14.13a3.25,3.25,0,0,1-.07-.59.05.05,0,0,1,.05,0h0a1.06,1.06,0,0,1,0-.53,0,0,0,0,1,0,0,1.21,1.21,0,0,1-.05-.49s0,0,0,0a.59.59,0,0,1,0-.39s0,0,.05,0v0l0,.06c.05.52.07,1.05.07,1.58s0,.83,0,1.25c0,0,0-.09,0-.13a1.84,1.84,0,0,1-.06-.62A0,0,0,0,1,22.31,14.13Z" transform="translate(-15.02 -1.36)"/><path d="M22.48,32.21a.81.81,0,0,1-.17-.23c0-.47,0-.94,0-1.41a2.13,2.13,0,0,0,.13.45,1.86,1.86,0,0,1,.16.45,0,0,0,0,1-.06,0,.45.45,0,0,1-.21-.18,2,2,0,0,0,.13.41,1.88,1.88,0,0,1,.14.42A.07.07,0,0,1,22.48,32.21Z" transform="translate(-15.02 -1.36)"/><path d="M22.27,21.51V20.8a0,0,0,0,1,.05.05,2.17,2.17,0,0,0,.17.71c.05.1.1.17.08.27s0,0-.05,0S22.31,21.66,22.27,21.51Z" transform="translate(-15.02 -1.36)"/><path d="M22.55,20.13a.5.5,0,0,1-.26-.37V19s0,0,0,0a5.82,5.82,0,0,0,.14.6,1.63,1.63,0,0,1,.16.47A0,0,0,0,1,22.55,20.13Z" transform="translate(-15.02 -1.36)"/><path d="M22.42,30.24a1.58,1.58,0,0,1,.11.37s0,.07-.07.05a.83.83,0,0,1-.16-.21c0-.24,0-.47,0-.69A2.62,2.62,0,0,0,22.42,30.24Z" transform="translate(-15.02 -1.36)"/><path d="M22.29,19a1.83,1.83,0,0,1-.07-.92.06.06,0,0,1,.06,0,1.63,1.63,0,0,1,0-.58,0,0,0,0,1,0,0C22.3,17.91,22.3,18.43,22.29,19Z" transform="translate(-15.02 -1.36)"/><path d="M22.54,29.9a.73.73,0,0,1-.25-.3c0-.34,0-.67,0-1a3,3,0,0,0,.15.74,3.2,3.2,0,0,1,.18.52S22.57,29.93,22.54,29.9Z" transform="translate(-15.02 -1.36)"/><path d="M22.52,21a.61.61,0,0,1-.25-.29c0-.28,0-.56,0-.84h0c.07.17,0,.39.09.57a3.13,3.13,0,0,1,.19.51S22.55,21,22.52,21Z" transform="translate(-15.02 -1.36)"/><path d="M22.3,30.57l0-.18,0,.06Z" transform="translate(-15.02 -1.36)"/><path d="M22.29,19.76a2.5,2.5,0,0,1-.08-.74,0,0,0,0,1,.08,0Z" transform="translate(-15.02 -1.36)"/><path d="M22.49,28.83a.55.55,0,0,1-.21-.33c0-.25,0-.5,0-.75.05.18.09.36.15.53s.17.34.14.52S22.52,28.85,22.49,28.83Z" transform="translate(-15.02 -1.36)"/><path class="cls-2" d="M22.53,30.61a1.58,1.58,0,0,0-.11-.37,2.62,2.62,0,0,1-.13-.48h0V29.6a.73.73,0,0,0,.25.3s.08,0,.07,0a3.2,3.2,0,0,0-.18-.52,3,3,0,0,1-.15-.74V28.5a.55.55,0,0,0,.21.33s.06,0,.07,0-.09-.35-.14-.52-.1-.35-.15-.53V27.5a.78.78,0,0,0,.17.28,0,0,0,0,0,.08,0,3.23,3.23,0,0,0-.11-.54c-.05-.23-.05-.47-.09-.7a.53.53,0,0,0,.13.16,0,0,0,0,0,.07,0,2.55,2.55,0,0,0-.15-.65,4.34,4.34,0,0,1-.09-.63c0,.15.13.3.26.33s.05,0,.05,0-.13-.31-.18-.46a2.76,2.76,0,0,1-.11-.7s0,0-.05,0v-.08a.83.83,0,0,0,.16.2.05.05,0,0,0,.08,0,3.51,3.51,0,0,0-.18-.69c0-.13,0-.27-.06-.41v0a.73.73,0,0,0,.22.3s.07,0,.07,0a2.67,2.67,0,0,0-.16-.6,3,3,0,0,1-.06-.42.57.57,0,0,0,.22.26s.07,0,.07-.05a1.86,1.86,0,0,0-.17-.41,3.45,3.45,0,0,1-.14-.78,0,0,0,0,0,0,0v-.09c0,.15.12.32.25.35s.05,0,.05,0,0-.17-.08-.27a2.17,2.17,0,0,1-.17-.71,0,0,0,0,0-.05-.05v-.07a.61.61,0,0,0,.25.29s.06,0,.05,0a3.13,3.13,0,0,0-.19-.51c-.06-.18,0-.4-.09-.57h0s0-.09,0-.13a.5.5,0,0,0,.26.37,0,0,0,0,0,.06-.05,1.63,1.63,0,0,0-.16-.47,5.82,5.82,0,0,1-.14-.6s0,0,0,0v0a.75.75,0,0,0,.23.32,0,0,0,0,0,.07,0,1.8,1.8,0,0,0-.15-.5,2.55,2.55,0,0,1-.12-.6.51.51,0,0,0,.29.32s.06,0,.05,0a3.81,3.81,0,0,0-.23-.45,1.72,1.72,0,0,1-.1-.55.72.72,0,0,0,.22.29s.06,0,.06,0a1.64,1.64,0,0,0-.13-.43,2.1,2.1,0,0,1-.16-.7.68.68,0,0,0,.23.29.06.06,0,0,0,.09-.07c-.05-.19-.18-.35-.24-.54a1.61,1.61,0,0,1-.07-.37v-.1a.46.46,0,0,0,.15.16s.09,0,.08-.05a1.31,1.31,0,0,0-.12-.33,1.79,1.79,0,0,1-.1-.35,2.09,2.09,0,0,0,0-.25.43.43,0,0,0,.23.29,0,0,0,0,0,.06,0,1.11,1.11,0,0,0-.16-.45,2.09,2.09,0,0,1-.11-.43.61.61,0,0,0,.18.26s.08,0,.07-.05a4.13,4.13,0,0,0-.17-.45l-.09-.38a.35.35,0,0,0,.18.16,0,0,0,0,0,0,0,.76.76,0,0,0-.11-.32,1.41,1.41,0,0,1-.11-.45.41.41,0,0,0,.18.19,0,0,0,0,0,.06,0c0-.13-.11-.25-.15-.37s-.06-.18-.09-.27a.59.59,0,0,0,.18.2,0,0,0,0,0,.06-.05c0-.12-.1-.22-.14-.33s-.07-.23-.12-.33.05-.12.08-.17a.31.31,0,0,1,.27-.13.27.27,0,0,1,.21.2c.05.1,0,.23.07.33-.12,1.4-.07,2.84-.07,4.25,0,1.82-.05,3.64-.07,5.47,0,3.57,0,7.14,0,10.71a.19.19,0,0,0,0,.08c-.1.13-.2.29-.36.17a.54.54,0,0,1-.18-.33h0a.72.72,0,0,0,.2.3,0,0,0,0,0,.07,0,1,1,0,0,0-.14-.41l-.12-.31V32a.81.81,0,0,0,.17.23.07.07,0,0,0,.11-.05,1.88,1.88,0,0,0-.14-.42,2,2,0,0,1-.13-.41.45.45,0,0,0,.21.18,0,0,0,0,0,.06,0,1.86,1.86,0,0,0-.16-.45,2.13,2.13,0,0,1-.13-.45v-.12a.83.83,0,0,0,.16.21S22.53,30.65,22.53,30.61Z" transform="translate(-15.02 -1.36)"/><path d="M22.27,20.73c-.14-.28-.19-.67,0-.84,0,0,0,0,0,0C22.28,20.17,22.28,20.45,22.27,20.73Z" transform="translate(-15.02 -1.36)"/><path d="M22.21,16.22a1,1,0,0,1,0-.67,3,3,0,0,1-.05-.71c0-.05.09-.06.1,0s0,.23,0,.35,0,.38,0,.57v0s0,.08,0,.12v.69c0,.17,0,.34,0,.51s0,.21,0,.31a2.08,2.08,0,0,1-.08-.95s0,0,0,0S22.23,16.27,22.21,16.22Z" transform="translate(-15.02 -1.36)"/><path d="M22.27,27.5c0-1,0-2,0-3.07,0,0,.05,0,.05,0a2.76,2.76,0,0,0,.11.7c.05.15.18.3.18.46s0,.05-.05,0-.21-.18-.26-.33a4.34,4.34,0,0,0,.09.63,2.55,2.55,0,0,1,.15.65,0,0,0,0,1-.07,0,.53.53,0,0,1-.13-.16c0,.23,0,.47.09.7a3.23,3.23,0,0,1,.11.54,0,0,0,0,1-.08,0A.78.78,0,0,1,22.27,27.5Z" transform="translate(-15.02 -1.36)"/><path d="M22.27,21.6a0,0,0,0,1,0,0,3.45,3.45,0,0,0,.14.78,1.86,1.86,0,0,1,.17.41s0,.07-.07.05a.57.57,0,0,1-.22-.26,3,3,0,0,0,.06.42,2.67,2.67,0,0,1,.16.6s0,.05-.07,0a.73.73,0,0,1-.22-.3c0-.39,0-.77,0-1.16C22.26,22,22.26,21.8,22.27,21.6Z" transform="translate(-15.02 -1.36)"/><path d="M22.25,21.44a1.52,1.52,0,0,1,0-.6.05.05,0,0,1,.05,0v.71A.25.25,0,0,1,22.25,21.44Z" transform="translate(-15.02 -1.36)"/><path d="M22.29,29.75l0-.23v0a.69.69,0,0,1,0,.1Z" transform="translate(-15.02 -1.36)"/><path d="M22.25,24.35v-.94c0,.14,0,.28.06.41a3.51,3.51,0,0,1,.18.69.05.05,0,0,1-.08,0A.83.83,0,0,1,22.25,24.35Z" transform="translate(-15.02 -1.36)"/><path d="M22.25,29.5a2,2,0,0,1-.05-1s.07,0,.07,0,0,.07,0,.11c0,.34,0,.67,0,1a.69.69,0,0,0,0-.1Z" transform="translate(-15.02 -1.36)"/><path d="M22.25,23.36h0v0Z" transform="translate(-15.02 -1.36)"/><path d="M22.27,27.5a1.86,1.86,0,0,1,0-1.14s0,0,0,0-.05-.24-.07-.34a1.91,1.91,0,0,1,0-.79s0,0,0,0v0a1.6,1.6,0,0,1,0-.69.07.07,0,0,1,.05,0C22.25,25.46,22.26,26.48,22.27,27.5Z" transform="translate(-15.02 -1.36)"/><path d="M22.2,23.18a1.9,1.9,0,0,1,0-.86h0a1.77,1.77,0,0,1,0-.7l0,0c0,.2,0,.41,0,.61,0,.39,0,.77,0,1.16h0v1a1.68,1.68,0,0,1-.09-1.14S22.18,23.18,22.2,23.18Z" transform="translate(-15.02 -1.36)"/><path d="M22.22,31.1a1.76,1.76,0,0,1,0-.78.05.05,0,0,1,.05,0,1.82,1.82,0,0,1-.06-.76s.06-.06.08,0h0v0l0,.23h0c0,.22,0,.45,0,.69l0-.06,0,.18c0,.47,0,.94,0,1.41a2.2,2.2,0,0,1-.15-.82A.06.06,0,0,1,22.22,31.1Z" transform="translate(-15.02 -1.36)"/><path d="M22.16,32a.05.05,0,0,1,.1,0,1.21,1.21,0,0,1,0,.14c0,.14,0,.26,0,.39a.14.14,0,0,1,0,.07A5.22,5.22,0,0,1,22.16,32Z" transform="translate(-15.02 -1.36)"/><path d="M22.24,28.33a2.93,2.93,0,0,1-.1-.78c0-.05.07-.05.08,0a1.17,1.17,0,0,1,.05.2c0,.25,0,.5,0,.75C22.27,28.44,22.25,28.38,22.24,28.33Z" transform="translate(-15.02 -1.36)"/><path d="M22.27,42.39c-.13,0-.16-.19-.16-.31a.09.09,0,0,1,.08-.08.1.1,0,0,1,.07.09c0,.09.06.14.08.21A.07.07,0,0,1,22.27,42.39Z" transform="translate(-15.02 -1.36)"/><path d="M22,3.71c0-.11.17-.13.17,0a1.23,1.23,0,0,1,0,.2.07.07,0,0,1-.13,0A1.37,1.37,0,0,1,22,3.71Z" transform="translate(-15.02 -1.36)"/><path d="M22.14,17c0-1.65-.08-3.34.06-5,0-.23.27-.48.47-.47a.42.42,0,0,1,.35.25.59.59,0,0,1,.06.43c.11,1.46,0,3,0,4.43,0,1.82,0,3.64,0,5.46,0,3.51.08,7,.07,10.53a.14.14,0,0,1-.06.12.55.55,0,0,1-.22.34.36.36,0,0,1-.44,0,.76.76,0,0,1-.29-.57.1.1,0,0,1,0-.09c0-3.44,0-6.88,0-10.32Zm0,13.28a1.76,1.76,0,0,0,0,.78.06.06,0,0,0-.06.06,2.2,2.2,0,0,0,.15.82v.17a1.21,1.21,0,0,0,0-.14.05.05,0,0,0-.1,0,5.22,5.22,0,0,0,.14.57h0a.54.54,0,0,0,.18.33c.16.12.26,0,.36-.17a.19.19,0,0,1,0-.08c0-3.57,0-7.14,0-10.71,0-1.83.06-3.65.07-5.47,0-1.41-.05-2.85.07-4.25-.05-.1,0-.23-.07-.33a.27.27,0,0,0-.21-.2.31.31,0,0,0-.27.13c0,.05-.05.11-.08.17v0s0,0-.05,0a.59.59,0,0,0,0,.39s0,0,0,0a1.21,1.21,0,0,0,.05.49,0,0,0,0,0,0,0,1.06,1.06,0,0,0,0,.53h0a.05.05,0,0,0-.05,0,3.25,3.25,0,0,0,.07.59,0,0,0,0,0-.06,0,1.84,1.84,0,0,0,.06.62s0,.08,0,.13a2.09,2.09,0,0,1,0,.25c0-.12,0-.24,0-.35s-.1,0-.1,0a3,3,0,0,0,.05.71,1,1,0,0,0,0,.67c0,.05,0,.1.05.15s0,0,0,0a2.08,2.08,0,0,0,.08.95v0a0,0,0,0,0,0,0,1.63,1.63,0,0,0,0,.58.06.06,0,0,0-.06,0,1.83,1.83,0,0,0,.07.92v0a0,0,0,0,0-.08,0,2.5,2.5,0,0,0,.08.74s0,.09,0,.13,0,0,0,0c-.17.17-.12.56,0,.84v.07a.05.05,0,0,0-.05,0,1.52,1.52,0,0,0,0,.6.25.25,0,0,0,0,.07v.09l0,0a1.77,1.77,0,0,0,0,.7h0a1.9,1.9,0,0,0,0,.86s0,0,0,0a1.68,1.68,0,0,0,.09,1.14v.08a.07.07,0,0,0-.05,0,1.6,1.6,0,0,0,0,.69v0s0,0,0,0a1.91,1.91,0,0,0,0,.79c0,.1,0,.22.07.34s0,0,0,0a1.86,1.86,0,0,0,0,1.14v.25a1.17,1.17,0,0,0-.05-.2c0-.05-.08-.05-.08,0a2.93,2.93,0,0,0,.1.78c0,.05,0,.11,0,.17v.09s0-.07,0-.11-.07-.05-.07,0a2,2,0,0,0,.05,1s-.07,0-.08,0a1.82,1.82,0,0,0,.06.76A.05.05,0,0,0,22.18,30.32Z" transform="translate(-15.02 -1.36)"/><path d="M21.82,8.41v0H22s0,0,0,0l-.05,0A.08.08,0,0,1,21.82,8.41Z" transform="translate(-15.02 -1.36)"/><path d="M21.82,42.4c-.06,0-.1-.07-.11-.13a1.64,1.64,0,0,1,0-.23c0-.09.16-.08.15,0a1.1,1.1,0,0,0,0,.18.14.14,0,0,0,0,.06h0a0,0,0,0,1,0,.07l-.05,0h0l0,0Z" transform="translate(-15.02 -1.36)"/><path d="M21.45,8.66a.08.08,0,0,1,0-.13.72.72,0,0,1,.69.11Z" transform="translate(-15.02 -1.36)"/><path d="M21.45,8.66l.7,0a.08.08,0,0,1,0,0c.13.11.44.43.28.61,0,0,0,0-.06,0s-.11-.12-.16-.21A.7.7,0,0,0,22,8.84a1.23,1.23,0,0,0-.56-.18Z" transform="translate(-15.02 -1.36)"/><path d="M21.64,4.07a.86.86,0,0,1,0-.55c0-.09.13-.07.15,0l0,.24c0,.07,0,.14,0,.21S21.71,4.16,21.64,4.07Z" transform="translate(-15.02 -1.36)"/><path d="M21.64,8c0-.09.09-.12.13,0l.18.43v0h-.14A2,2,0,0,1,21.64,8Z" transform="translate(-15.02 -1.36)"/><path d="M21.4,41.8a.07.07,0,1,1,.14,0c0,.16,0,.32,0,.47s0,.18-.07.24-.05,0-.07,0,0-.19,0-.3S21.38,42,21.4,41.8Z" transform="translate(-15.02 -1.36)"/><path d="M21.32,8.66c.18.1.52.31.5.55a.06.06,0,0,1-.07.06c-.11,0-.13-.08-.21-.16a1.31,1.31,0,0,0-.32-.25,2.08,2.08,0,0,0-.6-.18h.7Z" transform="translate(-15.02 -1.36)"/><path class="cls-2" d="M20.82,8a.36.36,0,0,1,0-.09l.4-.05a1.18,1.18,0,0,0,.09.37l-.35,0A2,2,0,0,1,20.82,8Z" transform="translate(-15.02 -1.36)"/><path d="M21,8.39h0Z" transform="translate(-15.02 -1.36)"/><path d="M20.62,17.05c0-1.64.12-3.32,0-5,0,0,0,0,0-.08h0c0,.13.07.25.11.37a3.84,3.84,0,0,1,.14.36,0,0,0,0,1-.06,0,.58.58,0,0,1-.17-.21,1.24,1.24,0,0,0,.14.38,2.17,2.17,0,0,1,.19.33s0,.07-.06.05a.64.64,0,0,1-.26-.32,2.5,2.5,0,0,0,.12.45,1.35,1.35,0,0,1,.16.42s0,0,0,0a.51.51,0,0,1-.2-.21,1.51,1.51,0,0,0,.07.37,3.56,3.56,0,0,1,.19.49,0,0,0,0,1-.06,0,.61.61,0,0,1-.19-.2,1.39,1.39,0,0,0,.09.35,1.69,1.69,0,0,1,.18.52s0,0,0,0a.55.55,0,0,1-.27-.35,4.59,4.59,0,0,0,.1.51,3.18,3.18,0,0,1,.18.6.05.05,0,0,1-.09,0,.76.76,0,0,1-.13-.17,1.23,1.23,0,0,0,0,.33c0,.21.14.4.18.61a.06.06,0,0,1-.1.06,1.16,1.16,0,0,1-.2-.33,5.36,5.36,0,0,0,.23,1c0,.05-.06.09-.09.05a1.82,1.82,0,0,1-.15-.23c0,.12,0,.24.06.35a3.71,3.71,0,0,0,.19.46s0,.09-.07.06a.77.77,0,0,1-.17-.19c0,.14,0,.28,0,.42a4.27,4.27,0,0,0,.18.54.06.06,0,0,1-.09.05,1,1,0,0,1-.18-.28C20.61,18.21,20.62,17.63,20.62,17.05Z" transform="translate(-15.02 -1.36)"/><path d="M20.84,32.6a.26.26,0,0,1-.21-.14c0-.17,0-.33,0-.49a1.21,1.21,0,0,0,.09.2c.06.12.2.25.17.4S20.86,32.6,20.84,32.6Z" transform="translate(-15.02 -1.36)"/><path class="cls-2" d="M20.63,7.87a1.31,1.31,0,0,0,.09.28h-.31c0-.09-.1-.17-.14-.25Z" transform="translate(-15.02 -1.36)"/><path d="M20.62,31.08c0-.21,0-.41,0-.61l.09.27a.71.71,0,0,1,.12.42s0,0-.06,0A.26.26,0,0,1,20.62,31.08Z" transform="translate(-15.02 -1.36)"/><path d="M20.62,31.17a2.13,2.13,0,0,0,.11.33c0,.13.15.25.16.39s0,0-.05,0a.46.46,0,0,1-.22-.25Z" transform="translate(-15.02 -1.36)"/><path d="M20.77,30.46a.41.41,0,0,1-.16-.24v-.59a1.91,1.91,0,0,0,.11.41.79.79,0,0,1,.11.39A0,0,0,0,1,20.77,30.46Z" transform="translate(-15.02 -1.36)"/><path d="M20.58,21.24c0-.31,0-.63,0-.95h0c0-.42,0-.83,0-1.24,0,.23.1.45.16.68a0,0,0,0,1-.05,0l-.07-.11a4.51,4.51,0,0,0,.08.53,2,2,0,0,1,.12.42,0,0,0,0,1-.06,0,.51.51,0,0,1-.14-.18c0,.12,0,.25,0,.37s.13.41.16.62c0,0,0,.06-.06,0A.72.72,0,0,1,20.58,21.24Z" transform="translate(-15.02 -1.36)"/><path d="M20.57,17.15a1.25,1.25,0,0,1,0-.69.05.05,0,0,1,.05,0,1,1,0,0,1,0-.8,2.46,2.46,0,0,1-.07-.88s0-.05.06-.05a1.57,1.57,0,0,1,0-.61h0a2,2,0,0,1,0-.65h0a1.32,1.32,0,0,1,0-.51.06.06,0,0,1,.06,0,1.15,1.15,0,0,1-.06-.37s0,0,.05,0a1.11,1.11,0,0,1-.05-.44s.06,0,.08,0,0,.05,0,.08c.13,1.63,0,3.31,0,5,0,.58,0,1.16,0,1.74l-.05-.09c0,.11,0,.23,0,.34,0,.41,0,.82,0,1.24a2,2,0,0,1,0-.72s0,0,0,0a1.31,1.31,0,0,1-.09-.85s.05,0,.06,0a1,1,0,0,1,0-.79h0a1.64,1.64,0,0,1,0-.69S20.55,17.16,20.57,17.15Z" transform="translate(-15.02 -1.36)"/><path d="M20.6,19c0-.11,0-.23,0-.34l.05.09A2.09,2.09,0,0,1,20.6,19Z" transform="translate(-15.02 -1.36)"/><path class="cls-2" d="M20.59,20.29Z" transform="translate(-15.02 -1.36)"/><path class="cls-2" d="M21,4l-.49,0a.33.33,0,0,1,0-.06,3.4,3.4,0,0,1-.07-.34h.52a2.08,2.08,0,0,0,.05.36A.14.14,0,0,1,21,4Z" transform="translate(-15.02 -1.36)"/><path d="M20.7,28.57c0,.13.07.24.1.36s-.06.09-.09.05a.62.62,0,0,1-.09-.12,2.21,2.21,0,0,0,.11.46,1.68,1.68,0,0,1,.12.38,0,0,0,0,1-.06,0,.44.44,0,0,1-.18-.24c0-.48,0-1,0-1.45h0C20.64,28.22,20.65,28.4,20.7,28.57Z" transform="translate(-15.02 -1.36)"/><path d="M20.61,29.49a1.21,1.21,0,0,1-.07-.7s0,0,0,0a.9.9,0,0,1,0-.7s0,0,.05,0C20.59,28.52,20.6,29,20.61,29.49Z" transform="translate(-15.02 -1.36)"/><path d="M20.57,31.56a1.11,1.11,0,0,1-.05-.48,0,0,0,0,1,.07,0l0,.1v.51A.61.61,0,0,0,20.57,31.56Z" transform="translate(-15.02 -1.36)"/><path d="M20.59,28c0-.24,0-.47,0-.71a2.12,2.12,0,0,0,.13.51,1.45,1.45,0,0,1,.12.35,0,0,0,0,1,0,0A.5.5,0,0,1,20.59,28Z" transform="translate(-15.02 -1.36)"/><path d="M20.58,27.32l0-.24,0,.05Z" transform="translate(-15.02 -1.36)"/><path d="M20.58,21.3a.31.31,0,0,1,0-.1.06.06,0,0,0,0,0Z" transform="translate(-15.02 -1.36)"/><path d="M20.68,21.71a2.11,2.11,0,0,1,.17.48s-.05,0-.07,0A.46.46,0,0,1,20.6,22a2.2,2.2,0,0,0,.09.43,1.78,1.78,0,0,1,.13.45s0,0-.05,0a.64.64,0,0,1-.2-.36V21.31A1.8,1.8,0,0,0,20.68,21.71Z" transform="translate(-15.02 -1.36)"/><path d="M20.57,25.38v-.77a2.44,2.44,0,0,0,.07.46,2.22,2.22,0,0,1,.18.49,0,0,0,0,1-.06,0A.39.39,0,0,1,20.57,25.38Z" transform="translate(-15.02 -1.36)"/><path d="M20.57,24.44q0-.36,0-.72a2,2,0,0,0,.14.59,1.2,1.2,0,0,1,.13.36,0,0,0,0,1-.06,0A.42.42,0,0,1,20.57,24.44Z" transform="translate(-15.02 -1.36)"/><path d="M20.57,23.59v-.8a2.62,2.62,0,0,0,.09.56,1.47,1.47,0,0,1,.14.45s0,0-.06,0A.48.48,0,0,1,20.57,23.59Z" transform="translate(-15.02 -1.36)"/><path d="M20.58,27.13c0-.56,0-1.12,0-1.68,0,.13,0,.26.07.4s.17.35.15.51,0,0,0,0a.27.27,0,0,1-.18-.15,4.35,4.35,0,0,0,.1.63,2.59,2.59,0,0,1,.14.45s0,.08-.07.05A.66.66,0,0,1,20.58,27.13Z" transform="translate(-15.02 -1.36)"/><path class="cls-2" d="M20.83,28.18a1.45,1.45,0,0,0-.12-.35,2.12,2.12,0,0,1-.13-.51v-.19a.66.66,0,0,0,.17.23s.07,0,.07-.05a2.59,2.59,0,0,0-.14-.45,4.35,4.35,0,0,1-.1-.63.27.27,0,0,0,.18.15s0,0,0,0-.11-.36-.15-.51-.05-.27-.07-.4v-.07a.39.39,0,0,0,.19.21,0,0,0,0,0,.06,0,2.22,2.22,0,0,0-.18-.49,2.44,2.44,0,0,1-.07-.46h0a.43.43,0,0,1,0-.16.42.42,0,0,0,.21.27,0,0,0,0,0,.06,0,1.2,1.2,0,0,0-.13-.36,2,2,0,0,1-.14-.59.29.29,0,0,1,0-.13.48.48,0,0,0,.17.24s.06,0,.06,0a1.47,1.47,0,0,0-.14-.45,2.62,2.62,0,0,1-.09-.56v-.23a.64.64,0,0,0,.2.36s.05,0,.05,0a1.78,1.78,0,0,0-.13-.45A2.2,2.2,0,0,1,20.6,22a.46.46,0,0,0,.18.21s.07,0,.07,0a2.11,2.11,0,0,0-.17-.48,1.8,1.8,0,0,1-.1-.4h0v-.06a.72.72,0,0,0,.17.22s.06,0,.06,0c0-.21-.13-.4-.16-.62s0-.25,0-.37a.51.51,0,0,0,.14.18,0,0,0,0,0,.06,0,2,2,0,0,0-.12-.42,4.51,4.51,0,0,1-.08-.53l.07.11a0,0,0,0,0,.05,0c-.06-.23-.12-.45-.16-.68a2.09,2.09,0,0,0,0-.25,1,1,0,0,0,.18.28.06.06,0,0,0,.09-.05,4.27,4.27,0,0,1-.18-.54c0-.14,0-.28,0-.42a.77.77,0,0,0,.17.19c.05,0,.08,0,.07-.06a3.71,3.71,0,0,1-.19-.46c0-.11,0-.23-.06-.35a1.82,1.82,0,0,0,.15.23s.11,0,.09-.05a5.36,5.36,0,0,1-.23-1,1.16,1.16,0,0,0,.2.33.06.06,0,0,0,.1-.06c0-.21-.14-.4-.18-.61a1.23,1.23,0,0,1,0-.33.76.76,0,0,0,.13.17.05.05,0,0,0,.09,0,3.18,3.18,0,0,0-.18-.6,4.59,4.59,0,0,1-.1-.51.55.55,0,0,0,.27.35s0,0,0,0a1.69,1.69,0,0,0-.18-.52,1.39,1.39,0,0,1-.09-.35.61.61,0,0,0,.19.2,0,0,0,0,0,.06,0,3.56,3.56,0,0,0-.19-.49,1.51,1.51,0,0,1-.07-.37.51.51,0,0,0,.2.21s0,0,0,0a1.35,1.35,0,0,0-.16-.42,2.5,2.5,0,0,1-.12-.45.64.64,0,0,0,.26.32s.06,0,.06-.05a2.17,2.17,0,0,0-.19-.33,1.24,1.24,0,0,1-.14-.38.58.58,0,0,0,.17.21,0,0,0,0,0,.06,0,3.84,3.84,0,0,0-.14-.36c0-.12-.08-.24-.11-.37h0a.44.44,0,0,1,.08-.15.29.29,0,0,1,.27-.13c.1,0,.17.11.21.2s0,.23.06.33c-.11,1.4-.06,2.84-.07,4.25,0,1.82-.05,3.64-.06,5.47,0,3.57,0,7.14,0,10.71a.19.19,0,0,0,0,.08c-.09.13-.2.29-.35.17a.55.55,0,0,1-.19-.33.1.1,0,0,0,0-.08v-.08a.26.26,0,0,0,.21.14s0,0,0,0-.11-.28-.17-.4a1.21,1.21,0,0,1-.09-.2v-.29a.46.46,0,0,0,.22.25s.05,0,.05,0-.12-.26-.16-.39a2.13,2.13,0,0,1-.11-.33v-.09a.26.26,0,0,0,.14.11s0,0,.06,0a.71.71,0,0,0-.12-.42l-.09-.27h0v-.24a.41.41,0,0,0,.16.24,0,0,0,0,0,.06,0,.79.79,0,0,0-.11-.39,1.91,1.91,0,0,1-.11-.41h0v-.14a.44.44,0,0,0,.18.24,0,0,0,0,0,.06,0,1.68,1.68,0,0,0-.12-.38,2.21,2.21,0,0,1-.11-.46.62.62,0,0,0,.09.12s.09,0,.09-.05-.07-.23-.1-.36-.06-.35-.11-.52h0a.5.5,0,0,0,.19.19A0,0,0,0,0,20.83,28.18Z" transform="translate(-15.02 -1.36)"/><path d="M20.52,21.09a1,1,0,0,1,.07-.8c0,.32,0,.64,0,.95a.06.06,0,0,1,0,0,.31.31,0,0,0,0,.1h0v1.25l0-.14a2.61,2.61,0,0,1-.06-.62s0-.05,0-.05a1.45,1.45,0,0,1,0-.62A0,0,0,0,1,20.52,21.09Z" transform="translate(-15.02 -1.36)"/><path d="M20.56,30a3.19,3.19,0,0,1-.07-.54s.08,0,.09,0l0,.15h0v.59A1.8,1.8,0,0,1,20.56,30Z" transform="translate(-15.02 -1.36)"/><path class="cls-2" d="M20.87,42.23h-.41v-.06a2.46,2.46,0,0,1,0-.28h.43A1.08,1.08,0,0,0,20.87,42.23Z" transform="translate(-15.02 -1.36)"/><path d="M20.57,23.59a1.38,1.38,0,0,1-.08-.27,1.11,1.11,0,0,1,0-.65,0,0,0,0,1,.05,0s0,.07,0,.11Z" transform="translate(-15.02 -1.36)"/><path d="M20.57,25.45l0-.14,0,.07Z" transform="translate(-15.02 -1.36)"/><path d="M20.62,31.08a1.36,1.36,0,0,1-.11-.28,1.72,1.72,0,0,1-.05-.6c0-.05.08-.06.09,0l.06.27h0C20.62,30.67,20.62,30.87,20.62,31.08Z" transform="translate(-15.02 -1.36)"/><path d="M20.55,31.64c0,.11,0,.22.07.33s0,.32,0,.49a1.13,1.13,0,0,1-.15-.82S20.55,31.61,20.55,31.64Z" transform="translate(-15.02 -1.36)"/><path d="M20.46,23.54s.07-.05.08,0a1.13,1.13,0,0,0,0,.18q0,.36,0,.72a1.72,1.72,0,0,1-.07-.21A2,2,0,0,1,20.46,23.54Z" transform="translate(-15.02 -1.36)"/><path d="M20.54,27a1.62,1.62,0,0,1-.05-.81,0,0,0,0,1,.06,0c0-.08-.05-.17-.07-.24a1.32,1.32,0,0,1,0-.71,0,0,0,0,1,.05,0s0-.11-.05-.16a.91.91,0,0,1,0-.61,0,0,0,0,1,.06,0,.83.83,0,0,0,0,.15h0v.77l0-.07,0,.14c0,.56,0,1.12,0,1.68l0-.05,0,.24c0,.24,0,.47,0,.71a1.75,1.75,0,0,1-.13-1S20.51,27,20.54,27Z" transform="translate(-15.02 -1.36)"/><path d="M21,9.25c-.23-.1-.38-.34-.62-.45A2.52,2.52,0,0,0,20,8.68h.61c.2.11.44.25.48.48A.07.07,0,0,1,21,9.25Z" transform="translate(-15.02 -1.36)"/><path d="M20.56,30a1.8,1.8,0,0,0,.05.19v.24l-.06-.27c0-.05-.08,0-.09,0a1.72,1.72,0,0,0,.05.6,1.36,1.36,0,0,0,.11.28v.09l0-.1a0,0,0,0,0-.07,0,1.11,1.11,0,0,0,.05.48.61.61,0,0,1,.05.12V32c0-.11-.05-.22-.07-.33s-.06,0-.07,0a1.13,1.13,0,0,0,.15.82v.08a.1.1,0,0,1,0,.08.55.55,0,0,0,.19.33c.15.12.26,0,.35-.17a.19.19,0,0,1,0-.08c0-3.57,0-7.14,0-10.71,0-1.83.06-3.65.06-5.47,0-1.41,0-2.85.07-4.25,0-.1,0-.23-.06-.33s-.11-.19-.21-.2a.29.29,0,0,0-.27.13.44.44,0,0,0-.08.15s-.08,0-.08,0a1.11,1.11,0,0,0,.05.44s-.05,0-.05,0a1.15,1.15,0,0,0,.06.37.06.06,0,0,0-.06,0,1.32,1.32,0,0,0,0,.51h0a2,2,0,0,0,0,.65h0a1.57,1.57,0,0,0,0,.61s-.06,0-.06.05a2.46,2.46,0,0,0,.07.88,1,1,0,0,0,0,.8.05.05,0,0,0-.05,0,1.25,1.25,0,0,0,0,.69s0,0,0,0a1.64,1.64,0,0,0,0,.69h0a1,1,0,0,0,0,.79s-.05,0-.06,0a1.31,1.31,0,0,0,.09.85s0,0,0,0a2,2,0,0,0,0,.72h0a1,1,0,0,0-.07.8,0,0,0,0,0,0,0,1.45,1.45,0,0,0,0,.62s0,0,0,.05a2.61,2.61,0,0,0,.06.62l0,.14v.23s0-.08,0-.11a0,0,0,0,0-.05,0,1.11,1.11,0,0,0,0,.65,1.38,1.38,0,0,0,.08.27.29.29,0,0,0,0,.13,1.13,1.13,0,0,1,0-.18c0-.05-.08,0-.08,0a2,2,0,0,0,0,.69,1.72,1.72,0,0,0,.07.21.43.43,0,0,0,0,.16.83.83,0,0,1,0-.15,0,0,0,0,0-.06,0,.91.91,0,0,0,0,.61c0,.05,0,.11.05.16a0,0,0,0,0-.05,0,1.32,1.32,0,0,0,0,.71c0,.07,0,.16.07.24a0,0,0,0,0-.06,0,1.62,1.62,0,0,0,.05.81s-.08,0-.08,0a1.75,1.75,0,0,0,.13,1h0s-.05,0-.05,0a.9.9,0,0,0,0,.7s0,0,0,0a1.21,1.21,0,0,0,.07.7v.14l0-.15s-.09,0-.09,0A3.19,3.19,0,0,0,20.56,30Zm.83-17.76c.11,1.46,0,3,0,4.43,0,1.82,0,3.64-.05,5.46,0,3.51.08,7,.07,10.53a.12.12,0,0,1-.06.12.51.51,0,0,1-.22.34.36.36,0,0,1-.44,0,.79.79,0,0,1-.29-.57.13.13,0,0,1,0-.09c0-3.44,0-6.88,0-10.32L20.45,17c0-1.65-.07-3.34.07-5,0-.23.27-.48.46-.47a.43.43,0,0,1,.36.25A.64.64,0,0,1,21.39,12.27Z" transform="translate(-15.02 -1.36)"/><path d="M20.33,42.57h.07S20.34,42.6,20.33,42.57Z" transform="translate(-15.02 -1.36)"/><path class="cls-2" d="M20,42.13c0-.08,0-.17,0-.25h.33a1.49,1.49,0,0,0,0,.21s0,.09,0,.13H20Z" transform="translate(-15.02 -1.36)"/><path d="M20.19,36.41s0,0,0,0a.07.07,0,0,1,0-.05h.1A.27.27,0,0,1,20.19,36.41Z" transform="translate(-15.02 -1.36)"/><path class="cls-2" d="M19.93,36.33a.13.13,0,0,1,0-.06h.24a.11.11,0,0,0,0,.06Z" transform="translate(-15.02 -1.36)"/><path class="cls-2" d="M19.71,8.12l-.12-.23h.5a.87.87,0,0,0,.1.24h-.48Z" transform="translate(-15.02 -1.36)"/><path d="M20.2,11.73a.32.32,0,0,1-.14,0h-.12a.05.05,0,0,1,0-.1l.12,0,.14,0A0,0,0,0,1,20.2,11.73Z" transform="translate(-15.02 -1.36)"/><path class="cls-2" d="M19.8,3.85c0-.1-.05-.21-.09-.31h.52a1.83,1.83,0,0,0,0,.33.29.29,0,0,0,0,.09l-.43,0C19.83,3.94,19.81,3.89,19.8,3.85Z" transform="translate(-15.02 -1.36)"/><path d="M20.32,11.46a.82.82,0,0,1-.35,0,1.22,1.22,0,0,1-.33,0,0,0,0,0,1,0-.09,1.45,1.45,0,0,1,.36,0,.85.85,0,0,1,.32,0A0,0,0,0,1,20.32,11.46Z" transform="translate(-15.02 -1.36)"/><path d="M20.49,8.54a1.07,1.07,0,0,1,.82.12H20a1.52,1.52,0,0,0-.42-.06c-.06,0-.08-.1,0-.11a1.65,1.65,0,0,1,.88.09A.05.05,0,0,1,20.49,8.54Z" transform="translate(-15.02 -1.36)"/><path d="M19.93,36.33a.13.13,0,0,1-.06.1h0a.16.16,0,0,1,0-.09Z" transform="translate(-15.02 -1.36)"/><path class="cls-2" d="M19.52,36.34a.14.14,0,0,0,0-.07h.29s0,0,0,.06Z" transform="translate(-15.02 -1.36)"/><path d="M18.47,10.54a18.11,18.11,0,0,1,2.21,0s0,0,0,0a9.61,9.61,0,0,1-2.21,0S18.45,10.54,18.47,10.54Z" transform="translate(-15.02 -1.36)"/><path class="cls-2" d="M19.5,7.65a3.58,3.58,0,0,1-.11-.35l.67,0h0a.06.06,0,0,0,0,.06,1.48,1.48,0,0,0,0,.27H19.5Z" transform="translate(-15.02 -1.36)"/><path d="M19.47,36.46a0,0,0,0,1,0,0,.2.2,0,0,1,0-.11h.12A.31.31,0,0,1,19.47,36.46Z" transform="translate(-15.02 -1.36)"/><path class="cls-2" d="M19.86,41.88c0,.06,0,.11,0,.17a1.24,1.24,0,0,1,0,.18h-.39c0-.09,0-.18,0-.26v-.09Z" transform="translate(-15.02 -1.36)"/><path class="cls-2" d="M20.47,8.29h.34a.57.57,0,0,0,.11.11h0c-.62,0-1.25,0-1.87,0v0a.53.53,0,0,0,0-.12c.2,0,.41,0,.61,0l.08.08s.06,0,.05,0a.06.06,0,0,0,0,0h.54a.37.37,0,0,0,.12.07s.05,0,.05,0S20.47,8.3,20.47,8.29Z" transform="translate(-15.02 -1.36)"/><path class="cls-2" d="M19.54,8.12,19,8.1a1.25,1.25,0,0,0-.09-.25l.52,0A2.56,2.56,0,0,0,19.54,8.12Z" transform="translate(-15.02 -1.36)"/><path d="M22.52,34.86c-1,0-2.11,0-3.15-.06-.36,0-.71-.06-1.06-.11a.08.08,0,0,1,0-.15c1.46-.09,3,.07,4.42.08l3.95,0a.09.09,0,0,1,.09.06.14.14,0,0,1-.12.19C25.27,34.89,23.89,34.89,22.52,34.86Z" transform="translate(-15.02 -1.36)"/><path d="M20.64,37.67a.05.05,0,1,1,0,.1,32.9,32.9,0,0,1-4-.1s0-.05,0-.05A37.59,37.59,0,0,1,20.64,37.67Z" transform="translate(-15.02 -1.36)"/><path class="cls-2" d="M18.77,7.49c0-.06-.05-.12-.07-.19h.59a2.05,2.05,0,0,0,.07.34h-.53Z" transform="translate(-15.02 -1.36)"/><path d="M20.66,10.91a10.23,10.23,0,0,1-2.28,0s0-.05,0-.05a10.41,10.41,0,0,1,2.3,0S20.69,10.91,20.66,10.91Z" transform="translate(-15.02 -1.36)"/><path class="cls-2" d="M19.26,42.3a1,1,0,0,0,0,.18,0,0,0,0,0,.08,0,.52.52,0,0,0,0-.18h.4a.54.54,0,0,0,0,.22s.05,0,.06,0a.54.54,0,0,0,0-.22h.31a.51.51,0,0,0,0,.25l-1.45,0,0-.24Z" transform="translate(-15.02 -1.36)"/><path class="cls-2" d="M18.94,41.44h.36a2.36,2.36,0,0,0,0,.28h-.33A2.53,2.53,0,0,1,18.94,41.44Z" transform="translate(-15.02 -1.36)"/><path class="cls-2" d="M19.09,36.07l.07-.14h.41l-.1.15Z" transform="translate(-15.02 -1.36)"/><path class="cls-2" d="M19,36.27h.37s0,0,0,.07H19A.25.25,0,0,1,19,36.27Z" transform="translate(-15.02 -1.36)"/><path class="cls-2" d="M19.06,5.86a.5.5,0,0,0,0-.27h.43a.4.4,0,0,0,.09.22s0,0,.05,0v0h-.55Z" transform="translate(-15.02 -1.36)"/><path d="M19,8.41h.06s0,0-.05,0Z" transform="translate(-15.02 -1.36)"/><path class="cls-2" d="M19.06,3.73l0-.2h.51a1.51,1.51,0,0,0,.06.36.52.52,0,0,0,0,.11h-.48A2.76,2.76,0,0,1,19.06,3.73Z" transform="translate(-15.02 -1.36)"/><path d="M19,36.4s0,0,0,0H19v0A0,0,0,0,1,19,36.4Z" transform="translate(-15.02 -1.36)"/><path d="M19,15.7a2.69,2.69,0,0,0,.13.32c.07.14.21.28.22.44a.07.07,0,0,1-.08.08.53.53,0,0,1-.28-.32Z" transform="translate(-15.02 -1.36)"/><path d="M19,12.5a.93.93,0,0,0,.09.4c.05.1.14.19.13.3s0,.06-.05.05A.35.35,0,0,1,19,13h0c0-.21,0-.41,0-.61l0,0v0c0-.08,0-.15,0-.22A.54.54,0,0,0,19,12a6,6,0,0,0,.28.57s0,.08-.06.06A.65.65,0,0,1,19,12.5Z" transform="translate(-15.02 -1.36)"/><path d="M19,15.28c.06.14.21.27.21.43a.07.07,0,0,1-.06.07.35.35,0,0,1-.22-.14c0-.18,0-.37,0-.55A.6.6,0,0,0,19,15.28Z" transform="translate(-15.02 -1.36)"/><path d="M19,13a2.74,2.74,0,0,0,.13.55.86.86,0,0,1,.12.35s-.05.05-.08,0a.52.52,0,0,1-.16-.17,2.17,2.17,0,0,0,.08.51,1.32,1.32,0,0,1,.1.51s-.06.06-.08,0a.32.32,0,0,1-.11-.12c0-.57,0-1.15,0-1.72h0Z" transform="translate(-15.02 -1.36)"/><path d="M18.93,15.6l0,0v.06Z" transform="translate(-15.02 -1.36)"/><path d="M18.8,15.29a1.33,1.33,0,0,1-.05-.34v0a1,1,0,0,1,.06-.34.06.06,0,0,1,.08,0,2.16,2.16,0,0,1,0-.91.05.05,0,0,1,.05,0,1.91,1.91,0,0,1-.05-.56c0-.06.08-.08.1,0l0-.13a.84.84,0,0,1,0-.47c0,.2,0,.4,0,.61,0,.57,0,1.15,0,1.72l-.06-.1a3.41,3.41,0,0,0,0,.46c0,.18,0,.37,0,.55l0,0,0,.1v.52a.61.61,0,0,1-.05-.12,1.71,1.71,0,0,1-.09-.55s0-.06.07-.06A.7.7,0,0,1,18.8,15.29Z" transform="translate(-15.02 -1.36)"/><path d="M19,17.22a2.62,2.62,0,0,0,.11.4c.06.14.18.29.17.44s0,.07-.08.06a.36.36,0,0,1-.19-.21,2.32,2.32,0,0,0,0,.46,2.72,2.72,0,0,1,.15.54.07.07,0,0,1-.1.06.47.47,0,0,1-.13-.15c0-.59,0-1.18,0-1.77,0-.14,0-.27,0-.41a1.13,1.13,0,0,0,.08.22c.05.12.18.23.16.37a.12.12,0,0,1-.05.05A.19.19,0,0,1,19,17.22Z" transform="translate(-15.02 -1.36)"/><path d="M19.21,32.76a.39.39,0,0,1-.27-.23v-.77a0,0,0,0,1,0,0,2.09,2.09,0,0,0,.16.57c.06.11.16.2.17.33A.08.08,0,0,1,19.21,32.76Z" transform="translate(-15.02 -1.36)"/><path class="cls-2" d="M19.11,32.36a2.09,2.09,0,0,1-.16-.57,0,0,0,0,0,0,0v-.05a.28.28,0,0,0,.29.16.05.05,0,0,0,0-.06c0-.15-.16-.28-.23-.4a1.09,1.09,0,0,1-.09-.56c.09.17.25.36.43.32a.06.06,0,0,0,0-.05h0V32.7a.11.11,0,0,0,0,.08c-.1.13-.21.29-.36.17a.54.54,0,0,1-.18-.33.15.15,0,0,0,0-.08h0a.39.39,0,0,0,.27.23.08.08,0,0,0,.07-.07C19.27,32.56,19.17,32.47,19.11,32.36Z" transform="translate(-15.02 -1.36)"/><path class="cls-2" d="M18.94,12.32v0l0,0Z" transform="translate(-15.02 -1.36)"/><path d="M19,15.09a3.41,3.41,0,0,1,0-.46l.06.1C19,14.86,19,15,19,15.09Z" transform="translate(-15.02 -1.36)"/><path d="M18.89,12s.06-.06.07,0v0a.54.54,0,0,1,0,.11c0,.07,0,.14,0,.22A.62.62,0,0,1,18.89,12Z" transform="translate(-15.02 -1.36)"/><path class="cls-2" d="M19.13,41.87h.12a1.93,1.93,0,0,0,0,.34h-.34c0-.11,0-.22,0-.33Z" transform="translate(-15.02 -1.36)"/><path d="M19.09,21.47a.51.51,0,0,1-.2-.25l0-2.32a1.86,1.86,0,0,0,.1.48c.06.16.2.31.18.48a.05.05,0,0,1-.07.05.33.33,0,0,1-.19-.16,1.7,1.7,0,0,0,.1.37c.07.13.21.29.16.44a.05.05,0,0,1-.06,0,.22.22,0,0,1-.18-.11,2.33,2.33,0,0,0,0,.38,4,4,0,0,1,.17.56A.05.05,0,0,1,19.09,21.47Z" transform="translate(-15.02 -1.36)"/><path d="M18.91,30.77l0-.05a1,1,0,0,1-.05-.77.06.06,0,0,1,.08,0c0,.6,0,1.19,0,1.79a1.12,1.12,0,0,1-.14-.26,1,1,0,0,1,0-.64S18.89,30.77,18.91,30.77Z" transform="translate(-15.02 -1.36)"/><path d="M18.86,32.34a.86.86,0,0,1,0-.55.06.06,0,0,1,.1,0v.77Z" transform="translate(-15.02 -1.36)"/><path d="M18.92,18.9v-.09a0,0,0,0,0,0,0Z" transform="translate(-15.02 -1.36)"/><path d="M18.9,29h0c0,.32,0,.64,0,1A1,1,0,0,1,18.9,29Z" transform="translate(-15.02 -1.36)"/><path class="cls-2" d="M19.07,28.68c0-.08,0-.16-.05-.24a.27.27,0,0,0,.14.07s.09,0,.08-.06a.37.37,0,0,0-.08-.22,1.46,1.46,0,0,1-.16-.36,2.36,2.36,0,0,1,0-.28.3.3,0,0,0,.25.13.06.06,0,0,0,.06-.06c0-.16-.16-.32-.24-.46a1.38,1.38,0,0,1-.12-.56.37.37,0,0,0,.3.23.06.06,0,0,0,.06-.06c0-.16-.13-.29-.2-.43a1.86,1.86,0,0,1-.16-.47.54.54,0,0,0,.16.1,0,0,0,0,0,.05,0c0-.21-.1-.41-.16-.59a1.89,1.89,0,0,1-.08-.4v-.12A.24.24,0,0,0,19,25a.07.07,0,0,0,.08-.06c0-.17-.12-.34-.17-.5a1.28,1.28,0,0,1-.07-.34v-.32a.44.44,0,0,0,.22.33.07.07,0,0,0,.08-.05c0-.14-.06-.26-.1-.41s-.06-.33-.09-.5a.47.47,0,0,0,.09.06c.07,0,.13,0,.12-.11S19,22.8,19,22.64a2,2,0,0,1-.08-.43.49.49,0,0,0,.17.15s.07,0,.07-.06a1.57,1.57,0,0,0-.18-.42,2.38,2.38,0,0,1-.07-.31v-.35a.51.51,0,0,0,.2.25.05.05,0,0,0,.08,0,4,4,0,0,0-.17-.56,2.33,2.33,0,0,1,0-.38.22.22,0,0,0,.18.11.05.05,0,0,0,.06,0c.05-.15-.09-.31-.16-.44a1.7,1.7,0,0,1-.1-.37.33.33,0,0,0,.19.16.05.05,0,0,0,.07-.05c0-.17-.12-.32-.18-.48a1.86,1.86,0,0,1-.1-.48v-.08a.47.47,0,0,0,.13.15.07.07,0,0,0,.1-.06,2.72,2.72,0,0,0-.15-.54,2.32,2.32,0,0,1,0-.46.36.36,0,0,0,.19.21s.07,0,.08-.06-.11-.3-.17-.44a2.62,2.62,0,0,1-.11-.4.19.19,0,0,0,.17.06.12.12,0,0,0,.05-.05c0-.14-.11-.25-.16-.37a1.13,1.13,0,0,1-.08-.22c0-.14,0-.28,0-.42a.53.53,0,0,0,.28.32.07.07,0,0,0,.08-.08c0-.16-.15-.3-.22-.44A2.69,2.69,0,0,1,19,15.7v-.06a.35.35,0,0,0,.22.14.07.07,0,0,0,.06-.07c0-.16-.15-.29-.21-.43a.6.6,0,0,1-.06-.19c0-.12,0-.23,0-.36a.32.32,0,0,0,.11.12s.07,0,.08,0a1.32,1.32,0,0,0-.1-.51,2.17,2.17,0,0,1-.08-.51.52.52,0,0,0,.16.17s.08,0,.08,0a.86.86,0,0,0-.12-.35A2.74,2.74,0,0,1,19,13h0a.35.35,0,0,0,.23.23s.05,0,.05-.05-.08-.2-.13-.3a.93.93,0,0,1-.09-.4.65.65,0,0,0,.15.12s.08,0,.06-.06A6,6,0,0,1,19,12a.75.75,0,0,1,.07-.12.29.29,0,0,1,.27-.13c.1,0,.17.11.21.2s0,.23.07.33c-.12,1.4-.07,2.84-.07,4.25,0,1.82-.06,3.64-.07,5.47,0,3.05,0,6.09,0,9.13h0c0-.17-.18-.31-.26-.45A3,3,0,0,1,19,30a.53.53,0,0,0,.22.2.09.09,0,0,0,.12-.1,3.76,3.76,0,0,0-.23-.55,2.7,2.7,0,0,1-.07-.41.35.35,0,0,0,.06.09.11.11,0,0,0,.12,0,.13.13,0,0,0,.07-.06.13.13,0,0,0,0-.12A2.44,2.44,0,0,1,19.07,28.68Z" transform="translate(-15.02 -1.36)"/><path d="M19,23.14c0,.17.05.34.09.5s.13.27.1.41a.07.07,0,0,1-.08.05.44.44,0,0,1-.22-.33v-.7h0l0,0,0,0c0-.27,0-.54,0-.81v-.64a2.38,2.38,0,0,0,.07.31,1.57,1.57,0,0,1,.18.42s0,.08-.07.06a.49.49,0,0,1-.17-.15,2,2,0,0,0,.08.43c.06.16.17.29.22.45s-.05.15-.12.11A.47.47,0,0,1,19,23.14Z" transform="translate(-15.02 -1.36)"/><path class="cls-2" d="M18.9,23l0,0h0V23Z" transform="translate(-15.02 -1.36)"/><path d="M19,28.44c0,.08,0,.16.05.24a2.44,2.44,0,0,0,.18.41.13.13,0,0,1,0,.12.13.13,0,0,1-.07.06.11.11,0,0,1-.12,0,.35.35,0,0,1-.06-.09,2.7,2.7,0,0,0,.07.41,3.76,3.76,0,0,1,.23.55.09.09,0,0,1-.12.1A.53.53,0,0,1,19,30a3,3,0,0,0,.19.67c.08.14.26.28.26.45a.06.06,0,0,1,0,.05c-.18,0-.34-.15-.43-.32a1.09,1.09,0,0,0,.09.56c.07.12.24.25.23.4a.05.05,0,0,1,0,.06.28.28,0,0,1-.29-.16c0-.6,0-1.19,0-1.79,0-.31,0-.63,0-1,0-1.33,0-2.65,0-4a1.89,1.89,0,0,0,.08.4c.06.18.2.38.16.59a0,0,0,0,1-.05,0,.54.54,0,0,1-.16-.1,1.86,1.86,0,0,0,.16.47c.07.14.2.27.2.43a.06.06,0,0,1-.06.06.37.37,0,0,1-.3-.23,1.38,1.38,0,0,0,.12.56c.08.14.24.3.24.46a.06.06,0,0,1-.06.06.3.3,0,0,1-.25-.13,2.36,2.36,0,0,0,0,.28,1.46,1.46,0,0,0,.16.36.37.37,0,0,1,.08.22s0,.07-.08.06A.27.27,0,0,1,19,28.44Z" transform="translate(-15.02 -1.36)"/><path d="M19,24.43c.05.16.19.33.17.5A.07.07,0,0,1,19,25a.24.24,0,0,1-.16-.12v-.78A1.28,1.28,0,0,0,19,24.43Z" transform="translate(-15.02 -1.36)"/><path d="M18.88,23a1.08,1.08,0,0,1-.09-1l0,0c0-.06,0-.12,0-.17a1.31,1.31,0,0,1,0-.68c0-.05.09,0,.09,0s0,.25,0,.37v.64C18.88,22.48,18.88,22.75,18.88,23Z" transform="translate(-15.02 -1.36)"/><path d="M18.88,25s0-.09,0-.14l0,0Z" transform="translate(-15.02 -1.36)"/><path class="cls-2" d="M18.48,4c0-.12-.09-.24-.12-.37a.19.19,0,0,1,0-.08h.54a1.83,1.83,0,0,0,.05.47Z" transform="translate(-15.02 -1.36)"/><path d="M18.88,23.77a.61.61,0,0,1,0-.13.92.92,0,0,1,0-.57Z" transform="translate(-15.02 -1.36)"/><path d="M18.88,42.53v.07s-.08,0-.08,0l0-.07Z" transform="translate(-15.02 -1.36)"/><path d="M18.8,20.14a1.16,1.16,0,0,1,0-.69s0,0,0,0a.09.09,0,0,0,0-.05,1.67,1.67,0,0,1,0-.77,0,0,0,0,1,0,0,1.45,1.45,0,0,1,.06-.81l0,0s0,0,0-.05a1.27,1.27,0,0,1,0-.58h0a1.66,1.66,0,0,1-.06-.16.42.42,0,0,1,0-.1v-.49c0-.07.15-.06.15,0a.89.89,0,0,0,0,.28c0,.14,0,.27,0,.41,0,.59,0,1.18,0,1.77a0,0,0,0,1,0,0v.09l0,2.32a1.23,1.23,0,0,1-.07-.32,1.35,1.35,0,0,1,0-.6A1.38,1.38,0,0,0,18.8,20.14Z" transform="translate(-15.02 -1.36)"/><path d="M18.41,11.17a5.55,5.55,0,0,1,2.26,0s0,0,0,0a8.67,8.67,0,0,1-1.14,0c-.37,0-.74,0-1.12,0C18.37,11.24,18.36,11.17,18.41,11.17Z" transform="translate(-15.02 -1.36)"/><path class="cls-2" d="M19,35.93a.39.39,0,0,0-.08.14h-.39l.06-.14Z" transform="translate(-15.02 -1.36)"/><path d="M18.8,28.59a.09.09,0,0,1-.12-.05v-.23h0c0-.06.09-.06.12,0l0,.1h0a.35.35,0,0,1,.06-.14A.78.78,0,0,1,18.8,28a1,1,0,0,1,0-.58c0-.06-.05-.12-.07-.17a.89.89,0,0,1,0-.75s0,0,0,0a.56.56,0,0,1,0-.12,1.41,1.41,0,0,1,0-.79l0-.1a1.6,1.6,0,0,1,0-.84h0l0-.13a1.62,1.62,0,0,1,0-.62s.09-.05.1,0l0,.23v.78l0,0s0,.1,0,.14c0,1.33,0,2.65,0,4a1.06,1.06,0,0,1-.09-.39Z" transform="translate(-15.02 -1.36)"/><path d="M18.76,16.83a1.29,1.29,0,0,1,0-.48h0Z" transform="translate(-15.02 -1.36)"/><path class="cls-2" d="M18.39,42.18c0-.1,0-.2,0-.3h.36c0,.11,0,.22,0,.33l-.23,0Z" transform="translate(-15.02 -1.36)"/><path d="M18.83,12.06c0-.23.27-.48.47-.47a.42.42,0,0,1,.35.25.54.54,0,0,1,.05.43c.12,1.46,0,3,0,4.43,0,1.82-.05,3.64-.05,5.46,0,3.51.07,7,.07,10.53a.13.13,0,0,1-.07.12.48.48,0,0,1-.22.34.36.36,0,0,1-.44,0,.79.79,0,0,1-.29-.57.12.12,0,0,1,0-.09v-4a.09.09,0,0,0,.12.05h0a1.06,1.06,0,0,0,.09.39h0a1,1,0,0,0,0,.94.06.06,0,0,0-.08,0,1,1,0,0,0,.05.77l0,.05s-.06,0-.07,0a1,1,0,0,0,0,.64,1.12,1.12,0,0,0,.14.26v.05a.06.06,0,0,0-.1,0,.86.86,0,0,0,0,.55l.08.19h0a.15.15,0,0,1,0,.08.54.54,0,0,0,.18.33c.15.12.26,0,.36-.17a.11.11,0,0,1,0-.08V31.12c0-3,0-6.08,0-9.13,0-1.83.06-3.65.07-5.47,0-1.41-.05-2.85.07-4.25-.05-.1,0-.23-.07-.33s-.11-.19-.21-.2a.29.29,0,0,0-.27.13A.75.75,0,0,0,19,12v0s-.07,0-.07,0a.62.62,0,0,0,.05.33v.08a.84.84,0,0,0,0,.47L19,13s-.09,0-.1,0a1.91,1.91,0,0,0,.05.56.05.05,0,0,0-.05,0,2.16,2.16,0,0,0,0,.91.06.06,0,0,0-.08,0,1,1,0,0,0-.06.34C18.74,14,18.75,13,18.83,12.06Z" transform="translate(-15.02 -1.36)"/><path d="M18.75,15a1.33,1.33,0,0,0,.05.34.7.7,0,0,0,.08.2s-.07,0-.07.06a1.71,1.71,0,0,0,.09.55.61.61,0,0,0,.05.12c0,.14,0,.28,0,.42a.89.89,0,0,1,0-.28c0-.08-.13-.09-.15,0C18.76,15.88,18.75,15.41,18.75,15Z" transform="translate(-15.02 -1.36)"/><path class="cls-2" d="M18.44,5.37l0-.21h.52a.07.07,0,0,0-.07.07v.16Z" transform="translate(-15.02 -1.36)"/><path d="M18.68,28.31q0-3,0-6.1c0-1.72.05-3.44.06-5.17v-.21a.42.42,0,0,0,0,.1,1.66,1.66,0,0,0,.06.16h0a1.27,1.27,0,0,0,0,.58s0,0,0,.05l0,0a1.45,1.45,0,0,0-.06.81,0,0,0,0,0,0,0,1.67,1.67,0,0,0,0,.77.09.09,0,0,1,0,.05s0,0,0,0a1.16,1.16,0,0,0,0,.69,1.38,1.38,0,0,1,.06.16,1.35,1.35,0,0,0,0,.6,1.23,1.23,0,0,0,.07.32v.35c0-.12,0-.25,0-.37s-.08-.07-.09,0a1.31,1.31,0,0,0,0,.68c0,.05,0,.11,0,.17l0,0a1.08,1.08,0,0,0,.09,1v.05a.92.92,0,0,0,0,.57.61.61,0,0,0,0,.13v.32l0-.23c0-.05-.08,0-.1,0a1.62,1.62,0,0,0,0,.62l0,.13h0a1.6,1.6,0,0,0,0,.84l0,.1a1.41,1.41,0,0,0,0,.79.56.56,0,0,0,0,.12s0,0,0,0a.89.89,0,0,0,0,.75c0,.05,0,.11.07.17a1,1,0,0,0,0,.58.78.78,0,0,0,.09.27.35.35,0,0,0-.06.14h0l0-.1c0-.06-.1-.06-.12,0Z" transform="translate(-15.02 -1.36)"/><path d="M18.68,28.31v.23h0A.33.33,0,0,1,18.68,28.31Z" transform="translate(-15.02 -1.36)"/><path class="cls-2" d="M19,36.35h-.42a.34.34,0,0,1,0-.1h.37Z" transform="translate(-15.02 -1.36)"/><path d="M18.35,33.36a.91.91,0,0,1,.61,0,0,0,0,0,1,0,0,1.74,1.74,0,0,1-.6,0A0,0,0,0,1,18.35,33.36Z" transform="translate(-15.02 -1.36)"/><path d="M18.47,36.45a.26.26,0,0,1,0-.09h.11s0,.06,0,.09Z" transform="translate(-15.02 -1.36)"/><path class="cls-2" d="M18.42,41.71a2.81,2.81,0,0,0,0-.29h.38l0,.29Z" transform="translate(-15.02 -1.36)"/><path class="cls-2" d="M18.46,5.6h.42v0a.53.53,0,0,0,.08.25l-.49,0A1,1,0,0,0,18.46,5.6Z" transform="translate(-15.02 -1.36)"/><path class="cls-2" d="M18,36.37l0-.13.38,0a.31.31,0,0,0,0,.1Z" transform="translate(-15.02 -1.36)"/><path class="cls-2" d="M22.82,36.33H20.26l0-.07h.49c.08,0,.07-.13,0-.13l-.77,0,0-.05S20,36,20,36l-.05.08h-.29a.51.51,0,0,1,.09-.16c.35,0,.7,0,1,0,.07,0,.06-.1,0-.1-.49,0-1,0-1.48,0a0,0,0,0,0-.06,0h0l-.4,0h0s0-.08-.06,0l-.05.06h-.44a1.88,1.88,0,0,1,.16-.23h.68c.54,0,1.09,0,1.63,0a0,0,0,0,0,0-.08,8.52,8.52,0,0,0-1.43-.08c-.42,0-.85,0-1.28,0a1.88,1.88,0,0,1,.25-.24H19c.49,0,1,.06,1.48,0,0,0,0,0,0-.06a8,8,0,0,0-1.16-.15V34.8c1,.06,2.11,0,3.15.06,1.37,0,2.75,0,4.13,0a.14.14,0,0,0,.12-.19H27l0,0c.28.19.55.23.76.55a1.37,1.37,0,0,1,.18.93s0,0,0,.07v0a.24.24,0,0,0,0,.08s0,0,0,0c-.67,0-1.35,0-2,0Z" transform="translate(-15.02 -1.36)"/><path class="cls-2" d="M18.37,42.28h.38c0,.08,0,.16,0,.24h-.45A2,2,0,0,0,18.37,42.28Z" transform="translate(-15.02 -1.36)"/><path d="M20.65,34.31a7.78,7.78,0,0,1-2.26,0s-.05-.07,0-.07a7.79,7.79,0,0,1,2.26,0S20.68,34.31,20.65,34.31Z" transform="translate(-15.02 -1.36)"/><path d="M18.37,33.93a6.44,6.44,0,0,1,1.86,0,0,0,0,1,1,0,0,8.18,8.18,0,0,1-1.85,0S18.34,33.93,18.37,33.93Z" transform="translate(-15.02 -1.36)"/><path d="M19.88,33.65a7.72,7.72,0,0,1-1.52,0s0-.06,0-.06a5.6,5.6,0,0,1,1.53,0S19.91,33.65,19.88,33.65Z" transform="translate(-15.02 -1.36)"/><path class="cls-2" d="M18.53,35.92a.61.61,0,0,0-.07.14h-.39a.42.42,0,0,1,0-.1.19.19,0,0,1,0-.07Z" transform="translate(-15.02 -1.36)"/><path d="M19.59,7.89l.12.23h.48a.87.87,0,0,1-.1-.24ZM19,8.1l.54,0a2.56,2.56,0,0,1-.11-.24l-.52,0A1.25,1.25,0,0,1,19,8.1Zm-.17-.47h.53a2.05,2.05,0,0,1-.07-.34H18.7c0,.07.05.13.07.19Zm2,.23a.36.36,0,0,0,0,.09,2,2,0,0,0,.1.21l.35,0a1.18,1.18,0,0,1-.09-.37Zm-.37.28h.31a1.31,1.31,0,0,1-.09-.28l-.36,0C20.31,8,20.37,8.05,20.41,8.14Zm1.11.23a.26.26,0,0,1-.22-.14l-.32,0,0,0a.08.08,0,0,1,0,.09h0a.57.57,0,0,1-.11-.11h-.34s0,0,0,0,0,.05-.05,0a.37.37,0,0,1-.12-.07h-.54a.06.06,0,0,1,0,0s0,.06-.05,0l-.08-.08c-.2,0-.41,0-.61,0a.53.53,0,0,1,0,.12v0H19l-.1-.15-.38-.06s0-.06,0-.06a1.55,1.55,0,0,1,.31,0c0-.09-.08-.19-.11-.28l-.4,0c-.07,0,0-.13,0-.13l.32,0,0-.08c0-.09-.07-.18-.1-.26a.59.59,0,0,1-.31-.13h0a.52.52,0,0,1,.23-.07,3.57,3.57,0,0,1-.1-.35,2.34,2.34,0,0,1-.45-.07,0,0,0,0,1,0,0,7.77,7.77,0,0,1,1.67,0,8.33,8.33,0,0,1,1.66.11s0,.07,0,.08a9.43,9.43,0,0,1-1.68,0l-1.08,0a3.18,3.18,0,0,1,.16.32,4.46,4.46,0,0,1,.65.07c0-.06.08-.08.09,0v0h.06c.57,0,1.14,0,1.71,0,.09,0,.09.13,0,.13a9.6,9.6,0,0,1-1.08,0l-.67,0a3.58,3.58,0,0,0,.11.35H20a1.48,1.48,0,0,1,0-.27.06.06,0,0,1,0-.06,0,0,0,0,1,.05,0,2.46,2.46,0,0,0,.07.29h.43a.76.76,0,0,1,0-.15.06.06,0,1,1,.12,0c0,.05,0,.1,0,.15l.44,0a.06.06,0,0,1,.1,0h.11s0,.07,0,.08h-.1a.63.63,0,0,0,.1.3c.05.08.12.13.15.22S21.54,8.37,21.52,8.37Z" transform="translate(-15.02 -1.36)"/><path d="M19.2,9.23c-.17-.08-.27-.28-.42-.38a1.24,1.24,0,0,0-.51-.2h0c.43,0,.86,0,1.3,0l.07,0c.22.1.58.26.6.54,0,0,0,.05-.07.05-.22,0-.39-.3-.6-.39a2.45,2.45,0,0,0-.64-.18.69.69,0,0,1,.33.45S19.22,9.24,19.2,9.23Z" transform="translate(-15.02 -1.36)"/><path class="cls-2" d="M18,41.27A1.94,1.94,0,0,1,18,41h.37c0,.08,0,.17,0,.25Z" transform="translate(-15.02 -1.36)"/><path d="M18.32,42.52a0,0,0,0,1-.07,0Z" transform="translate(-15.02 -1.36)"/><path class="cls-2" d="M17.93,5.83a.81.81,0,0,0,0-.22h.36a.93.93,0,0,0,0,.23Z" transform="translate(-15.02 -1.36)"/><path d="M17.91,8.71,18,8.63h.28l.08.07c.13.14.31.43.2.62,0,0-.05,0-.07,0a.61.61,0,0,1-.12-.27.78.78,0,0,0-.15-.22A.57.57,0,0,0,18,8.73Z" transform="translate(-15.02 -1.36)"/><path class="cls-2" d="M18.21,42.16l-.35,0,0-.25h.33A2.44,2.44,0,0,0,18.21,42.16Z" transform="translate(-15.02 -1.36)"/><path d="M20.44,37.08a0,0,0,0,1,0,.08,30.3,30.3,0,0,1-3.69,0,0,0,0,1,1,0-.08A28.39,28.39,0,0,1,20.44,37.08Z" transform="translate(-15.02 -1.36)"/><path class="cls-2" d="M17.84,4c-.05-.14-.11-.29-.15-.44h.45a1.63,1.63,0,0,0,.09.45Z" transform="translate(-15.02 -1.36)"/><path class="cls-2" d="M18.18,2.85a2.51,2.51,0,0,0-.05.51h-.47a2.88,2.88,0,0,1,0-.51Z" transform="translate(-15.02 -1.36)"/><path class="cls-2" d="M17.71,35.72a2.33,2.33,0,0,1,.17-.26l.41,0-.18.23Z" transform="translate(-15.02 -1.36)"/><path class="cls-2" d="M17.56,9.33a1,1,0,0,1,.35-.62l.12,0a.57.57,0,0,1,.18.12.78.78,0,0,1,.15.22.61.61,0,0,0,.12.27s.06,0,.07,0c.11-.19-.07-.48-.2-.62l-.08-.07a1.24,1.24,0,0,1,.51.2c.15.1.25.3.42.38s.06,0,.06-.05a.69.69,0,0,0-.33-.45,2.45,2.45,0,0,1,.64.18c.21.09.38.35.6.39,0,0,.07,0,.07-.05,0-.28-.38-.44-.6-.54l-.07,0H20a2.52,2.52,0,0,1,.39.12c.24.11.39.35.62.45a.07.07,0,0,0,.08-.09c0-.23-.28-.37-.48-.48a2.08,2.08,0,0,1,.6.18,1.31,1.31,0,0,1,.32.25c.08.08.1.14.21.16a.06.06,0,0,0,.07-.06c0-.24-.32-.45-.5-.55h.15a1.23,1.23,0,0,1,.56.18.7.7,0,0,1,.22.26c.05.09.06.18.16.21s.05,0,.06,0c.16-.18-.15-.5-.28-.61a.08.08,0,0,0,0,0h.4a.92.92,0,0,1,.31.16c.14.11.16.29.28.41s.1,0,.12-.05-.11-.4-.24-.52h.12c.15.09.3.16.44.26s.26.33.43.4a.06.06,0,0,0,.09-.05c0-.22-.21-.38-.36-.5s-.1-.07-.15-.11l.44,0a1.23,1.23,0,0,1,.35.16c.17.12.25.33.42.44s.08,0,.08,0c0-.22-.17-.41-.34-.54h.35a.72.72,0,0,1,.39.19.83.83,0,0,1,.17.26c0,.1.05.19.14.24s.06,0,.08,0c.12-.18-.11-.52-.25-.63l0,0h.36a1.29,1.29,0,0,1,.32.19,1,1,0,0,1,.25.4.11.11,0,0,0,.09.07c.28,0-.06-.5-.12-.57l-.08-.08h.42a.72.72,0,0,1,.18.24c.05.11.05.3.16.37a0,0,0,0,0,.06,0c.12-.12,0-.36-.05-.48a.67.67,0,0,0-.06-.12h.34a1.12,1.12,0,0,1,.3.84,1.09,1.09,0,0,1-.26.53.18.18,0,0,0,0,.07s0,.07,0,.11h-.1a.1.1,0,0,0,0-.1,1.27,1.27,0,0,0-.55,0H23.08c-.85,0-1.69,0-2.54,0s-1.69-.07-2.52,0c0,0-.06,0-.1,0A.78.78,0,0,1,17.56,9.33Z" transform="translate(-15.02 -1.36)"/><path d="M17.91,36.51a.79.79,0,0,1,0-.13H18l-.05.14S17.91,36.53,17.91,36.51Z" transform="translate(-15.02 -1.36)"/><path class="cls-2" d="M17.65,35.85l.36,0a1.42,1.42,0,0,0-.08.18h-.36C17.6,36,17.62,35.92,17.65,35.85Z" transform="translate(-15.02 -1.36)"/><path class="cls-2" d="M17.91,41.7c0-.1,0-.19,0-.28h.35c0,.09,0,.19,0,.28Z" transform="translate(-15.02 -1.36)"/><path d="M17.82,8.68s0-.08,0-.1a.3.3,0,0,1,.29,0l0,0a1,1,0,0,1,.55.06,1.42,1.42,0,0,1,.86.07c-.44,0-.87,0-1.3,0H18l-.08.08Z" transform="translate(-15.02 -1.36)"/><path class="cls-2" d="M17.89,36.23a.76.76,0,0,0,0,.15h-.39c0-.06,0-.12.05-.19Z" transform="translate(-15.02 -1.36)"/><path class="cls-2" d="M17.8,42.5a2.07,2.07,0,0,1,0-.22h.38a1,1,0,0,0,0,.24Z" transform="translate(-15.02 -1.36)"/><path class="cls-2" d="M17.82,5.14h.45v.22h-.39C17.87,5.29,17.84,5.21,17.82,5.14Z" transform="translate(-15.02 -1.36)"/><path class="cls-2" d="M17.84,41l0,.24h-.44l0-.22Z" transform="translate(-15.02 -1.36)"/><path d="M17.8,42.5a.2.2,0,0,0,0,.07s-.06,0-.06,0V42.5Z" transform="translate(-15.02 -1.36)"/><path class="cls-2" d="M17.8,41.42a2.48,2.48,0,0,0,0,.27h-.44a2.6,2.6,0,0,1,0-.26Z" transform="translate(-15.02 -1.36)"/><path class="cls-2" d="M17.78,7.34a3.39,3.39,0,0,0-.37-1,17.61,17.61,0,0,0,2.05.06c1,0,2,0,2.94,0,1.82,0,3.64,0,5.46,0-.13.31-.2.66-.31,1s-.26.77-.35,1.17c-1.38,0-2.76-.08-4.13-.09H22v0l-.18-.43c0-.08-.16,0-.13,0a2,2,0,0,0,.17.43H21a.08.08,0,0,0,0-.09l0,0,.32,0a.26.26,0,0,0,.22.14s0,0,0,0-.1-.14-.15-.22a.63.63,0,0,1-.1-.3h.1s0-.08,0-.08h-.11a.06.06,0,0,0-.1,0l-.44,0s0-.1,0-.15a.06.06,0,1,0-.12,0,.76.76,0,0,0,0,.15h-.43a2.46,2.46,0,0,1-.07-.29,0,0,0,0,0-.05,0h0a9.6,9.6,0,0,0,1.08,0c.08,0,.08-.13,0-.13-.57,0-1.14,0-1.71,0h-.06v0c0-.06-.1,0-.09,0a4.46,4.46,0,0,0-.65-.07,3.18,3.18,0,0,0-.16-.32l1.08,0a9.43,9.43,0,0,0,1.68,0s0-.08,0-.08a8.33,8.33,0,0,0-1.66-.11,7.77,7.77,0,0,0-1.67,0,0,0,0,0,0,0,0,2.34,2.34,0,0,0,.45.07,3.57,3.57,0,0,0,.1.35.52.52,0,0,0-.23.07h0a.59.59,0,0,0,.31.13c0,.08.07.17.1.26l0,.08-.32,0c-.06,0-.08.12,0,.13l.4,0c0,.09.07.19.11.28a1.55,1.55,0,0,0-.31,0s0,.06,0,.06l.38.06.1.15-.93.05A1,1,0,0,0,18,8.11C17.91,7.86,17.84,7.6,17.78,7.34Z" transform="translate(-15.02 -1.36)"/><path d="M18.46,5.6h0a1,1,0,0,1,0,.24l.49,0a.53.53,0,0,1-.08-.25v0Zm-.53,0a.81.81,0,0,1,0,.22h.38a.93.93,0,0,1,0-.23Zm.34-.46h-.45c0,.07.05.15.07.23h.39Zm-.51.69,0-.23a2.21,2.21,0,0,1-.57-.11s0,0,0,0a2.35,2.35,0,0,1,.54-.1,1.94,1.94,0,0,0,0-.24A4.76,4.76,0,0,1,17,5.05C17,5,17,5,17,5c.73,0,1.47,0,2.2,0a14.61,14.61,0,0,1,1.87,0s.05.08,0,.09a10.59,10.59,0,0,1-2.18.11h-.52l0,.21.42,0V5.23a.07.07,0,0,1,.14,0V5.4h.45c0-.05.11-.06.13,0a8.53,8.53,0,0,1,1.68.06,0,0,0,0,1,0,.09,5.6,5.6,0,0,1-1.09.07s-.05.1-.09.06A.1.1,0,0,1,20,5.61h-.42l.06.15a.07.07,0,0,1-.07.09s0,0-.05,0a.4.4,0,0,1-.09-.22H19a.5.5,0,0,1,0,.27h.55A4.73,4.73,0,0,1,20.86,6s0,.07,0,.07a19.65,19.65,0,0,1-2,0c-.3,0-.62,0-.92,0a0,0,0,0,1,0,0,0,0,0,0,1-.09,0V6l-.46-.07a0,0,0,0,1,0-.07Z" transform="translate(-15.02 -1.36)"/><path d="M17.39,36.63h0Z" transform="translate(-15.02 -1.36)"/><path d="M17.36,36.59v-.2h.13c0,.07,0,.15,0,.22l0,0h0Z" transform="translate(-15.02 -1.36)"/><path d="M16.84,36.92c-.06,0-.07-.1,0-.1.62-.07,1.25,0,1.88,0a13,13,0,0,1,1.76,0s0,0,0,0a6.82,6.82,0,0,1-1.75.1C18.1,36.91,17.47,36.94,16.84,36.92Z" transform="translate(-15.02 -1.36)"/><path class="cls-2" d="M17.75,41.9a1.64,1.64,0,0,0,0,.23l-.45,0,0-.19Z" transform="translate(-15.02 -1.36)"/><path d="M19,35.93h-.41l-.06.14H19A.39.39,0,0,1,19,35.93Zm-1,.13h.39a.61.61,0,0,1,.07-.14l-.4,0a.19.19,0,0,0,0,.07A.42.42,0,0,0,18.07,36.06Zm1.09-.13-.07.14h.38l.1-.15Zm-1.15,0-.36,0c0,.07,0,.15-.08.22h.36A1.42,1.42,0,0,1,18,35.88Zm-.4-.52.21,0a2,2,0,0,1,.26-.25l-.15,0s0,0,0,0l.33-.05a1,1,0,0,1,.17-.1s.06,0,0,.07h0c.3,0,.61,0,.93,0a8,8,0,0,1,1.16.15s0,0,0,.06c-.49,0-1,0-1.48,0h-.81a1.88,1.88,0,0,0-.25.24c.43,0,.86,0,1.28,0a8.52,8.52,0,0,1,1.43.08,0,0,0,0,1,0,.08c-.54,0-1.09,0-1.63,0h-.68a1.88,1.88,0,0,0-.16.23h.44l.05-.06s.08,0,.06,0h0l.4,0h0a0,0,0,0,1,.06,0c.5,0,1,0,1.48,0,.07,0,.08.1,0,.1-.34,0-.69,0-1,0a.51.51,0,0,0-.09.16h.29L20,36s.11,0,.08,0l0,.05.77,0c.08,0,.09.13,0,.13h-.49l0,.07h-.1a.11.11,0,0,1,0-.06h-.24a.13.13,0,0,0,0,.06h-.12s0,0,0-.06h-.29a.14.14,0,0,1,0,.07H19.4s0,0,0-.07H19a.25.25,0,0,0,0,.08H19l0-.08h-.37a.34.34,0,0,0,0,.1h-.11a.31.31,0,0,1,0-.1l-.38,0,0,.13h-.12a.76.76,0,0,1,0-.15l-.35,0c0,.07,0,.13-.05.19h-.13l0-.21h-.07a.05.05,0,0,1,0-.1h.09a.92.92,0,0,1,.09-.23l-.11,0a0,0,0,0,1,0-.08h.16a1.67,1.67,0,0,1,.18-.28l-.13,0C17.56,35.42,17.56,35.36,17.61,35.36Zm.27.1a2.33,2.33,0,0,0-.17.26h.4l.18-.23Z" transform="translate(-15.02 -1.36)"/><path class="cls-2" d="M17.12,4c0-.16-.06-.33-.08-.49l.46,0a1.23,1.23,0,0,0,.1.44Z" transform="translate(-15.02 -1.36)"/><path class="cls-2" d="M17,2.84a5.44,5.44,0,0,0,.57,0,2.64,2.64,0,0,0-.06.51l-.46,0A3.68,3.68,0,0,1,17,2.84Z" transform="translate(-15.02 -1.36)"/><path class="cls-2" d="M16.82,41.69a2.28,2.28,0,0,0,0-.26h.39a2.11,2.11,0,0,0,0,.25Z" transform="translate(-15.02 -1.36)"/><path class="cls-2" d="M16.78,42.09c0-.06,0-.11,0-.17h.4a1.21,1.21,0,0,1,0,.19Z" transform="translate(-15.02 -1.36)"/><path class="cls-2" d="M20.06,11.75a.32.32,0,0,0,.14,0,0,0,0,0,0,0-.09l-.14,0-.12,0a.05.05,0,0,0,0,.1Zm5.39,10.46c0,3.44,0,6.88,0,10.32a.13.13,0,0,0,0,.09.79.79,0,0,0,.29.57.36.36,0,0,0,.44,0,.51.51,0,0,0,.22-.34.12.12,0,0,0,.06-.12c0-3.51-.08-7-.06-10.53,0-1.82.05-3.64.05-5.46,0-1.47.1-3,0-4.43.07-.12,0-.32-.06-.43a.41.41,0,0,0-.34-.25c-.2,0-.51.24-.47.47-.14,1.64,0,3.33-.07,5Zm-1.69,0c0,3.44,0,6.88,0,10.32a.12.12,0,0,0,0,.09.83.83,0,0,0,.29.57.36.36,0,0,0,.44,0,.56.56,0,0,0,.23-.34.14.14,0,0,0,.06-.12c0-3.51-.09-7-.07-10.53,0-1.82.05-3.64.05-5.46,0-1.47.11-3,0-4.43a.54.54,0,0,0-.05-.43.43.43,0,0,0-.35-.25c-.2,0-.51.24-.47.47-.14,1.64-.05,3.33-.07,5S23.79,20.49,23.76,22.21ZM20,11.5a.82.82,0,0,0,.35,0,0,0,0,0,0,0-.05.85.85,0,0,0-.32,0,1.45,1.45,0,0,0-.36,0,0,0,0,0,0,0,.09A1.22,1.22,0,0,0,20,11.5Zm2.23.56c-.14,1.64-.05,3.33-.06,5l-.06,5.17c0,3.44,0,6.88,0,10.32a.1.1,0,0,0,0,.09.76.76,0,0,0,.29.57.36.36,0,0,0,.44,0,.55.55,0,0,0,.22-.34.14.14,0,0,0,.06-.12c0-3.51-.08-7-.07-10.53,0-1.82,0-3.64,0-5.46,0-1.47.11-3,0-4.43a.59.59,0,0,0-.06-.43.42.42,0,0,0-.35-.25C22.47,11.58,22.16,11.83,22.2,12.06ZM19,33.36a.91.91,0,0,0-.61,0,0,0,0,0,0,0,.07,1.74,1.74,0,0,0,.6,0A0,0,0,0,0,19,33.36Zm1.27.58a6.44,6.44,0,0,0-1.86,0s0,0,0,0a8.18,8.18,0,0,0,1.85,0A0,0,0,1,0,20.23,33.94Zm-1.87-.26a7.72,7.72,0,0,0,1.52,0s0,0,0,0a5.6,5.6,0,0,0-1.53,0S18.32,33.67,18.36,33.68Zm.64-.49a.36.36,0,0,0,.44,0,.48.48,0,0,0,.22-.34.13.13,0,0,0,.07-.12c0-3.51-.09-7-.07-10.53,0-1.82.05-3.64.05-5.46,0-1.47.11-3,0-4.43a.54.54,0,0,0-.05-.43.42.42,0,0,0-.35-.25c-.2,0-.51.24-.47.47-.08.95-.09,1.91-.08,2.87v0c0,.46,0,.93,0,1.39h0a1.29,1.29,0,0,0,0,.48V17c0,1.73,0,3.45-.06,5.17q0,3.06,0,6.1a.33.33,0,0,0,0,.22h0v4a.12.12,0,0,0,0,.09A.79.79,0,0,0,19,33.19Zm1.65,1.07a7.79,7.79,0,0,0-2.26,0c-.05,0,0,.07,0,.07a7.78,7.78,0,0,0,2.26,0S20.68,34.27,20.65,34.26Zm0-23.71s0,0,0,0a18.11,18.11,0,0,0-2.21,0s0,0,0,0A9.61,9.61,0,0,0,20.68,10.55Zm0,.36s0,0,0,0a10.41,10.41,0,0,0-2.3,0s0,0,0,.05A10.23,10.23,0,0,0,20.66,10.91Zm0,.29a5.55,5.55,0,0,0-2.26,0c-.05,0,0,.07,0,.07.38,0,.75,0,1.12,0a8.67,8.67,0,0,0,1.14,0S20.69,11.21,20.67,11.2Zm.72,5.5c0-1.47.11-3,0-4.43a.64.64,0,0,0-.05-.43.43.43,0,0,0-.36-.25c-.19,0-.5.24-.46.47-.14,1.64-.06,3.33-.07,5l-.06,5.17c0,3.44,0,6.88,0,10.32a.13.13,0,0,0,0,.09.79.79,0,0,0,.29.57.36.36,0,0,0,.44,0,.51.51,0,0,0,.22-.34.12.12,0,0,0,.06-.12c0-3.51-.08-7-.07-10.53C21.35,20.34,21.39,18.52,21.39,16.7ZM17.27,35.47c.18-.4.52-.55.8-.85,0,0,0,0,0,0a.09.09,0,0,0,0-.07h0a2.81,2.81,0,0,0,.06-.65c0-.26,0-.51,0-.75,0-.57,0-1.15,0-1.72,0-2.38,0-4.76,0-7.13s-.07-4.7,0-7c0-1.18.07-2.36.08-3.55a19.85,19.85,0,0,0-.14-3.36v0a22,22,0,0,0,2.3.07h6.08a1.62,1.62,0,0,0,.66-.05.08.08,0,0,0,0,0h.1A39.88,39.88,0,0,0,27,16.63q0,3.27,0,6.54c0,2.19,0,4.38,0,6.57,0,.84-.07,1.68-.1,2.53a10.93,10.93,0,0,0,0,2.14.11.11,0,0,0,.05.09s0,.08,0,.12v0a.13.13,0,0,0,0,.06h-.22a.09.09,0,0,0-.09-.06l-3.95,0c-1.46,0-3-.17-4.42-.08a.08.08,0,0,0,0,.15c.35.05.7.08,1.06.11v.14c-.32,0-.63,0-.93,0h0s0-.08,0-.07a1,1,0,0,0-.17.1l-.33.05s0,0,0,0l.15,0a2,2,0,0,0-.26.25l-.21,0c-.05,0-.05.06,0,.07l.13,0a1.67,1.67,0,0,0-.18.28H17.4a0,0,0,0,0,0,.08l.11,0a.92.92,0,0,0-.09.23h-.09a.05.05,0,0,0,0,.1h.07l0,.21-.27,0a1.13,1.13,0,0,0,0-.32A1.63,1.63,0,0,1,17.27,35.47Z" transform="translate(-15.02 -1.36)"/><path class="cls-2" d="M20,6.12c-1,0-2-.06-3-.07a1.52,1.52,0,0,1-.27-.52c-.07-.23-.06-.48-.11-.72.87.05,1.76,0,2.63,0,1.15,0,2.3,0,3.46,0,1.95,0,3.93.11,5.89,0,0,.19,0,.39,0,.57a1.5,1.5,0,0,1-.11.36,1.11,1.11,0,0,0-.12.3h0c-1.83.14-3.67.06-5.51,0C21.83,6.1,20.91,6.11,20,6.12Zm-2.26-.51,0,.23h-.42a0,0,0,0,0,0,.07L17.8,6V6a0,0,0,0,0,.09,0,0,0,0,0,0,0,0c.3,0,.62,0,.92,0a19.65,19.65,0,0,0,2,0s0-.07,0-.07a4.73,4.73,0,0,0-1.25-.09v0a.07.07,0,0,0,.07-.09l-.06-.15H20a.1.1,0,0,0,.05.06s.09,0,.09-.06a5.6,5.6,0,0,0,1.09-.07,0,0,0,0,0,0-.09,8.53,8.53,0,0,0-1.68-.06s-.1,0-.13,0H19V5.23a.07.07,0,0,0-.07-.07h0a10.59,10.59,0,0,0,2.18-.11c.05,0,0-.08,0-.09a14.61,14.61,0,0,0-1.87,0c-.73,0-1.47-.08-2.2,0C17,5,17,5,17,5.05a4.76,4.76,0,0,0,.66.09,1.94,1.94,0,0,1,0,.24,2.35,2.35,0,0,0-.54.1s0,0,0,0A2.21,2.21,0,0,0,17.73,5.61Z" transform="translate(-15.02 -1.36)"/><path class="cls-2" d="M16.87,40.88c0-.1,0-.2,0-.29h.48s0,0,0,0l0,.27Z" transform="translate(-15.02 -1.36)"/><path class="cls-2" d="M16.85,41.25V41h.41a1.8,1.8,0,0,1,0,.22Z" transform="translate(-15.02 -1.36)"/><path class="cls-2" d="M17.73,42.5h-1a1,1,0,0,0,0-.17h.44s0,.05,0,.08a0,0,0,0,0,0,0s0-.06,0-.08h.48Z" transform="translate(-15.02 -1.36)"/><path d="M16.73,42.49h0Z" transform="translate(-15.02 -1.36)"/><path class="cls-2" d="M16.69,41a1.7,1.7,0,0,1,0,.22h-.41c0-.08,0-.16,0-.23Z" transform="translate(-15.02 -1.36)"/><path d="M18.61,37.52c-.63,0-1.29,0-1.92-.06a0,0,0,0,1,0-.07,14.1,14.1,0,0,1,1.95,0c.65,0,1.3,0,1.94,0,.06,0,.07.11,0,.11C19.92,37.58,19.26,37.53,18.61,37.52Z" transform="translate(-15.02 -1.36)"/><g class="cls-3"><path d="M19.71,3.54c0,.1.06.21.09.31s0,.09,0,.14l.43,0a.29.29,0,0,1,0-.09,1.83,1.83,0,0,1,0-.33Zm-2.16-.67a5.44,5.44,0,0,1-.57,0,3.68,3.68,0,0,0,.05.58l.46,0A2.64,2.64,0,0,1,17.55,2.87ZM17,3.52c0,.16.05.33.08.49l.48,0a1.23,1.23,0,0,1-.1-.44Zm1.32.1c0,.13.08.25.12.37h.45a1.83,1.83,0,0,1-.05-.47h-.54A.19.19,0,0,0,18.36,3.62ZM19,3.53l0,.2a2.76,2.76,0,0,0,.08.27h.48a.52.52,0,0,1,0-.11,1.51,1.51,0,0,1-.06-.36H19ZM20.51,4,21,4a.14.14,0,0,0,0-.07,2.08,2.08,0,0,1-.05-.36h-.52a3.4,3.4,0,0,0,.07.34A.33.33,0,0,0,20.51,4Zm-2.13.29a10.07,10.07,0,0,1-1.23,0s0,.1,0,.14-.06.08-.08,0L17,4.22l-.33,0c-.05,0,0-.09,0-.1a1.9,1.9,0,0,1,.25,0,2.62,2.62,0,0,1-.12-.54l-.13,0s0,0,0,0h.11a4.3,4.3,0,0,1,0-.62l-.19,0s-.05-.09,0-.09l.21,0A2.42,2.42,0,0,1,17,2.2c-.13,0-.26,0-.38-.06s0-.09,0-.09A3.55,3.55,0,0,1,17,2V2a0,0,0,0,1,0,0V2c.69,0,1.39,0,2.07,0a15.77,15.77,0,0,1,2.38.05,0,0,0,0,1,0,.08c-.84.06-1.7,0-2.55,0-.63,0-1.3.06-1.94,0a2.5,2.5,0,0,0-.05.47c.79-.08,1.61,0,2.39-.06a9.09,9.09,0,0,1,2,0,0,0,0,0,1,0,.05A15.49,15.49,0,0,1,19,2.8l-.75,0h0a2.79,2.79,0,0,0,0,.5h.57c0-.08,0-.16,0-.23S19,3,19,3.11v.22h.05l1.18-.05a.09.09,0,0,1,0,0c0-.08.11-.06.12,0v0H21a.07.07,0,0,1,.11,0l.43.06c.08,0,.06.14,0,.15l-.36,0c0,.1.05.21.08.31l.06.14.33.07c.05,0,.05.09,0,.11l-.3.05v0a.05.05,0,0,1-.05,0l-.09,0H20.6a.25.25,0,0,1,0,.08.05.05,0,0,1-.07,0,.23.23,0,0,1-.16-.13H19.9a.43.43,0,0,1,0,.16s-.06.06-.09,0a.46.46,0,0,1-.13-.2h-.47l0,.13c0,.06-.06.11-.1.06A.8.8,0,0,1,19,4.24h-.48s0,0,0,0a.06.06,0,0,1-.08,0A.6.6,0,0,1,18.38,4.25Zm-.72-.88h.47a2.51,2.51,0,0,1,.05-.51h-.53A2.88,2.88,0,0,0,17.66,3.37Zm0,.17c0,.15.1.3.15.44h.39a1.63,1.63,0,0,1-.09-.45Z" transform="translate(-15.02 -1.36)"/></g><path class="cls-2" d="M16.84,36.82c-.07,0-.06.09,0,.1.63,0,1.26,0,1.89,0a6.82,6.82,0,0,0,1.75-.1s0,0,0,0a13,13,0,0,0-1.76,0C18.09,36.79,17.46,36.75,16.84,36.82Zm3.8.85a37.59,37.59,0,0,0-4-.05s0,0,0,.05a32.9,32.9,0,0,0,4,.1A.05.05,0,1,0,20.64,37.67Zm-3.89-.57a0,0,0,1,0,0,.08,30.3,30.3,0,0,0,3.69,0,0,0,0,0,0,0-.08A28.39,28.39,0,0,0,16.75,37.1Zm1.88.29a14.1,14.1,0,0,0-1.95,0,0,0,0,0,0,0,.07c.63.06,1.29,0,1.92.06s1.31.06,2,0c.07,0,.06-.1,0-.11C19.93,37.39,19.28,37.4,18.63,37.39Zm-1.21-.76c1.74,0,3.5-.1,5.24-.09l6,.09c.07.24.18.45.23.69s0,.47.09.64h0c-2.05,0-4.09-.06-6.13,0s-4.33-.19-6.48-.08a.07.07,0,0,0,0,0,1.76,1.76,0,0,1,.05-.72c.05-.16.13-.32.17-.49l.81,0Z" transform="translate(-15.02 -1.36)"/><path class="cls-2" d="M16.79,39.69a2.11,2.11,0,0,0,0,.25h-.48v-.26Z" transform="translate(-15.02 -1.36)"/><path class="cls-2" d="M16.75,40.13a2.45,2.45,0,0,1,0,.27h-.44v-.29Z" transform="translate(-15.02 -1.36)"/><path class="cls-2" d="M16.72,40.59c0,.09,0,.19,0,.29h-.42c0-.1,0-.2,0-.3Z" transform="translate(-15.02 -1.36)"/><path class="cls-2" d="M16.27,41.43h.41c0,.09,0,.18,0,.26l-.42,0A2.64,2.64,0,0,1,16.27,41.43Z" transform="translate(-15.02 -1.36)"/><path class="cls-2" d="M16.23,41.91h.44v.17l-.46,0A1.49,1.49,0,0,0,16.23,41.91Z" transform="translate(-15.02 -1.36)"/><path class="cls-2" d="M16.68,42.31v.17a0,0,0,0,0,0,0l-.53,0,0-.2Z" transform="translate(-15.02 -1.36)"/><path d="M16.11,42.63v-.12h.05a.5.5,0,0,1,0,.12A0,0,0,0,1,16.11,42.63Z" transform="translate(-15.02 -1.36)"/><g class="cls-4"><path class="cls-2" d="M22.48,3.68a.07.07,0,0,0-.12,0,.48.48,0,0,0,.09.27.09.09,0,0,0,.16-.06A.58.58,0,0,0,22.48,3.68Zm-.3.21a1.23,1.23,0,0,0,0-.2c0-.11-.17-.09-.17,0a1.37,1.37,0,0,0,0,.19A.07.07,0,0,0,22.18,3.89Zm-.58-.37a.86.86,0,0,0,0,.55c.07.09.2,0,.18-.09s0-.14,0-.21l0-.24C21.73,3.45,21.62,3.43,21.6,3.52ZM19.17,4.59c-1,0-2.07-.07-3.09,0a.08.08,0,0,0,0-.08,1.63,1.63,0,0,1-.42-1c0-.3,0-.61,0-.91a2.5,2.5,0,0,1,.12-.45,1.48,1.48,0,0,1,.49-.56c1,0,2,0,3,0l3.24,0c2.15,0,4.29,0,6.45,0a1.08,1.08,0,0,1,.5.38,1.8,1.8,0,0,1,.17.54,5.63,5.63,0,0,0,0,.58,5.87,5.87,0,0,0,0,.84,2.23,2.23,0,0,1-.15.31c-.06.11-.2.18-.22.32h0c-2.23,0-4.46,0-6.69,0ZM17,2.2c.64,0,1.31,0,1.94,0,.85,0,1.71,0,2.55,0a0,0,0,0,0,0-.08A15.77,15.77,0,0,0,19.14,2c-.68,0-1.38,0-2.07,0V2a0,0,0,0,0,0,0V2a3.55,3.55,0,0,0-.46,0s0,.09,0,.09.25,0,.38.06a2.42,2.42,0,0,0-.13.48l-.21,0c-.05,0,0,.08,0,.09l.19,0a4.3,4.3,0,0,0,0,.62h-.11s0,0,0,0l.13,0a2.62,2.62,0,0,0,.12.54,1.9,1.9,0,0,0-.25,0c-.05,0-.06.09,0,.1l.33,0,.09.18s.09,0,.08,0,0-.09,0-.14a10.07,10.07,0,0,0,1.23,0,.6.6,0,0,0,.08.08.06.06,0,0,0,.08,0s0,0,0,0H19a.8.8,0,0,0,.13.19c0,.05.11,0,.1-.06l0-.13h.47a.46.46,0,0,0,.13.2s.08,0,.09,0a.43.43,0,0,0,0-.16h.46a.23.23,0,0,0,.16.13.05.05,0,0,0,.07,0,.25.25,0,0,0,0-.08h.54l.09,0a.05.05,0,0,0,.05,0v0l.3-.05c.05,0,.05-.1,0-.11L21.26,4l-.06-.14c0-.1-.06-.21-.08-.31l.36,0c.08,0,.1-.13,0-.15l-.43-.06a.07.07,0,0,0-.11,0h-.58v0c0-.07-.11-.09-.12,0a.09.09,0,0,0,0,0l-1.18.05H19V3.11c0-.07-.11-.07-.12,0s0,.15,0,.23h-.57a2.79,2.79,0,0,1,0-.5h0l.75,0a15.49,15.49,0,0,0,2.36-.12,0,0,0,0,0,0-.05,9.09,9.09,0,0,0-2,0c-.78,0-1.6,0-2.39.06A2.5,2.5,0,0,1,17,2.2Z" transform="translate(-15.02 -1.36)"/></g><path d="M20,41.88c0,.08,0,.17,0,.25v.1h.31s0-.09,0-.13a1.49,1.49,0,0,1,0-.21Zm-.15.17c0-.06,0-.11,0-.17h-.44V42c0,.08,0,.17,0,.26h.39A1.24,1.24,0,0,0,19.84,42.05Zm-3-1.17h.42l0-.27s0,0,0,0h-.48C16.88,40.68,16.87,40.78,16.87,40.88Zm1.56.54a2.81,2.81,0,0,1,0,.29h.36l0-.29h-.38Zm0,.46c0,.1,0,.2,0,.3h.13l.23,0c0-.11,0-.22,0-.33Zm-1.74,0h-.44a1.49,1.49,0,0,1,0,.21l.46,0Zm0-.49h-.41a2.64,2.64,0,0,0,0,.28l.42,0C16.67,41.61,16.68,41.52,16.68,41.43Zm2.57.44h-.32c0,.11,0,.22,0,.33h.34A1.93,1.93,0,0,1,19.25,41.87Zm.05-.42h-.36a2.53,2.53,0,0,0,0,.28h.33A2.36,2.36,0,0,1,19.3,41.45Zm1.61.43h-.43a2.46,2.46,0,0,0,0,.28v.06h.41A1.08,1.08,0,0,1,20.91,41.88ZM18,41a1.94,1.94,0,0,0,0,.24h.35c0-.08,0-.17,0-.25H18Zm0,.39c0,.09,0,.18,0,.28h.33c0-.09,0-.19,0-.28Zm-.07.72.35,0a2.44,2.44,0,0,1,0-.27h-.33Zm-1-1.1v.21h.4a1.8,1.8,0,0,0,0-.22Zm0,.39a2.28,2.28,0,0,1,0,.26h.39a2.11,2.11,0,0,1,0-.25Zm.36.48h-.4c0,.06,0,.11,0,.17h.41A1.21,1.21,0,0,0,17.2,41.91Zm-.43-2a2.11,2.11,0,0,1,0-.25h-.5v.26Zm0,.46a2.45,2.45,0,0,0,0-.27h-.46v.29Zm0,.48c0-.1,0-.2,0-.29h-.43c0,.1,0,.2,0,.3Zm0,.38a1.7,1.7,0,0,0,0-.22h-.41c0,.07,0,.15,0,.23Zm.69,0h.44l0-.24h-.45Zm0,.42h.44a2.48,2.48,0,0,1,0-.27h-.44A2.6,2.6,0,0,0,17.33,41.68Zm1.28-2-1.76,0c0,.08,0,.17,0,.25l1.48.05c.81,0,1.61,0,2.42,0,.08,0,.1.14,0,.14-.82,0-1.64,0-2.45,0-.49,0-1,0-1.46,0v.27c.48,0,1,0,1.42,0l2.56.05c.08,0,.1.13,0,.13-.81,0-1.61,0-2.42,0H17.4a.07.07,0,0,1,0,.06l0,.25h.45v-.09c0-.08.13-.06.12,0a.22.22,0,0,0,0,.08h.56c.8,0,1.62-.07,2.42,0a.05.05,0,1,1,0,.1c-.83.06-1.67,0-2.51,0v0c0,.07,0,.15,0,.24h.95a14.41,14.41,0,0,1,1.62.08c.07,0,.07.13,0,.13l-1.59-.06v.28h.46a.49.49,0,0,1,0-.12c0-.08.13-.06.12,0a.34.34,0,0,1,0,.1h.35v-.09c0-.1.18-.09.16,0s0,.05,0,.08h.16a1.4,1.4,0,0,1,.29,0v0c0-.1.16,0,.14.05h0s0,0,0,0,0,.07,0,0h0a2.91,2.91,0,0,0,0,.31.09.09,0,0,1,0,0h0c.05,0,.05.09,0,.09h0s0,.09,0,.11,0,.09-.07,0a.46.46,0,0,1-.07-.16h-.42a.66.66,0,0,1-.06.25h-.07a.51.51,0,0,1,0-.25H20a.54.54,0,0,1,0,.22s0,0-.06,0a.54.54,0,0,1,0-.22h-.4a.52.52,0,0,1,0,.18,0,0,0,0,1-.08,0,1,1,0,0,1,0-.18h-.35l0,.24h-.11c0-.08,0-.16,0-.24h-.38a2,2,0,0,1-.05.24h-.07a1,1,0,0,1,0-.24h-.38a2.07,2.07,0,0,0,0,.22h-.07v-.21h-.48s0,.05,0,.08a0,0,0,0,1,0,0s0-.06,0-.08h-.44a1,1,0,0,1,0,.17h0a0,0,0,0,1,0,0v-.17h-.49l0,.2h-.05a1.48,1.48,0,0,1,0-.21l-.46,0a0,0,0,0,1,0,0,3.94,3.94,0,0,1,.47-.1v-.23l-.46,0c-.05,0-.06-.08,0-.09l.48-.06c0-.11,0-.21,0-.31l-.56,0s0,0,0,0l.56-.06c0-.08,0-.17,0-.25L15.6,41s0,0,0,0l.54,0v-.31a5.44,5.44,0,0,1-.57,0c-.05,0-.06-.07,0-.08l.6-.06a2.81,2.81,0,0,1,0-.29l-.57,0c-.06,0,0-.1,0-.1a5.25,5.25,0,0,1,.56,0v-.28l-.53,0c-.07,0-.06-.12,0-.12h.53c0-.11,0-.22,0-.32l-.52,0s-.05-.08,0-.08a4.53,4.53,0,0,1,.53-.05c0-.08,0-.17,0-.25a2,2,0,0,1-.49,0s0,0,0,0a1.41,1.41,0,0,1,.51-.11v-.14h0l-.52,0s0-.06,0-.06c1.71-.22,3.46.06,5.17,0,.09,0,.1.13,0,.13-.88.06-1.75,0-2.63,0-.65,0-1.3,0-1.95,0h0v.14h.41c.48,0,1,0,1.44,0,.92,0,1.83.07,2.75.1.08,0,.06.13,0,.13-.92,0-1.83,0-2.75-.1-.43,0-.86,0-1.28,0l-.55,0v.25c.75,0,1.51,0,2.26.07.56,0,1.12.05,1.69,0a1.56,1.56,0,0,1,.61,0c.05,0,.05.07,0,.09a2.11,2.11,0,0,1-.71,0l-1.26,0c-.86,0-1.73,0-2.59-.06v.32c.83,0,1.67,0,2.5,0l1.38,0a2.72,2.72,0,0,1,.7,0c.05,0,.07.1,0,.12a4.28,4.28,0,0,1-.8,0Zm-.88,2.42a1.64,1.64,0,0,1,0-.23H17.3l0,.19Z" transform="translate(-15.02 -1.36)"/><path class="cls-2" d="M22.75,42.23c0-.11-.16-.12-.16,0s0,.17.07.2a.06.06,0,0,0,.08,0A.33.33,0,0,0,22.75,42.23Zm.38.19c0-.1-.15-.1-.14,0s0,.07.06.08S23.13,42.46,23.13,42.42Zm-1-.34c0,.12,0,.29.16.31a.07.07,0,0,0,.07-.09c0-.07-.08-.12-.08-.21a.1.1,0,0,0-.07-.09A.09.09,0,0,0,22.11,42.08Zm-.4.19c0,.06.05.13.11.13h.06l0,0h0l.05,0a0,0,0,0,0,0-.07h0a.14.14,0,0,1,0-.06,1.1,1.1,0,0,1,0-.18c0-.09-.13-.1-.15,0A1.64,1.64,0,0,0,21.71,42.27Zm-.17-.45a.07.07,0,1,0-.14,0c0,.15,0,.29,0,.43s0,.21,0,.3.05,0,.07,0,.06-.15.07-.24S21.54,42,21.54,41.82Zm-3-2.7c-.75,0-1.51-.1-2.26-.07V38.8l.55,0c.42,0,.85,0,1.28,0,.92,0,1.83.06,2.75.1.08,0,.1-.12,0-.13-.92,0-1.83-.05-2.75-.1-.48,0-1,0-1.44,0h-.41v-.14h0c.65,0,1.3,0,1.95,0,.88,0,1.75,0,2.63,0,.08,0,.07-.13,0-.13-1.71.1-3.46-.18-5.17,0,0,0,0,.06,0,.06l.52,0h0v.14a1.41,1.41,0,0,0-.51.11s0,0,0,0a2,2,0,0,0,.49,0c0,.08,0,.17,0,.25a4.53,4.53,0,0,0-.53.05s0,.07,0,.08l.52,0c0,.1,0,.21,0,.32h-.53c-.07,0-.08.12,0,.12l.53,0V40a5.25,5.25,0,0,0-.56,0s-.07.09,0,.1l.57,0a2.81,2.81,0,0,0,0,.29l-.6.06s0,.08,0,.08a5.44,5.44,0,0,0,.57,0v.31l-.54,0s0,0,0,0l.53.05c0,.08,0,.17,0,.25l-.56.06s0,0,0,0l.56,0c0,.1,0,.2,0,.31l-.48.06c-.05,0,0,.08,0,.09l.46,0v.23a3.94,3.94,0,0,0-.47.1,0,0,0,0,0,0,0l.46,0a1.48,1.48,0,0,0,0,.21,6.82,6.82,0,0,0-.79.08,12.65,12.65,0,0,0-.05-2.22,8.19,8.19,0,0,1,0-1.4c0-.29.19-.6.21-.89q7,.11,14.07.13c0,.1.07.2.09.29a2.45,2.45,0,0,0,.11.41,12.94,12.94,0,0,0-.05,1.76c0,.63,0,1.26,0,1.88H29.7a64.55,64.55,0,0,1-7.49.08l-1.81-.06a.66.66,0,0,0,.06-.25h.42a.46.46,0,0,0,.07.16s.08,0,.07,0,0-.06,0-.11h0c.06,0,.06-.09,0-.09h0a.09.09,0,0,0,0,0,2.91,2.91,0,0,1,0-.31h0s.06,0,0,0,0,0,0,0h0c0-.1-.11-.15-.14-.05v0a1.4,1.4,0,0,0-.29,0H20.5s0-.05,0-.08-.14-.11-.16,0v.09H20a.34.34,0,0,0,0-.1c0-.08-.11-.1-.12,0a.49.49,0,0,0,0,.12h-.46v-.28l1.59.06c.07,0,.07-.12,0-.13a14.41,14.41,0,0,0-1.62-.08h-.95c0-.09,0-.17,0-.24v0c.84,0,1.68,0,2.51,0a.05.05,0,1,0,0-.1c-.8,0-1.62,0-2.42,0H18a.15.15,0,0,1,0-.07c0-.09-.11-.11-.12,0v.09h-.45l0-.25a.07.07,0,0,0,0-.06h1.06c.81,0,1.61,0,2.42,0,.08,0,.06-.13,0-.13l-2.56-.05c-.46,0-.94,0-1.42,0v-.27c.48,0,1,0,1.46,0,.81,0,1.63,0,2.45,0,.08,0,.06-.14,0-.14-.81,0-1.61,0-2.42,0l-1.48-.05c0-.08,0-.17,0-.25l1.76,0,1.46,0a4.28,4.28,0,0,0,.8,0c.06,0,0-.11,0-.12a2.72,2.72,0,0,0-.7,0l-1.38,0c-.83,0-1.67,0-2.5,0V39.2c.86,0,1.73,0,2.59.06l1.26,0a2.11,2.11,0,0,0,.71,0c.05,0,.05-.08,0-.09a1.56,1.56,0,0,0-.61,0C19.66,39.17,19.1,39.14,18.54,39.12Z" transform="translate(-15.02 -1.36)"/><g class="cls-5"><path d="M22.48,1.64l-3.24,0c-1,0-2,0-3,0a1.48,1.48,0,0,0-.49.56,2.5,2.5,0,0,0-.12.45c.05.3,0,.61,0,.91a1.63,1.63,0,0,0,.42,1,.08.08,0,0,1,0,.08c1-.1,2.07,0,3.09,0l3.33,0c2.23,0,4.46.09,6.69,0h0c0-.14.16-.21.22-.32A2.23,2.23,0,0,0,29.56,4a5.87,5.87,0,0,1,0-.84,5.63,5.63,0,0,1,0-.58A1.8,1.8,0,0,0,29.43,2a1.08,1.08,0,0,0-.5-.38C26.77,1.64,24.63,1.68,22.48,1.64Zm-5.8,3.89a1.52,1.52,0,0,0,.27.52c1,0,2,.08,3,.07s1.84,0,2.76,0c1.84,0,3.68.11,5.51,0h0a1.11,1.11,0,0,1,.12-.3,1.5,1.5,0,0,0,.11-.36c0-.18,0-.38,0-.57-2,.07-3.94,0-5.89,0-1.16,0-2.31,0-3.46,0-.87,0-1.76,0-2.63,0C16.62,5.05,16.61,5.3,16.68,5.53Zm.73.76a3.39,3.39,0,0,1,.37,1c.06.26.13.52.2.77a1,1,0,0,1,.08.35L19,8.41h0s0,0,.05,0h0c.62,0,1.25,0,1.87,0h.89v0a.08.08,0,0,0,.06,0l.05,0s0,0,0,0h1.12c1.37,0,2.75.06,4.13.09.09-.4.23-.79.35-1.17s.18-.68.31-1c-1.82,0-3.64,0-5.46,0-1,0-1.95,0-2.94,0A17.61,17.61,0,0,1,17.41,6.29Zm1.06,36.53c-1.07,0-2.15,0-3.22,0h0a.11.11,0,0,1-.11-.06A4.41,4.41,0,0,1,15,41.47c0-.47,0-.94,0-1.41s-.06-1.64.4-2.05a.06.06,0,0,1,.06-.08l.63-.06h0a1.44,1.44,0,0,1,.31-1.27.09.09,0,0,1,0-.16l.44,0c-.19-.27,0-.84.14-1.09a1.44,1.44,0,0,1,.87-.77l0,0a3.74,3.74,0,0,1-.1-1.25c0-.62,0-1.24,0-1.87,0-2.46,0-4.93,0-7.39,0-2.26-.05-4.52,0-6.78,0-1.24.09-2.49.1-3.74,0-1.05-.06-2.09-.06-3.14a1.08,1.08,0,0,1,0-1.81.08.08,0,0,1,0-.07,3.62,3.62,0,0,1-.26-1c-.07-.26-.13-.52-.22-.77a2.13,2.13,0,0,1-.15-.49l-.25,0s-.11.08-.16,0a1.75,1.75,0,0,1-.41-1.44c-.16,0-.32,0-.48,0a.07.07,0,0,1,0-.12,2.06,2.06,0,0,1-.43-1.9c-.07-.56.26-1.27.83-1.3h0a24.59,24.59,0,0,1,3.09-.09l3.3,0c2.07,0,4.16,0,6.23,0l.07,0c.53,0,.91.67.8,1.2,0,.21,0,.42,0,.62a2.58,2.58,0,0,1-.07.88s0,0-.05,0a.7.7,0,0,1-.08.2.7.7,0,0,1-.25.29.1.1,0,0,1-.09.15l-.54,0a1.32,1.32,0,0,1,0,.71c0,.2-.13.52-.34.6,0,.06,0,.15-.09.15H28a4,4,0,0,1-.22.92c-.14.43-.26.87-.41,1.29a1.06,1.06,0,0,1,.48.89c0,.24-.12.8-.43.87,0,1.1-.1,2.19-.13,3.28s0,2.16,0,3.24q0,3.26,0,6.53c0,3.68.06,7.36-.13,11a.14.14,0,0,1-.06.12v.06a1.06,1.06,0,0,1,.88.53,1.77,1.77,0,0,1,.22,1.19.15.15,0,0,1-.12.12h0l.52,0a.06.06,0,0,1,.07,0h0l.05.05a1.46,1.46,0,0,1,.34.77c0,.19.13.56,0,.7h.6c.08,0,.11.08.09.15a1.17,1.17,0,0,1,.15.32,1,1,0,0,1,.07.46L30,39a7.86,7.86,0,0,1,0,1.75c0,.65,0,1.3,0,1.95,0,.09-.1.12-.17.1a.13.13,0,0,1-.12.09,58.35,58.35,0,0,1-7.48.09Zm-.74-.25s.05,0,.06,0a.2.2,0,0,1,0-.07l.45,0a0,0,0,0,0,.07,0h.45l0,.07s.07,0,.08,0v-.07l1.45,0s.05,0,.07,0l1.81.06a64.55,64.55,0,0,0,7.49-.08h.05c0-.62,0-1.25,0-1.88a12.94,12.94,0,0,1,.05-1.76,2.45,2.45,0,0,1-.11-.41c0-.09-.07-.19-.09-.29q-7,0-14.07-.13c0,.29-.17.6-.21.89a8.19,8.19,0,0,0,0,1.4,12.65,12.65,0,0,1,.05,2.22,6.82,6.82,0,0,1,.79-.08v.12a0,0,0,0,0,0,0,.5.5,0,0,0,0-.12l.53,0h1Zm4.93-6c-1.74,0-3.5.12-5.24.09l0,0c0-.07,0-.15,0-.22h.39a.79.79,0,0,0,0,.13s0,0,0,0l.05-.14h.42a.26.26,0,0,0,0,.09h0s0-.06,0-.09H19s0,0,0,0a0,0,0,0,0,.05,0v0h.38a.2.2,0,0,0,0,.11,0,0,0,0,0,0,0,.31.31,0,0,0,.05-.12h.29a.16.16,0,0,0,0,.09h0a.13.13,0,0,0,.06-.1h.23a.07.07,0,0,0,0,.05s0,0,0,0a.27.27,0,0,0,.07-.08h2.56l3.1,0c.67,0,1.35,0,2,0,0,0,0,0,0,0a.24.24,0,0,1,0-.08v0s0,0,0-.07a1.37,1.37,0,0,0-.18-.93c-.21-.32-.48-.36-.76-.55l0,0a.13.13,0,0,1,0-.06v0s0-.08,0-.12a.11.11,0,0,1-.05-.09,10.93,10.93,0,0,1,0-2.14c0-.85.1-1.69.1-2.53,0-2.19,0-4.38,0-6.57s0-4.36,0-6.54a39.88,39.88,0,0,1,.23-6.37s0-.07,0-.11a.18.18,0,0,1,0-.07,1.09,1.09,0,0,0,.26-.53,1.12,1.12,0,0,0-.3-.84h-.34a.47.47,0,0,0-.34-.21,0,0,0,0,0,0,.08l.09.13h-.42a.7.7,0,0,0-.53-.18c-.06,0-.06.1,0,.13l.08,0H25.4a.76.76,0,0,0-.68-.14c-.06,0,0,.09,0,.1l.16,0h-.35l0,0a.88.88,0,0,0-.7-.17c-.06,0-.05.1,0,.12l.23.07-.44,0a1,1,0,0,0-.47-.14.06.06,0,0,0,0,.11l.05,0H23a.69.69,0,0,0-.63-.17c-.06,0-.05.1,0,.12l.17.05h-.4a.72.72,0,0,0-.69-.11.08.08,0,0,0,0,.13h-.14a1.07,1.07,0,0,0-.82-.12.05.05,0,0,0,0,.06,1.65,1.65,0,0,0-.88-.09c-.06,0,0,.11,0,.11a1.52,1.52,0,0,1,.42.06h-.44a1.42,1.42,0,0,0-.86-.07,1,1,0,0,0-.55-.06l0,0a.3.3,0,0,0-.29,0s0,.08,0,.1l.09,0a1,1,0,0,0-.35.62.78.78,0,0,0,.36.75s.08,0,.1,0c.83,0,1.69,0,2.52,0s1.69,0,2.54,0h3.48a1.27,1.27,0,0,1,.55,0,.1.1,0,0,1,0,.1.08.08,0,0,1,0,0,1.62,1.62,0,0,1-.66.05H20.37a22,22,0,0,1-2.3-.07v0a19.85,19.85,0,0,1,.14,3.36c0,1.19-.05,2.37-.08,3.55-.06,2.34,0,4.69,0,7s0,4.75,0,7.13c0,.57,0,1.15,0,1.72,0,.24,0,.49,0,.75a2.81,2.81,0,0,1-.06.65h0a.09.09,0,0,1,0,.07s0,0,0,0c-.28.3-.62.45-.8.85a1.63,1.63,0,0,0-.17.62,1.13,1.13,0,0,1,0,.32l.27,0v.2l0,0-.81,0c0,.17-.12.33-.17.49a1.76,1.76,0,0,0-.05.72.07.07,0,0,1,0,0c2.15-.11,4.33.11,6.48.08s4.08,0,6.13,0h0c-.12-.17-.05-.44-.09-.64s-.16-.45-.23-.69Z" transform="translate(-15.02 -1.36)"/></g></g></svg>