<svg id="Layer_1" data-name="Layer 1" xmlns="http://www.w3.org/2000/svg" xmlns:xlink="http://www.w3.org/1999/xlink" viewBox="0 0 8.81 19.1"><defs><style>.cls-1{fill:none;}.cls-2{fill:#ff66c4;}.cls-3{clip-path:url(#clip-path);}.cls-4{clip-path:url(#clip-path-2);}</style><clipPath id="clip-path" transform="translate(-19.57 -17.34)"><rect class="cls-1" x="19.57" y="17.34" width="8.82" height="1.66"/></clipPath><clipPath id="clip-path-2" transform="translate(-19.57 -17.34)"><rect class="cls-1" x="19.57" y="34" width="8.82" height="2.44"/></clipPath></defs><g id="surface1"><path class="cls-2" d="M27.28,19.17v-.23a.18.18,0,0,0-.17-.18H20.85a.18.18,0,0,0-.18.18v.23a.18.18,0,0,0,.18.18h6.26a.18.18,0,0,0,.17-.18" transform="translate(-19.57 -17.34)"/><g class="cls-3"><path class="cls-2" d="M28,17.34H19.91a.35.35,0,0,0-.34.35v.45a.34.34,0,0,0,.34.35H28a.34.34,0,0,0,.34-.35v-.45a.35.35,0,0,0-.34-.35" transform="translate(-19.57 -17.34)"/></g><g class="cls-4"><path class="cls-2" d="M27.9,34.5H20.05a.49.49,0,0,0-.48.5v1.44h8.81V35a.49.49,0,0,0-.48-.5" transform="translate(-19.57 -17.34)"/></g><path class="cls-2" d="M26.5,33.07V19.62h-5V33.07h5" transform="translate(-19.57 -17.34)"/><path class="cls-2" d="M27.46,34.24c-.34,0-.61-.4-.61-.91H21.1c0,.51-.27.91-.6.91h7" transform="translate(-19.57 -17.34)"/></g></svg>