<svg id="Layer_1" data-name="Layer 1" xmlns="http://www.w3.org/2000/svg" viewBox="0 0 566.93 283.46"><defs><style>.cls-1{fill:#27aae1;}.cls-2{fill:none;stroke:#231f20;stroke-miterlimit:10;}.cls-3{fill:#f1f2f2;}</style></defs><rect class="cls-1" width="566.93" height="283.46"/><path class="cls-2" d="M268.27,68.75v.38"/><path class="cls-1" d="M44.84,71.82c2.62.21,5.13,1,7.7,1.44a26.1,26.1,0,0,0,7.64.22A47,47,0,0,0,74.6,68.71c4.57-2.2,9-4.67,13.69-6.64a73.91,73.91,0,0,1,14.3-4.48,43.09,43.09,0,0,1,16.63-.23,2.56,2.56,0,0,0,3.07-1.75,2.51,2.51,0,0,0-1.75-3.07c-10.41-2-21-.13-30.79,3.6a142.27,142.27,0,0,0-14.09,6.47C71.29,64.83,66.85,67,62,68.11a21.7,21.7,0,0,1-7.7.41c-3.2-.44-6.26-1.45-9.5-1.7a2.5,2.5,0,0,0,0,5Z"/><path class="cls-1" d="M267.3,71.57c3.21,0,3.22-5,0-5s-3.23,5,0,5Z"/><rect class="cls-3" x="130.68" y="113.9" width="121.05" height="34.02" rx="12"/><ellipse class="cls-3" cx="176.57" cy="109.15" rx="21.36" ry="26.9"/><ellipse class="cls-3" cx="210.59" cy="97.29" rx="34.02" ry="38.77"/><rect class="cls-3" x="369.63" y="64.84" width="121.05" height="34.02" rx="12"/><ellipse class="cls-3" cx="415.52" cy="60.1" rx="21.36" ry="26.9"/><ellipse class="cls-3" cx="449.54" cy="48.23" rx="34.02" ry="38.77"/><rect class="cls-3" x="362.51" y="197.12" width="121.05" height="34.02" rx="12"/><ellipse class="cls-3" cx="408.4" cy="192.37" rx="21.36" ry="26.9"/><ellipse class="cls-3" cx="442.42" cy="180.5" rx="34.02" ry="38.77"/><rect class="cls-3" x="94.68" y="241.82" width="121.05" height="34.02" rx="12"/><ellipse class="cls-3" cx="140.57" cy="237.07" rx="21.36" ry="26.9"/><ellipse class="cls-3" cx="174.59" cy="225.2" rx="34.02" ry="38.77"/><rect class="cls-3" x="231.96" y="186.69" width="121.05" height="34.02" rx="12"/><ellipse class="cls-3" cx="277.85" cy="181.95" rx="21.36" ry="26.9"/><ellipse class="cls-3" cx="311.87" cy="170.08" rx="34.02" ry="38.77"/></svg>