<?xml version="1.0" encoding="utf-8"?>
<!-- Generator: Adobe Illustrator 25.0.0, SVG Export Plug-In . SVG Version: 6.00 Build 0)  -->
<svg version="1.1" id="Layer_1" xmlns="http://www.w3.org/2000/svg" xmlns:xlink="http://www.w3.org/1999/xlink" x="0px" y="0px"
	 viewBox="0 0 8.8 19.1" style="enable-background:new 0 0 8.8 19.1;" xml:space="preserve">
<style type="text/css">
	.st0{fill:#F2FAFE;}
	.st1{clip-path:url(#SVGID_2_);}
	.st2{clip-path:url(#SVGID_4_);}
</style>
<g id="surface1">
	<path class="st0" d="M7.7,1.8V1.6c0-0.1-0.1-0.2-0.2-0.2H1.3c-0.1,0-0.2,0.1-0.2,0.2l0,0v0.2C1.1,1.9,1.2,2,1.3,2l0,0h6.3
		C7.6,2,7.7,1.9,7.7,1.8"/>
	<g>
		<defs>
			<rect id="SVGID_1_" y="0" width="8.8" height="1.7"/>
		</defs>
		<clipPath id="SVGID_2_">
			<use xlink:href="#SVGID_1_"  style="overflow:visible;"/>
		</clipPath>
		<g class="st1">
			<path class="st0" d="M8.4,0H0.3C0.2,0,0,0.2,0,0.3v0.5C0,1,0.1,1.1,0.3,1.1c0,0,0,0,0,0h8.1c0.2,0,0.3-0.2,0.3-0.3c0,0,0,0,0,0
				V0.3C8.8,0.2,8.6,0,8.4,0"/>
		</g>
	</g>
	<g>
		<defs>
			<rect id="SVGID_3_" y="16.7" width="8.8" height="2.4"/>
		</defs>
		<clipPath id="SVGID_4_">
			<use xlink:href="#SVGID_3_"  style="overflow:visible;"/>
		</clipPath>
		<g class="st2">
			<path class="st0" d="M8.3,17.2H0.5c-0.3,0-0.5,0.2-0.5,0.5c0,0,0,0,0,0v1.4h8.8v-1.4C8.8,17.4,8.6,17.2,8.3,17.2
				C8.3,17.2,8.3,17.2,8.3,17.2"/>
		</g>
	</g>
	<path class="st0" d="M6.9,15.7V2.3h-5v13.4H6.9"/>
	<path class="st0" d="M7.9,16.9c-0.3,0-0.6-0.4-0.6-0.9H1.5c0,0.5-0.3,0.9-0.6,0.9H7.9"/>
</g>
</svg>
