<svg id="Layer_1" data-name="Layer 1" xmlns="http://www.w3.org/2000/svg" viewBox="0 0 88.5 88.5"><defs><style>.cls-1{fill:#2bb673;}.cls-2{fill:#231f20;}</style></defs><circle class="cls-1" cx="44.25" cy="44.25" r="44.25"/><path class="cls-1" d="M240.82,311.6l1.05,3.88a2.54,2.54,0,0,0,2.42,1.83,2.61,2.61,0,0,0,2.41-1.83l2.56-7.87a2.52,2.52,0,0,0-1.75-3.07,2.55,2.55,0,0,0-3.07,1.74l-2.57,7.87h4.83l-1.06-3.88a2.5,2.5,0,0,0-4.82,1.33Z" transform="translate(-214 -284)"/><path class="cls-1" d="M245.38,311.71l1.9,9a2.53,2.53,0,0,0,3.08,1.75,2.57,2.57,0,0,0,1.74-3.08l-1.89-9a2.52,2.52,0,0,0-3.08-1.75,2.58,2.58,0,0,0-1.75,3.08Z" transform="translate(-214 -284)"/><path class="cls-1" d="M248.52,308.68c.07.29.12.58.17.88l-.09-.67a9.8,9.8,0,0,1,0,2.42l.09-.66a10.18,10.18,0,0,1-.66,2.46l.25-.6a9.32,9.32,0,0,1-1.21,2.09l.39-.51a1.56,1.56,0,0,1-.16.2,2.71,2.71,0,0,0-.73,1.77,2.5,2.5,0,0,0,4.27,1.77,11.87,11.87,0,0,0,2.5-10.48,2.51,2.51,0,0,0-3.07-1.74,2.56,2.56,0,0,0-1.75,3.07Z" transform="translate(-214 -284)"/><path class="cls-1" d="M251.85,314l8,5.08a2.5,2.5,0,0,0,2.52-4.32l-7.95-5.08a2.52,2.52,0,0,0-3.42.89,2.57,2.57,0,0,0,.9,3.43Z" transform="translate(-214 -284)"/><path class="cls-1" d="M259,314.5H245a2.5,2.5,0,0,0,0,5h14a2.5,2.5,0,0,0,0-5Z" transform="translate(-214 -284)"/><path class="cls-1" d="M240.29,321.08c2,3.25,6.18,3.63,9.36,1.92a19.42,19.42,0,0,0,4.21-3.47l4.41-4.35,18.17-17.93a2.53,2.53,0,0,0,0-3.53,2.56,2.56,0,0,0-3.54,0,120,120,0,0,1-20.18,13.09c-2.86,1.48-.33,5.8,2.53,4.32a126.11,126.11,0,0,0,21.19-13.88l-3.54-3.53-15.7,15.49c-2.55,2.52-5.08,5.05-7.65,7.55-1,.92-3.85,3.55-4.94,1.8-1.69-2.73-6-.22-4.32,2.52Z" transform="translate(-214 -284)"/><path class="cls-2" d="M241.62,305.66a17.49,17.49,0,0,0,4.47,8.7,2.54,2.54,0,0,0,3,.39,3.05,3.05,0,0,0,.89-.9,2.6,2.6,0,0,0,.26-1.93l-.86-4.58a2.51,2.51,0,0,0-1.15-1.5,2.51,2.51,0,0,0-3.42.9,2.79,2.79,0,0,0-.25,1.93l.86,4.58,4.17-2.43c-.34-.36-.66-.74-1-1.14l.39.51a15.51,15.51,0,0,1-1.93-3.35l.25.6a14.63,14.63,0,0,1-.92-3.11,2.49,2.49,0,0,0-1.15-1.49,2.48,2.48,0,0,0-3.42.89,2.81,2.81,0,0,0-.25,1.93Z" transform="translate(-214 -284)"/><path class="cls-2" d="M273.23,305.23l-2,2a1.93,1.93,0,0,0-.51.81,2.2,2.2,0,0,0,0,1.92,1.93,1.93,0,0,0,.51.81l.51.39a2.53,2.53,0,0,0,1.26.34l.66-.09a2.48,2.48,0,0,0,1.11-.64l2-2a1.93,1.93,0,0,0,.51-.81,2.2,2.2,0,0,0,0-1.92,1.93,1.93,0,0,0-.51-.81l-.51-.39a2.53,2.53,0,0,0-1.26-.34l-.66.09a2.48,2.48,0,0,0-1.11.64Z" transform="translate(-214 -284)"/><path class="cls-2" d="M235.19,334.78c2.89,7.45,10.74,11.74,18.35,12.88,7.78,1.17,16.49-1.09,20-8.78a13.1,13.1,0,0,0,0-11.81c-1.5-2.85-5.82-.32-4.31,2.52s.68,6-1,8.56a11.7,11.7,0,0,1-8.94,4.81,23.09,23.09,0,0,1-11.67-2.27c-3.17-1.54-6.33-3.84-7.65-7.24a2.58,2.58,0,0,0-3.07-1.75,2.53,2.53,0,0,0-1.75,3.08Z" transform="translate(-214 -284)"/><path class="cls-2" d="M231.71,302.55l13.86-4.45a2.5,2.5,0,0,0-1.33-4.82l-13.86,4.45a2.5,2.5,0,0,0,1.33,4.82Z" transform="translate(-214 -284)"/><path class="cls-2" d="M266,292.41l.71.08c.56.06-.48-.08,0,0l1.23.22a24.16,24.16,0,0,1,2.5.65c.4.12.79.26,1.19.4l.58.23.33.13-.19-.08c.79.36,1.56.73,2.32,1.16a2.5,2.5,0,1,0,2.52-4.32A28.36,28.36,0,0,0,266,287.41a2.5,2.5,0,0,0-2.5,2.5,2.57,2.57,0,0,0,2.5,2.5Z" transform="translate(-214 -284)"/></svg>