<svg id="Layer_1" data-name="Layer 1" xmlns="http://www.w3.org/2000/svg" viewBox="0 0 468.6 512.52"><defs><style>.cls-1,.cls-2{fill:#754c29;stroke:#231f20;stroke-miterlimit:10;}.cls-2{stroke-width:5px;}</style></defs><ellipse class="cls-1" cx="234.3" cy="256.26" rx="233.8" ry="255.76"/><rect class="cls-2" x="100.19" y="69.34" width="91.38" height="29.67"/><rect class="cls-2" x="188.61" y="69.34" width="91.38" height="29.67"/><rect class="cls-2" x="186.68" y="39.66" width="91.38" height="29.67"/><rect class="cls-2" x="186.68" y="9.99" width="91.38" height="29.67"/><rect class="cls-2" x="119.77" y="39.66" width="91.38" height="29.67"/><rect class="cls-2" x="259.82" y="39.66" width="91.38" height="29.67"/><rect class="cls-2" x="237.27" y="455.05" width="91.38" height="29.67"/><rect class="cls-2" x="15.34" y="188.02" width="91.38" height="29.67"/><rect class="cls-2" x="365.45" y="188.02" width="91.38" height="29.67"/><rect class="cls-2" x="15.34" y="306.7" width="91.38" height="29.67"/><rect class="cls-2" x="313.23" y="395.71" width="91.38" height="29.67"/><rect class="cls-2" x="328.65" y="366.04" width="91.38" height="29.67"/><rect class="cls-2" x="358.92" y="305.07" width="91.38" height="29.67"/><rect class="cls-2" x="365.45" y="277.03" width="91.38" height="29.67"/><rect class="cls-2" x="351.2" y="336.37" width="91.38" height="29.67"/><rect class="cls-2" x="43.82" y="366.04" width="91.38" height="29.67"/><rect class="cls-2" x="61.03" y="395.71" width="91.38" height="29.67"/><rect class="cls-2" x="8.81" y="277.03" width="91.38" height="29.67"/><rect class="cls-2" x="8.81" y="217.69" width="91.38" height="29.67"/><rect class="cls-2" x="21.27" y="158.35" width="91.38" height="29.67"/><rect class="cls-2" x="33.14" y="128.68" width="91.38" height="29.67"/><rect class="cls-2" x="319.75" y="99.01" width="91.38" height="29.67"/><rect class="cls-2" x="342.9" y="128.68" width="91.38" height="29.67"/><rect class="cls-2" x="279.99" y="69.34" width="91.38" height="29.67"/><rect class="cls-2" x="145.88" y="99.01" width="91.38" height="29.67"/><rect class="cls-2" x="237.27" y="99.01" width="91.38" height="29.67"/><rect class="cls-2" x="54.5" y="99.01" width="91.38" height="29.67"/><rect class="cls-2" x="97.23" y="128.68" width="91.38" height="29.67"/><rect class="cls-2" x="191.58" y="128.68" width="91.38" height="29.67"/><rect class="cls-2" x="282.96" y="128.68" width="91.38" height="29.67"/><rect class="cls-2" x="142.92" y="158.35" width="91.38" height="29.67"/><rect class="cls-2" x="237.27" y="158.35" width="91.38" height="29.67"/><rect class="cls-2" x="51.53" y="158.35" width="91.38" height="29.67"/><rect class="cls-2" x="100.19" y="188.02" width="91.38" height="29.67"/><rect class="cls-2" x="191.58" y="188.02" width="91.38" height="29.67"/><rect class="cls-2" x="282.96" y="188.02" width="91.38" height="29.67"/><rect class="cls-2" x="328.65" y="158.35" width="91.38" height="29.67"/><rect class="cls-2" x="142.92" y="217.69" width="91.38" height="29.67"/><rect class="cls-2" x="237.27" y="217.69" width="91.38" height="29.67"/><rect class="cls-2" x="328.65" y="217.69" width="91.38" height="29.67"/><rect class="cls-2" x="51.53" y="217.69" width="91.38" height="29.67"/><rect class="cls-2" x="100.19" y="247.36" width="91.38" height="29.67"/><rect class="cls-2" x="188.61" y="247.36" width="91.38" height="29.67"/><rect class="cls-2" x="279.99" y="247.36" width="91.38" height="29.67"/><rect class="cls-2" x="374.35" y="247.36" width="91.38" height="29.67"/><rect class="cls-2" x="8.81" y="247.36" width="91.38" height="29.67"/><rect class="cls-2" x="142.92" y="277.03" width="91.38" height="29.67"/><rect class="cls-2" x="234.3" y="277.03" width="91.38" height="29.67"/><rect class="cls-2" x="328.65" y="277.03" width="91.38" height="29.67"/><rect class="cls-2" x="54.5" y="277.03" width="91.38" height="29.67"/><rect class="cls-2" x="100.19" y="306.7" width="91.38" height="29.67"/><rect class="cls-2" x="191.58" y="306.7" width="91.38" height="29.67"/><rect class="cls-2" x="282.96" y="306.7" width="91.38" height="29.67"/><rect class="cls-2" x="145.88" y="336.37" width="91.38" height="29.67"/><rect class="cls-2" x="234.3" y="336.37" width="91.38" height="29.67"/><rect class="cls-2" x="328.65" y="336.37" width="91.38" height="29.67"/><rect class="cls-2" x="54.5" y="336.37" width="91.38" height="29.67"/><rect class="cls-2" x="97.23" y="366.04" width="91.38" height="29.67"/><rect class="cls-2" x="188.61" y="366.04" width="91.38" height="29.67"/><rect class="cls-2" x="279.99" y="366.04" width="91.38" height="29.67"/><rect class="cls-2" x="142.92" y="395.71" width="91.38" height="29.67"/><rect class="cls-2" x="237.27" y="395.71" width="91.38" height="29.67"/><rect class="cls-2" x="191.58" y="425.38" width="91.38" height="29.67"/><rect class="cls-2" x="100.19" y="425.38" width="91.38" height="29.67"/><rect class="cls-2" x="282.96" y="425.38" width="91.38" height="29.67"/><rect class="cls-2" x="145.88" y="455.05" width="91.38" height="29.67"/></svg>