<svg id="Layer_1" data-name="Layer 1" xmlns="http://www.w3.org/2000/svg" viewBox="0 0 274.5 263.44"><defs><style>.cls-1{fill:#603913;}.cls-2{fill:none;stroke:#231f20;stroke-miterlimit:10;stroke-width:2px;}</style></defs><ellipse class="cls-1" cx="137.25" cy="131.72" rx="137.25" ry="131.72"/><rect class="cls-2" x="54.2" y="39.99" width="46.42" height="26.52"/><rect class="cls-2" x="100.62" y="39.99" width="46.42" height="26.52"/><rect class="cls-2" x="147.04" y="39.99" width="46.42" height="26.52"/><rect class="cls-2" x="185.28" y="39.99" width="46.42" height="26.52"/><rect class="cls-2" x="77.41" y="66.51" width="46.42" height="26.52"/><rect class="cls-2" x="123.83" y="66.51" width="46.42" height="26.52"/><rect class="cls-2" x="31" y="66.51" width="46.42" height="26.52"/><rect class="cls-2" x="170.25" y="66.51" width="46.42" height="26.52"/><rect class="cls-2" x="123.83" y="13.46" width="46.42" height="26.52"/><rect class="cls-2" x="90.83" y="10.38" width="46.42" height="26.52"/><rect class="cls-2" x="4.91" y="121.18" width="46.42" height="26.52"/><rect class="cls-2" x="208.49" y="65.43" width="46.42" height="26.52"/><rect class="cls-2" x="216.67" y="146.09" width="46.42" height="26.52"/><rect class="cls-2" x="202.92" y="175.85" width="46.42" height="26.52"/><rect class="cls-2" x="179.72" y="203.46" width="46.42" height="26.52"/><rect class="cls-2" x="100.62" y="229.98" width="46.42" height="26.52"/><rect class="cls-2" x="11.72" y="148.25" width="46.42" height="26.52"/><rect class="cls-2" x="147.04" y="93.04" width="46.42" height="26.52"/><rect class="cls-2" x="100.62" y="93.04" width="46.42" height="26.52"/><rect class="cls-2" x="54.2" y="93.04" width="46.42" height="26.52"/><rect class="cls-2" x="7.79" y="93.04" width="46.42" height="26.52"/><rect class="cls-2" x="31" y="120.64" width="46.42" height="26.52"/><rect class="cls-2" x="77.41" y="120.64" width="46.42" height="26.52"/><rect class="cls-2" x="54.2" y="148.25" width="46.42" height="26.52"/><rect class="cls-2" x="100.62" y="148.25" width="46.42" height="26.52"/><rect class="cls-2" x="123.83" y="120.64" width="46.42" height="26.52"/><rect class="cls-2" x="170.25" y="120.64" width="46.42" height="26.52"/><rect class="cls-2" x="193.46" y="93.04" width="46.42" height="26.52"/><rect class="cls-2" x="147.04" y="148.25" width="46.42" height="26.52"/><rect class="cls-2" x="123.83" y="175.85" width="46.42" height="26.52"/><rect class="cls-2" x="77.41" y="175.85" width="46.42" height="26.52"/><rect class="cls-2" x="31" y="175.85" width="46.42" height="26.52"/><rect class="cls-2" x="54.2" y="203.46" width="46.42" height="26.52"/><rect class="cls-2" x="100.62" y="203.46" width="46.42" height="26.52"/><rect class="cls-2" x="147.04" y="203.46" width="46.42" height="26.52"/><rect class="cls-2" x="123.83" y="229.98" width="46.42" height="26.52"/><rect class="cls-2" x="170.25" y="175.85" width="46.42" height="26.52"/><rect class="cls-2" x="193.46" y="148.25" width="46.42" height="26.52"/><rect class="cls-2" x="216.67" y="120.64" width="46.42" height="26.52"/></svg>