<svg id="Layer_1" data-name="Layer 1" xmlns="http://www.w3.org/2000/svg" viewBox="0 0 274.5 263.44"><defs><style>.cls-1{fill:#2a0800;}.cls-2{fill:#3c2415;}.cls-3{fill:#734b46;}.cls-4{fill:#1d0400;}</style></defs><ellipse class="cls-1" cx="137.25" cy="131.72" rx="137.25" ry="131.72"/><rect class="cls-2" x="95.51" y="33.16" width="106.27" height="41.45"/><rect class="cls-2" x="30.98" y="103.17" width="106.27" height="41.45"/><rect class="cls-2" x="148.64" y="154.29" width="106.27" height="41.45"/><rect class="cls-2" x="148.64" y="82.44" width="106.27" height="41.45"/><rect class="cls-2" x="23.79" y="154.29" width="106.27" height="41.45"/><rect class="cls-2" x="84.11" y="205.41" width="106.27" height="41.45"/><rect class="cls-3" x="190.38" y="131.72" width="41.92" height="16.72"/><rect class="cls-3" x="142.85" y="127.9" width="41.92" height="16.72"/><rect class="cls-3" x="93.87" y="80.53" width="41.92" height="16.72"/><rect class="cls-3" x="58.82" y="24.8" width="41.92" height="16.72"/><rect class="cls-3" x="42.19" y="47.96" width="41.92" height="16.72"/><rect class="cls-3" x="112.07" y="5.63" width="41.92" height="16.72"/><rect class="cls-3" x="208.2" y="57.89" width="41.92" height="16.72"/><rect class="cls-3" x="197.52" y="198.68" width="41.92" height="16.72"/><rect class="cls-3" x="35" y="198.68" width="41.92" height="16.72"/><rect class="cls-4" x="23.79" y="74.61" width="65.27" height="22.64"/><rect class="cls-4" x="243.71" y="131.72" width="20.54" height="12.9"/><rect class="cls-4" x="211.76" y="40.99" width="20.54" height="12.9"/><rect class="cls-4" x="163.82" y="18.44" width="37.96" height="11.98"/></svg>