<svg id="Layer_1" data-name="Layer 1" xmlns="http://www.w3.org/2000/svg" xmlns:xlink="http://www.w3.org/1999/xlink" viewBox="0 0 369 33"><defs><style>.cls-1,.cls-2{stroke:#231f20;stroke-miterlimit:10;}.cls-1{fill:url(#Fading_Sky);}.cls-2{fill:none;}</style><linearGradient id="Fading_Sky" x1="0.5" y1="16.5" x2="368.5" y2="16.5" gradientUnits="userSpaceOnUse"><stop offset="0" stop-color="#2484c6"/><stop offset="1" stop-color="#2484c6" stop-opacity="0"/></linearGradient></defs><rect class="cls-1" x="0.5" y="0.5" width="368" height="32"/><path class="cls-2" d="M134,272a10.3,10.3,0,0,1-13.88-3.79,8.18,8.18,0,0,1-.44-7.14c2.65-6.77,10.16-6.32,12.6-1.48a5,5,0,0,1,.26,3.71c-1.56,5-6.86,4.64-8.35,1.21a2.91,2.91,0,0,1-.12-1.91c1-3.7,5-3.2,5.6-.4-.28,2.71-2.72,2.82-3.5,1.42a1.38,1.38,0,0,1,.54-1.88" transform="translate(-114.5 -246.5)"/><path class="cls-2" d="M283.06,272a10.3,10.3,0,0,1-13.88-3.79,8.25,8.25,0,0,1-.44-7.14c2.66-6.77,10.16-6.32,12.61-1.48a5,5,0,0,1,.25,3.71c-1.55,5-6.86,4.64-8.35,1.21a2.91,2.91,0,0,1-.12-1.91c1-3.7,5-3.2,5.6-.4-.27,2.71-2.72,2.82-3.5,1.42a1.38,1.38,0,0,1,.54-1.88" transform="translate(-114.5 -246.5)"/><path class="cls-2" d="M257.07,272a10.3,10.3,0,0,1-13.88-3.79,8.21,8.21,0,0,1-.45-7.14c2.66-6.77,10.16-6.32,12.61-1.48a5,5,0,0,1,.26,3.71c-1.56,5-6.86,4.64-8.35,1.21a2.91,2.91,0,0,1-.12-1.91c1-3.7,5-3.2,5.59-.4-.27,2.71-2.71,2.82-3.49,1.42a1.38,1.38,0,0,1,.54-1.88" transform="translate(-114.5 -246.5)"/><path class="cls-2" d="M403,272a10.3,10.3,0,0,1-13.88-3.79,8.21,8.21,0,0,1-.45-7.14c2.66-6.77,10.16-6.32,12.61-1.48a5,5,0,0,1,.26,3.71c-1.56,5-6.87,4.64-8.35,1.21a3,3,0,0,1-.13-1.91c1-3.7,5.05-3.2,5.6-.4-.27,2.71-2.71,2.82-3.49,1.42a1.38,1.38,0,0,1,.54-1.88" transform="translate(-114.5 -246.5)"/><path class="cls-2" d="M372.94,272a10.3,10.3,0,0,1-13.88-3.79,8.21,8.21,0,0,1-.45-7.14c2.66-6.77,10.17-6.32,12.61-1.48a5,5,0,0,1,.26,3.71c-1.56,5-6.86,4.64-8.35,1.21a2.91,2.91,0,0,1-.12-1.91c1-3.7,5-3.2,5.6-.4-.28,2.71-2.72,2.82-3.5,1.42a1.38,1.38,0,0,1,.54-1.88" transform="translate(-114.5 -246.5)"/><path class="cls-2" d="M341.66,272a10.3,10.3,0,0,1-13.88-3.79,8.21,8.21,0,0,1-.44-7.14c2.65-6.77,10.16-6.32,12.6-1.48a5,5,0,0,1,.26,3.71c-1.56,5-6.86,4.64-8.35,1.21a2.91,2.91,0,0,1-.12-1.91c1-3.7,5-3.2,5.6-.4-.27,2.71-2.72,2.82-3.5,1.42a1.38,1.38,0,0,1,.54-1.88" transform="translate(-114.5 -246.5)"/><path class="cls-2" d="M434.6,272a10.3,10.3,0,0,1-13.88-3.79,8.25,8.25,0,0,1-.44-7.14c2.66-6.77,10.16-6.32,12.61-1.48a5,5,0,0,1,.25,3.71c-1.55,5-6.86,4.64-8.35,1.21a3,3,0,0,1-.12-1.91c1-3.7,5-3.2,5.6-.4-.27,2.71-2.72,2.82-3.49,1.42a1.37,1.37,0,0,1,.53-1.88" transform="translate(-114.5 -246.5)"/><path class="cls-2" d="M311.21,272a10.3,10.3,0,0,1-13.88-3.79,8.25,8.25,0,0,1-.44-7.14c2.66-6.77,10.16-6.32,12.61-1.48a5,5,0,0,1,.25,3.71c-1.55,5-6.86,4.64-8.35,1.21a3,3,0,0,1-.12-1.91c1-3.7,5-3.2,5.6-.4-.27,2.71-2.72,2.82-3.5,1.42a1.38,1.38,0,0,1,.54-1.88" transform="translate(-114.5 -246.5)"/><path class="cls-2" d="M469.25,272a10.3,10.3,0,0,1-13.88-3.79,8.21,8.21,0,0,1-.45-7.14c2.66-6.77,10.16-6.32,12.61-1.48a5,5,0,0,1,.26,3.71c-1.56,5-6.86,4.64-8.35,1.21a2.91,2.91,0,0,1-.12-1.91c1-3.7,5-3.2,5.59-.4-.27,2.71-2.71,2.82-3.49,1.42a1.38,1.38,0,0,1,.54-1.88" transform="translate(-114.5 -246.5)"/><path class="cls-2" d="M230.85,272A10.3,10.3,0,0,1,217,268.21a8.21,8.21,0,0,1-.45-7.14c2.66-6.77,10.16-6.32,12.61-1.48a5,5,0,0,1,.26,3.71c-1.56,5-6.87,4.64-8.35,1.21a3,3,0,0,1-.13-1.91c1-3.7,5.05-3.2,5.6-.4-.27,2.71-2.71,2.82-3.49,1.42a1.38,1.38,0,0,1,.54-1.88" transform="translate(-114.5 -246.5)"/><path class="cls-2" d="M208.34,272a10.3,10.3,0,0,1-13.88-3.79,8.25,8.25,0,0,1-.44-7.14c2.66-6.77,10.16-6.32,12.61-1.48a5,5,0,0,1,.25,3.71c-1.55,5-6.86,4.64-8.35,1.21a3,3,0,0,1-.12-1.91c1-3.7,5-3.2,5.6-.4-.27,2.71-2.72,2.82-3.5,1.42a1.38,1.38,0,0,1,.54-1.88" transform="translate(-114.5 -246.5)"/><path class="cls-2" d="M182.87,272A10.3,10.3,0,0,1,169,268.21a8.21,8.21,0,0,1-.44-7.14c2.66-6.77,10.16-6.32,12.61-1.48a5,5,0,0,1,.25,3.71c-1.55,5-6.86,4.64-8.35,1.21a2.91,2.91,0,0,1-.12-1.91c1-3.7,5-3.2,5.6-.4-.27,2.71-2.72,2.82-3.5,1.42a1.38,1.38,0,0,1,.54-1.88" transform="translate(-114.5 -246.5)"/><path class="cls-2" d="M158.08,272a10.3,10.3,0,0,1-13.88-3.79,8.21,8.21,0,0,1-.45-7.14c2.66-6.77,10.16-6.32,12.61-1.48a5,5,0,0,1,.26,3.71c-1.56,5-6.86,4.64-8.35,1.21a2.91,2.91,0,0,1-.12-1.91c1-3.7,5-3.2,5.59-.4-.27,2.71-2.71,2.82-3.49,1.42a1.38,1.38,0,0,1,.54-1.88" transform="translate(-114.5 -246.5)"/></svg>