<svg id="Layer_1" data-name="Layer 1" xmlns="http://www.w3.org/2000/svg" viewBox="0 0 100.33 81.07"><defs><style>.cls-1{fill:#262262;}.cls-2{fill:#f7941d;}.cls-3{fill:#fbb040;}</style></defs><rect class="cls-1" x="41.69" y="22.43" width="58.64" height="58.64"/><circle class="cls-2" cx="64.04" cy="34.37" r="3.31"/><circle class="cls-2" cx="0.45" cy="0.45" r="0.45"/><circle class="cls-3" cx="62.65" cy="33.94" r="1.38"/><circle class="cls-2" cx="83.08" cy="33.94" r="3.31"/><circle class="cls-3" cx="81.69" cy="33.5" r="1.38"/><circle class="cls-2" cx="71.01" cy="48.43" r="3.31"/><circle class="cls-3" cx="69.63" cy="48" r="1.38"/><circle class="cls-2" cx="55.02" cy="42.77" r="3.31"/><circle class="cls-3" cx="53.64" cy="42.33" r="1.38"/><circle class="cls-2" cx="52.25" cy="62.63" r="3.31"/><circle class="cls-3" cx="50.87" cy="62.2" r="1.38"/><circle class="cls-2" cx="59.46" cy="55.93" r="3.31"/><circle class="cls-3" cx="58.07" cy="55.49" r="1.38"/><circle class="cls-2" cx="71.56" cy="66.9" r="3.31"/><circle class="cls-3" cx="70.17" cy="66.47" r="1.38"/><circle class="cls-2" cx="53.64" cy="75.2" r="3.31"/><circle class="cls-3" cx="52.25" cy="74.77" r="1.38"/><circle class="cls-2" cx="91.11" cy="52.7" r="3.31"/><circle class="cls-3" cx="89.73" cy="52.27" r="1.38"/><circle class="cls-2" cx="89.73" cy="39.45" r="3.31"/><circle class="cls-3" cx="88.34" cy="39.02" r="1.38"/><circle class="cls-2" cx="47.56" cy="30.19" r="3.31"/><circle class="cls-3" cx="46.17" cy="29.76" r="1.38"/><circle class="cls-2" cx="72.94" cy="28.37" r="3.31"/><circle class="cls-3" cx="71.56" cy="27.94" r="1.38"/><circle class="cls-2" cx="78.88" cy="74.77" r="3.31"/><circle class="cls-3" cx="77.5" cy="74.33" r="1.38"/><circle class="cls-2" cx="87.8" cy="66.47" r="3.31"/><circle class="cls-3" cx="86.42" cy="66.03" r="1.38"/></svg>