<svg id="Layer_1" data-name="Layer 1" xmlns="http://www.w3.org/2000/svg" xmlns:xlink="http://www.w3.org/1999/xlink" viewBox="0 0 144 154.94"><defs><style>.cls-1{fill:url(#Orange_Yellow);}.cls-2{fill:#f1f2f2;}.cls-3{fill:#231f20;}</style><linearGradient id="Orange_Yellow" y1="77.47" x2="144" y2="77.47" gradientUnits="userSpaceOnUse"><stop offset="0" stop-color="#fff33b"/><stop offset="0.04" stop-color="#fee72e"/><stop offset="0.12" stop-color="#fed51b"/><stop offset="0.2" stop-color="#fdca10"/><stop offset="0.28" stop-color="#fdc70c"/><stop offset="0.67" stop-color="#f3903f"/><stop offset="0.89" stop-color="#ed683c"/><stop offset="1" stop-color="#e93e3a"/></linearGradient></defs><ellipse class="cls-1" cx="72" cy="77.47" rx="72" ry="77.47"/><circle class="cls-2" cx="55" cy="62" r="22"/><circle class="cls-3" cx="52.25" cy="62.25" r="8.25"/><circle class="cls-2" cx="112" cy="62" r="22"/><circle class="cls-3" cx="109.25" cy="62.25" r="8.25"/><path class="cls-3" d="M249,309a27.84,27.84,0,0,1,9-9c12.68-7.74,27.14-1.8,29-1" transform="translate(-212 -266)"/><path class="cls-3" d="M306,300c.83-1.83,3.51-7.07,9-9,7.55-2.65,17.69,1.89,23,12" transform="translate(-212 -266)"/><path class="cls-3" d="M252.53,386.84a122.37,122.37,0,0,0,31.5,6.44c8.77.61,18.23.66,26.52-2.66A25.9,25.9,0,0,0,322,382.08a2.52,2.52,0,0,0-.9-3.42,2.56,2.56,0,0,0-3.42.9c-4.45,5.95-12.35,8.1-19.4,8.74a100.16,100.16,0,0,1-28.06-1.85A118.7,118.7,0,0,1,253.86,382a2.5,2.5,0,1,0-1.33,4.82Z" transform="translate(-212 -266)"/></svg>